<svg version="1.1" viewBox="0.0 0.0 421.0 289.0" fill="none" stroke="none" stroke-linecap="square" stroke-miterlimit="10" width="421" height="289" xmlns:xlink="http://www.w3.org/1999/xlink" xmlns="http://www.w3.org/2000/svg"><path fill="#ffffff" d="M0 0L421.0 0L421.0 289.0L0 289.0L0 0Z" fill-rule="nonzero"/><clipPath id="id_0"><path d="M75.45 78.71667L406.55 78.71667L406.55 222.55L75.45 222.55L75.45 78.71667Z" clip-rule="nonzero"/></clipPath><path stroke="#4285f4" stroke-width="2.0" stroke-linecap="butt" clip-path="url(#id_0)" d="M84.88036 221.4895L108.898766 219.7033L132.91718 214.2401L156.93558 199.38617L180.95398 159.40303L204.9724 81.35864" fill-rule="nonzero"/><path stroke="#ea4335" stroke-width="2.0" stroke-linecap="butt" clip-path="url(#id_0)" d="M84.88036 221.80193L108.898766 221.72365L132.91718 221.38269L156.93558 220.37389L180.95398 218.49548L204.9724 214.64642L228.9908 206.77837L253.0092 190.51093L277.02762 155.57939L301.04602 90.436325" fill-rule="nonzero"/><path stroke="#fbbc04" stroke-width="2.0" stroke-linecap="butt" clip-path="url(#id_0)" d="M84.88036 222.49487L108.898766 222.4544L132.91718 222.44388L156.93558 222.36078L180.95398 222.21484L204.9724 221.9285L228.9908 220.90724L253.0092 219.90668L277.02762 216.79004L301.04602 210.2936L325.06442 197.1986L349.08282 159.92639L373.10123 82.183014" fill-rule="nonzero"/><path fill="#4285f4" clip-path="url(#id_0)" d="M89.38036 221.4895C89.38036 223.9748 87.36565 225.9895 84.88036 225.9895C82.39508 225.9895 80.38036 223.9748 80.38036 221.4895C80.38036 219.00423 82.39508 216.9895 84.88036 216.9895C87.36565 216.9895 89.38036 219.00423 89.38036 221.4895Z" fill-rule="nonzero"/><path fill="#4285f4" clip-path="url(#id_0)" d="M113.398766 219.7033C113.398766 222.18858 111.38405 224.2033 108.898766 224.2033C106.41348 224.2033 104.398766 222.18858 104.398766 219.7033C104.398766 217.21802 106.41348 215.2033 108.898766 215.2033C111.38405 215.2033 113.398766 217.21802 113.398766 219.7033Z" fill-rule="nonzero"/><path fill="#4285f4" clip-path="url(#id_0)" d="M137.41718 214.2401C137.41718 216.72539 135.40245 218.7401 132.91718 218.7401C130.43188 218.7401 128.41718 216.72539 128.41718 214.2401C128.41718 211.75482 130.43188 209.7401 132.91718 209.7401C135.40245 209.7401 137.41718 211.75482 137.41718 214.2401Z" fill-rule="nonzero"/><path fill="#4285f4" clip-path="url(#id_0)" d="M161.43558 199.38617C161.43558 201.87146 159.42087 203.88617 156.93558 203.88617C154.4503 203.88617 152.43558 201.87146 152.43558 199.38617C152.43558 196.9009 154.4503 194.88617 156.93558 194.88617C159.42087 194.88617 161.43558 196.9009 161.43558 199.38617Z" fill-rule="nonzero"/><path fill="#4285f4" clip-path="url(#id_0)" d="M185.45398 159.40303C185.45398 161.8883 183.43927 163.90303 180.95398 163.90303C178.4687 163.90303 176.45398 161.8883 176.45398 159.40303C176.45398 156.91774 178.4687 154.90303 180.95398 154.90303C183.43927 154.90303 185.45398 156.91774 185.45398 159.40303Z" fill-rule="nonzero"/><path fill="#4285f4" clip-path="url(#id_0)" d="M209.4724 81.35864C209.4724 83.843925 207.45767 85.85864 204.9724 85.85864C202.4871 85.85864 200.4724 83.843925 200.4724 81.35864C200.4724 78.87336 202.4871 76.85864 204.9724 76.85864C207.45767 76.85864 209.4724 78.87336 209.4724 81.35864Z" fill-rule="nonzero"/><path fill="#ea4335" clip-path="url(#id_0)" d="M84.88036 215.80193L90.076515 224.80193L79.68421 224.80193Z" fill-rule="nonzero"/><path fill="#ea4335" clip-path="url(#id_0)" d="M108.898766 215.72365L114.09492 224.72365L103.702614 224.72365Z" fill-rule="nonzero"/><path fill="#ea4335" clip-path="url(#id_0)" d="M132.91718 215.38269L138.11333 224.38269L127.72102 224.38269Z" fill-rule="nonzero"/><path fill="#ea4335" clip-path="url(#id_0)" d="M156.93558 214.37389L162.13173 223.37389L151.73943 223.37389Z" fill-rule="nonzero"/><path fill="#ea4335" clip-path="url(#id_0)" d="M180.95398 212.49548L186.15013 221.49548L175.75783 221.49548Z" fill-rule="nonzero"/><path fill="#ea4335" clip-path="url(#id_0)" d="M204.9724 208.64642L210.16855 217.64642L199.77625 217.64642Z" fill-rule="nonzero"/><path fill="#ea4335" clip-path="url(#id_0)" d="M228.9908 200.77837L234.18695 209.77837L223.79465 209.77837Z" fill-rule="nonzero"/><path fill="#ea4335" clip-path="url(#id_0)" d="M253.0092 184.51093L258.20535 193.51093L247.81305 193.51093Z" fill-rule="nonzero"/><path fill="#ea4335" clip-path="url(#id_0)" d="M277.02762 149.57939L282.22375 158.57939L271.83145 158.57939Z" fill-rule="nonzero"/><path fill="#ea4335" clip-path="url(#id_0)" d="M301.04602 84.436325L306.24216 93.436325L295.84985 93.436325Z" fill-rule="nonzero"/><path fill="#fbbc04" clip-path="url(#id_0)" d="M80.63772 218.25224L89.123 218.25224L89.123 226.73752L80.63772 226.73752Z" fill-rule="nonzero"/><path fill="#fbbc04" clip-path="url(#id_0)" d="M104.65613 218.21176L113.14141 218.21176L113.14141 226.69705L104.65613 226.69705Z" fill-rule="nonzero"/><path fill="#fbbc04" clip-path="url(#id_0)" d="M128.67453 218.20125L137.15982 218.20125L137.15982 226.68652L128.67453 226.68652Z" fill-rule="nonzero"/><path fill="#fbbc04" clip-path="url(#id_0)" d="M152.69293 218.11815L161.17822 218.11815L161.17822 226.60342L152.69293 226.60342Z" fill-rule="nonzero"/><path fill="#fbbc04" clip-path="url(#id_0)" d="M176.71135 217.9722L185.19662 217.9722L185.19662 226.45747L176.71135 226.45747Z" fill-rule="nonzero"/><path fill="#fbbc04" clip-path="url(#id_0)" d="M200.72975 217.68585L209.21503 217.68585L209.21503 226.17113L200.72975 226.17113Z" fill-rule="nonzero"/><path fill="#fbbc04" clip-path="url(#id_0)" d="M224.74815 216.66461L233.23344 216.66461L233.23344 225.14989L224.74815 225.14989Z" fill-rule="nonzero"/><path fill="#fbbc04" clip-path="url(#id_0)" d="M248.76656 215.66403L257.25183 215.66403L257.25183 224.1493L248.76656 224.1493Z" fill-rule="nonzero"/><path fill="#fbbc04" clip-path="url(#id_0)" d="M272.78497 212.5474L281.27026 212.5474L281.27026 221.03267L272.78497 221.03267Z" fill-rule="nonzero"/><path fill="#fbbc04" clip-path="url(#id_0)" d="M296.80338 206.05095L305.28867 206.05095L305.28867 214.53622L296.80338 214.53622Z" fill-rule="nonzero"/><path fill="#fbbc04" clip-path="url(#id_0)" d="M320.82178 192.95595L329.30707 192.95595L329.30707 201.44124L320.82178 201.44124Z" fill-rule="nonzero"/><path fill="#fbbc04" clip-path="url(#id_0)" d="M344.84018 155.68375L353.32547 155.68375L353.32547 164.16902L344.84018 164.16902Z" fill-rule="nonzero"/><path fill="#fbbc04" clip-path="url(#id_0)" d="M368.85858 77.94038L377.34387 77.94038L377.34387 86.42566L368.85858 86.42566Z" fill-rule="nonzero"/><path fill="#000000" d="M220.875 269.6906L221.90625 269.53436Q222.0 270.15936 222.39062 270.4875Q222.79688 270.8156 223.53125 270.8156Q224.25 270.8156 224.59375 270.53436Q224.95312 270.2375 224.95312 269.83124Q224.95312 269.47186 224.64062 269.26874Q224.42188 269.1281 223.5625 268.90936Q222.40625 268.6125 221.95312 268.40936Q221.51562 268.1906 221.28125 267.8156Q221.04688 267.4406 221.04688 266.97186Q221.04688 266.5656 221.23438 266.20624Q221.42188 265.84686 221.75 265.6125Q222.0 265.4406 222.42188 265.3156Q222.84375 265.1906 223.34375 265.1906Q224.0625 265.1906 224.60938 265.40936Q225.17188 265.6125 225.4375 265.97186Q225.70312 266.33124 225.79688 266.925L224.76562 267.0656Q224.70312 266.59686 224.35938 266.33124Q224.03125 266.05 223.40625 266.05Q222.6875 266.05 222.375 266.3Q222.0625 266.53436 222.0625 266.8625Q222.0625 267.0656 222.1875 267.22186Q222.32812 267.39374 222.59375 267.5031Q222.75 267.5656 223.53125 267.76874Q224.65625 268.08124 225.09375 268.26874Q225.53125 268.45624 225.78125 268.8156Q226.03125 269.175 226.03125 269.72186Q226.03125 270.2531 225.71875 270.72186Q225.42188 271.175 224.84375 271.4406Q224.26562 271.6906 223.53125 271.6906Q222.3125 271.6906 221.67188 271.1906Q221.04688 270.675 220.875 269.6906ZM231.375 271.55L231.375 270.6281Q230.64062 271.6906 229.39062 271.6906Q228.84375 271.6906 228.35938 271.4875Q227.89062 271.26874 227.65625 270.95624Q227.42188 270.6281 227.32812 270.15936Q227.26562 269.8625 227.26562 269.175L227.26562 265.33124L228.32812 265.33124L228.32812 268.78436Q228.32812 269.59686 228.39062 269.89374Q228.48438 270.3 228.79688 270.55Q229.125 270.78436 229.60938 270.78436Q230.07812 270.78436 230.48438 270.55Q230.90625 270.3 231.07812 269.8781Q231.26562 269.45624 231.26562 268.65936L231.26562 265.33124L232.3125 265.33124L232.3125 271.55L231.375 271.55ZM234.29688 273.9406L234.29688 265.33124L235.25 265.33124L235.25 266.1281Q235.59375 265.65936 236.01562 265.425Q236.45312 265.1906 237.0625 265.1906Q237.85938 265.1906 238.46875 265.59686Q239.07812 266.0031 239.375 266.7531Q239.6875 267.5031 239.6875 268.39374Q239.6875 269.34686 239.34375 270.1125Q239.01562 270.8781 238.35938 271.28436Q237.70312 271.6906 236.98438 271.6906Q236.45312 271.6906 236.03125 271.47186Q235.60938 271.2375 235.34375 270.90936L235.34375 273.9406L234.29688 273.9406ZM235.25 268.47186Q235.25 269.675 235.73438 270.2531Q236.21875 270.8156 236.90625 270.8156Q237.60938 270.8156 238.10938 270.22186Q238.60938 269.6281 238.60938 268.3781Q238.60938 267.1906 238.125 266.6125Q237.64062 266.01874 236.95312 266.01874Q236.28125 266.01874 235.76562 266.64374Q235.25 267.26874 235.25 268.47186ZM241.29688 273.9406L241.29688 265.33124L242.25 265.33124L242.25 266.1281Q242.59375 265.65936 243.01562 265.425Q243.45312 265.1906 244.0625 265.1906Q244.85938 265.1906 245.46875 265.59686Q246.07812 266.0031 246.375 266.7531Q246.6875 267.5031 246.6875 268.39374Q246.6875 269.34686 246.34375 270.1125Q246.01562 270.8781 245.35938 271.28436Q244.70312 271.6906 243.98438 271.6906Q243.45312 271.6906 243.03125 271.47186Q242.60938 271.2375 242.34375 270.90936L242.34375 273.9406L241.29688 273.9406ZM242.25 268.47186Q242.25 269.675 242.73438 270.2531Q243.21875 270.8156 243.90625 270.8156Q244.60938 270.8156 245.10938 270.22186Q245.60938 269.6281 245.60938 268.3781Q245.60938 267.1906 245.125 266.6125Q244.64062 266.01874 243.95312 266.01874Q243.28125 266.01874 242.76562 266.64374Q242.25 267.26874 242.25 268.47186ZM247.90625 268.4406Q247.90625 266.70624 248.85938 265.8781Q249.65625 265.1906 250.8125 265.1906Q252.09375 265.1906 252.90625 266.03436Q253.73438 266.8625 253.73438 268.34686Q253.73438 269.55 253.375 270.2375Q253.01562 270.925 252.3125 271.3156Q251.625 271.6906 250.8125 271.6906Q249.51562 271.6906 248.70312 270.8625Q247.90625 270.01874 247.90625 268.4406ZM248.98438 268.4406Q248.98438 269.6281 249.5 270.22186Q250.03125 270.8156 250.8125 270.8156Q251.60938 270.8156 252.125 270.22186Q252.64062 269.6281 252.64062 268.40936Q252.64062 267.2531 252.10938 266.65936Q251.59375 266.0656 250.8125 266.0656Q250.03125 266.0656 249.5 266.65936Q248.98438 267.2375 248.98438 268.4406ZM255.28125 271.55L255.28125 265.33124L256.23438 265.33124L256.23438 266.26874Q256.59375 265.6125 256.89062 265.40936Q257.20312 265.1906 257.57812 265.1906Q258.10938 265.1906 258.65625 265.51874L258.29688 266.5031Q257.90625 266.26874 257.53125 266.26874Q257.17188 266.26874 256.89062 266.4875Q256.625 266.6906 256.51562 267.0656Q256.32812 267.6281 256.32812 268.28436L256.32812 271.55L255.28125 271.55ZM261.59375 270.6125L261.75 271.53436Q261.29688 271.6281 260.95312 271.6281Q260.375 271.6281 260.0625 271.45624Q259.75 271.26874 259.60938 270.97186Q259.48438 270.675 259.48438 269.72186L259.48438 266.14374L258.71875 266.14374L258.71875 265.33124L259.48438 265.33124L259.48438 263.78436L260.53125 263.15936L260.53125 265.33124L261.59375 265.33124L261.59375 266.14374L260.53125 266.14374L260.53125 269.78436Q260.53125 270.2375 260.57812 270.3625Q260.64062 270.4875 260.76562 270.5656Q260.89062 270.64374 261.125 270.64374Q261.3125 270.64374 261.59375 270.6125Z" fill-rule="nonzero"/><path fill="#000000" d="M25.450003 176.85208L19.231253 176.85208L19.231253 175.89896L20.168753 175.89896Q19.512503 175.53958 19.309378 175.2427Q19.090628 174.9302 19.090628 174.5552Q19.090628 174.02396 19.418753 173.47708L20.403128 173.83646Q20.168753 174.22708 20.168753 174.60208Q20.168753 174.96146 20.387503 175.2427Q20.590628 175.50833 20.965628 175.6177Q21.528128 175.8052 22.184378 175.8052L25.450003 175.8052L25.450003 176.85208ZM25.450003 168.75833L24.528128 168.75833Q25.590628 169.4927 25.590628 170.7427Q25.590628 171.28958 25.387503 171.77396Q25.168753 172.2427 24.856253 172.47708Q24.528128 172.71146 24.059378 172.8052Q23.762503 172.8677 23.075003 172.8677L19.231253 172.8677L19.231253 171.8052L22.684378 171.8052Q23.496878 171.8052 23.793753 171.7427Q24.200003 171.64896 24.450003 171.33646Q24.684378 171.00833 24.684378 170.52396Q24.684378 170.0552 24.450003 169.64896Q24.200003 169.22708 23.778128 169.0552Q23.356253 168.8677 22.559378 168.8677L19.231253 168.8677L19.231253 167.82083L25.450003 167.82083L25.450003 168.75833ZM25.450003 165.83646L19.231253 165.83646L19.231253 164.89896L20.106253 164.89896Q19.090628 164.21146 19.090628 162.91458Q19.090628 162.35208 19.293753 161.88333Q19.496878 161.39896 19.825003 161.16458Q20.153128 160.9302 20.590628 160.83646Q20.887503 160.78958 21.621878 160.78958L25.450003 160.78958L25.450003 161.83646L21.668753 161.83646Q21.012503 161.83646 20.700003 161.96146Q20.387503 162.08646 20.200003 162.39896Q19.996878 162.71146 19.996878 163.13333Q19.996878 163.8052 20.434378 164.3052Q20.856253 164.78958 22.043753 164.78958L25.450003 164.78958L25.450003 165.83646ZM24.512503 156.53958L25.434378 156.38333Q25.528128 156.83646 25.528128 157.1802Q25.528128 157.75833 25.356253 158.07083Q25.168753 158.38333 24.871878 158.52396Q24.575003 158.64896 23.621878 158.64896L20.043753 158.64896L20.043753 159.41458L19.231253 159.41458L19.231253 158.64896L17.684378 158.64896L17.059378 157.60208L19.231253 157.60208L19.231253 156.53958L20.043753 156.53958L20.043753 157.60208L23.684378 157.60208Q24.137503 157.60208 24.262503 157.5552Q24.387503 157.4927 24.465628 157.3677Q24.543753 157.2427 24.543753 157.00833Q24.543753 156.82083 24.512503 156.53958ZM18.075003 155.83646L16.856253 155.83646L16.856253 154.77396L18.075003 154.77396L18.075003 155.83646ZM25.450003 155.83646L19.231253 155.83646L19.231253 154.77396L25.450003 154.77396L25.450003 155.83646ZM25.450003 152.83646L19.231253 152.83646L19.231253 151.89896L20.106253 151.89896Q19.637503 151.60208 19.371878 151.1177Q19.090628 150.63333 19.090628 150.00833Q19.090628 149.32083 19.371878 148.88333Q19.653128 148.4302 20.168753 148.25833Q19.090628 147.50833 19.090628 146.33646Q19.090628 145.39896 19.606253 144.91458Q20.106253 144.41458 21.184378 144.41458L25.450003 144.41458L25.450003 145.46146L21.528128 145.46146Q20.903128 145.46146 20.621878 145.57083Q20.340628 145.66458 20.168753 145.9302Q19.996878 146.19583 19.996878 146.57083Q19.996878 147.22708 20.434378 147.66458Q20.871878 148.08646 21.840628 148.08646L25.450003 148.08646L25.450003 149.14896L21.403128 149.14896Q20.700003 149.14896 20.356253 149.41458Q19.996878 149.66458 19.996878 150.2427Q19.996878 150.69583 20.231253 151.07083Q20.465628 151.44583 20.918753 151.6177Q21.371878 151.78958 22.215628 151.78958L25.450003 151.78958L25.450003 152.83646ZM23.450003 138.58646L23.575003 137.4927Q24.528128 137.7427 25.059378 138.44583Q25.590628 139.14896 25.590628 140.22708Q25.590628 141.58646 24.746878 142.39896Q23.903128 143.19583 22.387503 143.19583Q20.825003 143.19583 19.965628 142.38333Q19.090628 141.57083 19.090628 140.28958Q19.090628 139.03958 19.934378 138.25833Q20.778128 137.46146 22.325003 137.46146Q22.418753 137.46146 22.606253 137.46146L22.606253 142.10208Q23.637503 142.03958 24.184378 141.52396Q24.715628 141.00833 24.715628 140.22708Q24.715628 139.64896 24.418753 139.2427Q24.106253 138.82083 23.450003 138.58646ZM21.746878 142.03958L21.746878 138.57083Q20.950003 138.63333 20.559378 138.96146Q19.950003 139.47708 19.950003 140.27396Q19.950003 141.00833 20.434378 141.50833Q20.918753 141.9927 21.746878 142.03958Z" fill-rule="nonzero"/><path fill="#000000" d="M63.825 224.69063L64.85625 224.53438Q64.95 225.15938 65.34062 225.4875Q65.74687 225.81563 66.48125 225.81563Q67.2 225.81563 67.54375 225.53438Q67.90312 225.2375 67.90312 224.83125Q67.90312 224.47188 67.59062 224.26875Q67.37187 224.12813 66.5125 223.90938Q65.35625 223.6125 64.90312 223.40938Q64.46562 223.19063 64.23125 222.81563Q63.996876 222.44063 63.996876 221.97188Q63.996876 221.56563 64.18437 221.20625Q64.37187 220.84688 64.7 220.6125Q64.95 220.44063 65.37187 220.31563Q65.79375 220.19063 66.29375 220.19063Q67.0125 220.19063 67.55937 220.40938Q68.12187 220.6125 68.3875 220.97188Q68.65312 221.33125 68.74687 221.925L67.71562 222.06563Q67.65312 221.59688 67.30937 221.33125Q66.98125 221.05 66.35625 221.05Q65.6375 221.05 65.325 221.3Q65.0125 221.53438 65.0125 221.8625Q65.0125 222.06563 65.1375 222.22188Q65.27812 222.39375 65.54375 222.50313Q65.7 222.56563 66.48125 222.76875Q67.60625 223.08125 68.04375 223.26875Q68.48125 223.45625 68.73125 223.81563Q68.98125 224.175 68.98125 224.72188Q68.98125 225.25313 68.66875 225.72188Q68.37187 226.175 67.79375 226.44063Q67.21562 226.69063 66.48125 226.69063Q65.2625 226.69063 64.62187 226.19063Q63.996876 225.675 63.825 224.69063Z" fill-rule="nonzero"/><path fill="#000000" d="M50.91875 197.78334L49.871876 197.78334L49.871876 191.06459Q49.48125 191.42397 48.85625 191.79897Q48.246876 192.15834 47.7625 192.33022L47.7625 191.31459Q48.6375 190.89272 49.29375 190.31459Q49.965626 189.72084 50.246876 189.15834L50.91875 189.15834L50.91875 197.78334ZM53.95 193.54897Q53.95 192.01772 54.2625 191.09584Q54.575 190.15834 55.184376 189.65834Q55.809376 189.15834 56.746876 189.15834Q57.434376 189.15834 57.95 189.43959Q58.48125 189.72084 58.825 190.25209Q59.16875 190.76772 59.35625 191.51772Q59.54375 192.26772 59.54375 193.54897Q59.54375 195.06459 59.23125 195.98647Q58.934376 196.90834 58.309376 197.42397Q57.7 197.92397 56.746876 197.92397Q55.5125 197.92397 54.79375 197.03334Q53.95 195.97084 53.95 193.54897ZM55.028126 193.54897Q55.028126 195.65834 55.528126 196.36147Q56.028126 197.06459 56.746876 197.06459Q57.48125 197.06459 57.965626 196.36147Q58.465626 195.65834 58.465626 193.54897Q58.465626 191.42397 57.965626 190.73647Q57.48125 190.03334 56.73125 190.03334Q56.0125 190.03334 55.575 190.64272Q55.028126 191.42397 55.028126 193.54897ZM63.825 195.92397L64.85625 195.76772Q64.95 196.39272 65.34062 196.72084Q65.74687 197.04897 66.48125 197.04897Q67.2 197.04897 67.54375 196.76772Q67.90312 196.47084 67.90312 196.06459Q67.90312 195.70522 67.59062 195.50209Q67.37187 195.36147 66.5125 195.14272Q65.35625 194.84584 64.90312 194.64272Q64.46562 194.42397 64.23125 194.04897Q63.996876 193.67397 63.996876 193.20522Q63.996876 192.79897 64.18437 192.43959Q64.37187 192.08022 64.7 191.84584Q64.95 191.67397 65.37187 191.54897Q65.79375 191.42397 66.29375 191.42397Q67.0125 191.42397 67.55937 191.64272Q68.12187 191.84584 68.3875 192.20522Q68.65312 192.56459 68.74687 193.15834L67.71562 193.29897Q67.65312 192.83022 67.30937 192.56459Q66.98125 192.28334 66.35625 192.28334Q65.6375 192.28334 65.325 192.53334Q65.0125 192.76772 65.0125 193.09584Q65.0125 193.29897 65.1375 193.45522Q65.27812 193.62709 65.54375 193.73647Q65.7 193.79897 66.48125 194.00209Q67.60625 194.31459 68.04375 194.50209Q68.48125 194.68959 68.73125 195.04897Q68.98125 195.40834 68.98125 195.95522Q68.98125 196.48647 68.66875 196.95522Q68.37187 197.40834 67.79375 197.67397Q67.21562 197.92397 66.48125 197.92397Q65.2625 197.92397 64.62187 197.42397Q63.996876 196.90834 63.825 195.92397Z" fill-rule="nonzero"/><path fill="#000000" d="M52.496876 168.00104L52.496876 169.01666L46.809376 169.01666Q46.809376 168.64166 46.934376 168.28229Q47.153126 167.70416 47.621876 167.14166Q48.10625 166.57916 49.0125 165.84479Q50.41875 164.68854 50.903126 164.01666Q51.403126 163.34479 51.403126 162.75104Q51.403126 162.12604 50.95 161.70416Q50.496876 161.26666 49.778126 161.26666Q49.0125 161.26666 48.559376 161.71979Q48.10625 162.17291 48.090626 162.98541L47.0125 162.87604Q47.121876 161.65729 47.840626 161.03229Q48.575 160.39166 49.809376 160.39166Q51.04375 160.39166 51.7625 161.07916Q52.48125 161.76666 52.48125 162.78229Q52.48125 163.29791 52.2625 163.79791Q52.059376 164.28229 51.559376 164.84479Q51.075 165.39166 49.95 166.34479Q48.996876 167.14166 48.715626 167.43854Q48.45 167.71979 48.278126 168.00104L52.496876 168.00104ZM53.95 164.78229Q53.95 163.25104 54.2625 162.32916Q54.575 161.39166 55.184376 160.89166Q55.809376 160.39166 56.746876 160.39166Q57.434376 160.39166 57.95 160.67291Q58.48125 160.95416 58.825 161.48541Q59.16875 162.00104 59.35625 162.75104Q59.54375 163.50104 59.54375 164.78229Q59.54375 166.29791 59.23125 167.21979Q58.934376 168.14166 58.309376 168.65729Q57.7 169.15729 56.746876 169.15729Q55.5125 169.15729 54.79375 168.26666Q53.95 167.20416 53.95 164.78229ZM55.028126 164.78229Q55.028126 166.89166 55.528126 167.59479Q56.028126 168.29791 56.746876 168.29791Q57.48125 168.29791 57.965626 167.59479Q58.465626 166.89166 58.465626 164.78229Q58.465626 162.65729 57.965626 161.96979Q57.48125 161.26666 56.73125 161.26666Q56.0125 161.26666 55.575 161.87604Q55.028126 162.65729 55.028126 164.78229ZM63.825 167.15729L64.85625 167.00104Q64.95 167.62604 65.34062 167.95416Q65.74687 168.28229 66.48125 168.28229Q67.2 168.28229 67.54375 168.00104Q67.90312 167.70416 67.90312 167.29791Q67.90312 166.93854 67.59062 166.73541Q67.37187 166.59479 66.5125 166.37604Q65.35625 166.07916 64.90312 165.87604Q64.46562 165.65729 64.23125 165.28229Q63.996876 164.90729 63.996876 164.43854Q63.996876 164.03229 64.18437 163.67291Q64.37187 163.31354 64.7 163.07916Q64.95 162.90729 65.37187 162.78229Q65.79375 162.65729 66.29375 162.65729Q67.0125 162.65729 67.55937 162.87604Q68.12187 163.07916 68.3875 163.43854Q68.65312 163.79791 68.74687 164.39166L67.71562 164.53229Q67.65312 164.06354 67.30937 163.79791Q66.98125 163.51666 66.35625 163.51666Q65.6375 163.51666 65.325 163.76666Q65.0125 164.00104 65.0125 164.32916Q65.0125 164.53229 65.1375 164.68854Q65.27812 164.86041 65.54375 164.96979Q65.7 165.03229 66.48125 165.23541Q67.60625 165.54791 68.04375 165.73541Q68.48125 165.92291 68.73125 166.28229Q68.98125 166.64166 68.98125 167.18854Q68.98125 167.71979 68.66875 168.18854Q68.37187 168.64166 67.79375 168.90729Q67.21562 169.15729 66.48125 169.15729Q65.2625 169.15729 64.62187 168.65729Q63.996876 168.14166 63.825 167.15729Z" fill-rule="nonzero"/><path fill="#000000" d="M46.95 137.98438L48.0125 137.84375Q48.184376 138.73438 48.621876 139.14062Q49.059376 139.53125 49.684376 139.53125Q50.434376 139.53125 50.95 139.01562Q51.465626 138.5 51.465626 137.73438Q51.465626 137.01562 50.98125 136.54688Q50.5125 136.0625 49.778126 136.0625Q49.48125 136.0625 49.028126 136.1875L49.153126 135.25Q49.2625 135.26562 49.325 135.26562Q49.996876 135.26562 50.528126 134.92188Q51.075 134.5625 51.075 133.82812Q51.075 133.25 50.684376 132.875Q50.29375 132.48438 49.66875 132.48438Q49.059376 132.48438 48.6375 132.875Q48.23125 133.26562 48.121876 134.03125L47.059376 133.84375Q47.246876 132.79688 47.934376 132.21875Q48.621876 131.625 49.6375 131.625Q50.340626 131.625 50.934376 131.9375Q51.528126 132.23438 51.840626 132.75Q52.153126 133.26562 52.153126 133.85938Q52.153126 134.40625 51.85625 134.875Q51.559376 135.32812 50.98125 135.59375Q51.73125 135.76562 52.153126 136.32812Q52.575 136.875 52.575 137.71875Q52.575 138.84375 51.746876 139.625Q50.934376 140.40625 49.684376 140.40625Q48.559376 140.40625 47.809376 139.73438Q47.059376 139.04688 46.95 137.98438ZM53.95 136.01562Q53.95 134.48438 54.2625 133.5625Q54.575 132.625 55.184376 132.125Q55.809376 131.625 56.746876 131.625Q57.434376 131.625 57.95 131.90625Q58.48125 132.1875 58.825 132.71875Q59.16875 133.23438 59.35625 133.98438Q59.54375 134.73438 59.54375 136.01562Q59.54375 137.53125 59.23125 138.45312Q58.934376 139.375 58.309376 139.89062Q57.7 140.39062 56.746876 140.39062Q55.5125 140.39062 54.79375 139.5Q53.95 138.4375 53.95 136.01562ZM55.028126 136.01562Q55.028126 138.125 55.528126 138.82812Q56.028126 139.53125 56.746876 139.53125Q57.48125 139.53125 57.965626 138.82812Q58.465626 138.125 58.465626 136.01562Q58.465626 133.89062 57.965626 133.20312Q57.48125 132.5 56.73125 132.5Q56.0125 132.5 55.575 133.10938Q55.028126 133.89062 55.028126 136.01562ZM63.825 138.39062L64.85625 138.23438Q64.95 138.85938 65.34062 139.1875Q65.74687 139.51562 66.48125 139.51562Q67.2 139.51562 67.54375 139.23438Q67.90312 138.9375 67.90312 138.53125Q67.90312 138.17188 67.59062 137.96875Q67.37187 137.82812 66.5125 137.60938Q65.35625 137.3125 64.90312 137.10938Q64.46562 136.89062 64.23125 136.51562Q63.996876 136.14062 63.996876 135.67188Q63.996876 135.26562 64.18437 134.90625Q64.37187 134.54688 64.7 134.3125Q64.95 134.14062 65.37187 134.01562Q65.79375 133.89062 66.29375 133.89062Q67.0125 133.89062 67.55937 134.10938Q68.12187 134.3125 68.3875 134.67188Q68.65312 135.03125 68.74687 135.625L67.71562 135.76562Q67.65312 135.29688 67.30937 135.03125Q66.98125 134.75 66.35625 134.75Q65.6375 134.75 65.325 135.0Q65.0125 135.23438 65.0125 135.5625Q65.0125 135.76562 65.1375 135.92188Q65.27812 136.09375 65.54375 136.20312Q65.7 136.26562 66.48125 136.46875Q67.60625 136.78125 68.04375 136.96875Q68.48125 137.15625 68.73125 137.51562Q68.98125 137.875 68.98125 138.42188Q68.98125 138.95312 68.66875 139.42188Q68.37187 139.875 67.79375 140.14062Q67.21562 140.39062 66.48125 140.39062Q65.2625 140.39062 64.62187 139.89062Q63.996876 139.375 63.825 138.39062Z" fill-rule="nonzero"/><path fill="#000000" d="M50.325 111.48333L50.325 109.42083L46.60625 109.42083L46.60625 108.45208L50.528126 102.88958L51.3875 102.88958L51.3875 108.45208L52.54375 108.45208L52.54375 109.42083L51.3875 109.42083L51.3875 111.48333L50.325 111.48333ZM50.325 108.45208L50.325 104.592705L47.6375 108.45208L50.325 108.45208ZM53.95 107.248955Q53.95 105.717705 54.2625 104.79583Q54.575 103.85833 55.184376 103.35833Q55.809376 102.85833 56.746876 102.85833Q57.434376 102.85833 57.95 103.13958Q58.48125 103.42083 58.825 103.95208Q59.16875 104.467705 59.35625 105.217705Q59.54375 105.967705 59.54375 107.248955Q59.54375 108.76458 59.23125 109.686455Q58.934376 110.60833 58.309376 111.123955Q57.7 111.623955 56.746876 111.623955Q55.5125 111.623955 54.79375 110.73333Q53.95 109.67083 53.95 107.248955ZM55.028126 107.248955Q55.028126 109.35833 55.528126 110.061455Q56.028126 110.76458 56.746876 110.76458Q57.48125 110.76458 57.965626 110.061455Q58.465626 109.35833 58.465626 107.248955Q58.465626 105.123955 57.965626 104.436455Q57.48125 103.73333 56.73125 103.73333Q56.0125 103.73333 55.575 104.342705Q55.028126 105.123955 55.028126 107.248955ZM63.825 109.623955L64.85625 109.467705Q64.95 110.092705 65.34062 110.42083Q65.74687 110.748955 66.48125 110.748955Q67.2 110.748955 67.54375 110.467705Q67.90312 110.17083 67.90312 109.76458Q67.90312 109.405205 67.59062 109.20208Q67.37187 109.061455 66.5125 108.842705Q65.35625 108.54583 64.90312 108.342705Q64.46562 108.123955 64.23125 107.748955Q63.996876 107.373955 63.996876 106.905205Q63.996876 106.498955 64.18437 106.13958Q64.37187 105.780205 64.7 105.54583Q64.95 105.373955 65.37187 105.248955Q65.79375 105.123955 66.29375 105.123955Q67.0125 105.123955 67.55937 105.342705Q68.12187 105.54583 68.3875 105.905205Q68.65312 106.26458 68.74687 106.85833L67.71562 106.998955Q67.65312 106.530205 67.30937 106.26458Q66.98125 105.98333 66.35625 105.98333Q65.6375 105.98333 65.325 106.23333Q65.0125 106.467705 65.0125 106.79583Q65.0125 106.998955 65.1375 107.155205Q65.27812 107.32708 65.54375 107.436455Q65.7 107.498955 66.48125 107.70208Q67.60625 108.01458 68.04375 108.20208Q68.48125 108.38958 68.73125 108.748955Q68.98125 109.10833 68.98125 109.655205Q68.98125 110.186455 68.66875 110.655205Q68.37187 111.10833 67.79375 111.373955Q67.21562 111.623955 66.48125 111.623955Q65.2625 111.623955 64.62187 111.123955Q63.996876 110.60833 63.825 109.623955Z" fill-rule="nonzero"/><path fill="#000000" d="M46.95 80.46667L48.059376 80.37292Q48.184376 81.18542 48.621876 81.59167Q49.075 81.99792 49.715626 81.99792Q50.465626 81.99792 50.996876 81.41979Q51.528126 80.84167 51.528126 79.90417Q51.528126 78.99792 51.0125 78.48229Q50.5125 77.95104 49.684376 77.95104Q49.184376 77.95104 48.7625 78.18542Q48.35625 78.41979 48.121876 78.77917L47.1375 78.65417L47.965626 74.24792L52.246876 74.24792L52.246876 75.24792L48.809376 75.24792L48.35625 77.56042Q49.121876 77.01354 49.965626 77.01354Q51.090626 77.01354 51.85625 77.79479Q52.6375 78.57604 52.6375 79.81042Q52.6375 80.96667 51.965626 81.82604Q51.1375 82.85729 49.715626 82.85729Q48.54375 82.85729 47.79375 82.20104Q47.059376 81.54479 46.95 80.46667ZM53.95 78.48229Q53.95 76.95104 54.2625 76.02917Q54.575 75.09167 55.184376 74.59167Q55.809376 74.09167 56.746876 74.09167Q57.434376 74.09167 57.95 74.37292Q58.48125 74.65417 58.825 75.18542Q59.16875 75.70104 59.35625 76.45104Q59.54375 77.20104 59.54375 78.48229Q59.54375 79.99792 59.23125 80.91979Q58.934376 81.84167 58.309376 82.35729Q57.7 82.85729 56.746876 82.85729Q55.5125 82.85729 54.79375 81.96667Q53.95 80.90417 53.95 78.48229ZM55.028126 78.48229Q55.028126 80.59167 55.528126 81.29479Q56.028126 81.99792 56.746876 81.99792Q57.48125 81.99792 57.965626 81.29479Q58.465626 80.59167 58.465626 78.48229Q58.465626 76.35729 57.965626 75.66979Q57.48125 74.96667 56.73125 74.96667Q56.0125 74.96667 55.575 75.57604Q55.028126 76.35729 55.028126 78.48229ZM63.825 80.85729L64.85625 80.70104Q64.95 81.32604 65.34062 81.65417Q65.74687 81.98229 66.48125 81.98229Q67.2 81.98229 67.54375 81.70104Q67.90312 81.40417 67.90312 80.99792Q67.90312 80.63854 67.59062 80.43542Q67.37187 80.29479 66.5125 80.07604Q65.35625 79.77917 64.90312 79.57604Q64.46562 79.35729 64.23125 78.98229Q63.996876 78.60729 63.996876 78.13854Q63.996876 77.73229 64.18437 77.37292Q64.37187 77.01354 64.7 76.77917Q64.95 76.60729 65.37187 76.48229Q65.79375 76.35729 66.29375 76.35729Q67.0125 76.35729 67.55937 76.57604Q68.12187 76.77917 68.3875 77.13854Q68.65312 77.49792 68.74687 78.09167L67.71562 78.23229Q67.65312 77.76354 67.30937 77.49792Q66.98125 77.21667 66.35625 77.21667Q65.6375 77.21667 65.325 77.46667Q65.0125 77.70104 65.0125 78.02917Q65.0125 78.23229 65.1375 78.38854Q65.27812 78.56042 65.54375 78.66979Q65.7 78.73229 66.48125 78.93542Q67.60625 79.24792 68.04375 79.43542Q68.48125 79.62292 68.73125 79.98229Q68.98125 80.34167 68.98125 80.88854Q68.98125 81.41979 68.66875 81.88854Q68.37187 82.34167 67.79375 82.60729Q67.21562 82.85729 66.48125 82.85729Q65.2625 82.85729 64.62187 82.35729Q63.996876 81.84167 63.825 80.85729Z" fill-rule="nonzero"/><path fill="#000000" d="M352.60123 237.28438L353.66373 237.14375Q353.8356 238.03438 354.2731 238.44063Q354.7106 238.83125 355.3356 238.83125Q356.0856 238.83125 356.60123 238.31563Q357.11685 237.8 357.11685 237.03438Q357.11685 236.31563 356.63248 235.84688Q356.16373 235.3625 355.42935 235.3625Q355.13248 235.3625 354.67935 235.4875L354.80435 234.55Q354.91373 234.56563 354.97623 234.56563Q355.6481 234.56563 356.17935 234.22188Q356.72623 233.8625 356.72623 233.12813Q356.72623 232.55 356.3356 232.175Q355.94498 231.78438 355.31998 231.78438Q354.7106 231.78438 354.28873 232.175Q353.88248 232.56563 353.7731 233.33125L352.7106 233.14375Q352.8981 232.09688 353.5856 231.51875Q354.2731 230.925 355.28873 230.925Q355.99185 230.925 356.5856 231.2375Q357.17935 231.53438 357.49185 232.05Q357.80435 232.56563 357.80435 233.15938Q357.80435 233.70625 357.50748 234.175Q357.2106 234.62813 356.63248 234.89375Q357.38248 235.06563 357.80435 235.62813Q358.22623 236.175 358.22623 237.01875Q358.22623 238.14375 357.3981 238.925Q356.5856 239.70625 355.3356 239.70625Q354.2106 239.70625 353.4606 239.03438Q352.7106 238.34688 352.60123 237.28438ZM359.60123 237.3L360.7106 237.20625Q360.8356 238.01875 361.2731 238.425Q361.72623 238.83125 362.36685 238.83125Q363.11685 238.83125 363.6481 238.25313Q364.17935 237.675 364.17935 236.7375Q364.17935 235.83125 363.66373 235.31563Q363.16373 234.78438 362.3356 234.78438Q361.8356 234.78438 361.41373 235.01875Q361.00748 235.25313 360.7731 235.6125L359.78873 235.4875L360.61685 231.08125L364.8981 231.08125L364.8981 232.08125L361.4606 232.08125L361.00748 234.39375Q361.7731 233.84688 362.61685 233.84688Q363.74185 233.84688 364.50748 234.62813Q365.28873 235.40938 365.28873 236.64375Q365.28873 237.8 364.61685 238.65938Q363.78873 239.69063 362.36685 239.69063Q361.19498 239.69063 360.44498 239.03438Q359.7106 238.37813 359.60123 237.3ZM367.19498 239.55L367.19498 238.34688L368.3981 238.34688L368.3981 239.55L367.19498 239.55ZM369.60123 235.31563Q369.60123 233.78438 369.91373 232.8625Q370.22623 231.925 370.8356 231.425Q371.4606 230.925 372.3981 230.925Q373.0856 230.925 373.60123 231.20625Q374.13248 231.4875 374.47623 232.01875Q374.81998 232.53438 375.00748 233.28438Q375.19498 234.03438 375.19498 235.31563Q375.19498 236.83125 374.88248 237.75313Q374.5856 238.675 373.9606 239.19063Q373.35123 239.69063 372.3981 239.69063Q371.16373 239.69063 370.44498 238.8Q369.60123 237.7375 369.60123 235.31563ZM370.67935 235.31563Q370.67935 237.425 371.17935 238.12813Q371.67935 238.83125 372.3981 238.83125Q373.13248 238.83125 373.61685 238.12813Q374.11685 237.425 374.11685 235.31563Q374.11685 233.19063 373.61685 232.50313Q373.13248 231.8 372.38248 231.8Q371.66373 231.8 371.22623 232.40938Q370.67935 233.19063 370.67935 235.31563ZM376.60123 235.31563Q376.60123 233.78438 376.91373 232.8625Q377.22623 231.925 377.8356 231.425Q378.4606 230.925 379.3981 230.925Q380.0856 230.925 380.60123 231.20625Q381.13248 231.4875 381.47623 232.01875Q381.81998 232.53438 382.00748 233.28438Q382.19498 234.03438 382.19498 235.31563Q382.19498 236.83125 381.88248 237.75313Q381.5856 238.675 380.9606 239.19063Q380.35123 239.69063 379.3981 239.69063Q378.16373 239.69063 377.44498 238.8Q376.60123 237.7375 376.60123 235.31563ZM377.67935 235.31563Q377.67935 237.425 378.17935 238.12813Q378.67935 238.83125 379.3981 238.83125Q380.13248 238.83125 380.61685 238.12813Q381.11685 237.425 381.11685 235.31563Q381.11685 233.19063 380.61685 232.50313Q380.13248 231.8 379.38248 231.8Q378.66373 231.8 378.22623 232.40938Q377.67935 233.19063 377.67935 235.31563ZM383.80435 233.01875Q383.80435 232.09688 384.25748 231.45625Q384.72623 230.81563 385.60123 230.81563Q386.41373 230.81563 386.94498 231.39375Q387.47623 231.97188 387.47623 233.08125Q387.47623 234.175 386.92935 234.76875Q386.3981 235.34688 385.61685 235.34688Q384.8356 235.34688 384.31998 234.76875Q383.80435 234.19063 383.80435 233.01875ZM385.63248 231.53438Q385.24185 231.53438 384.97623 231.87813Q384.72623 232.22188 384.72623 233.12813Q384.72623 233.95625 384.97623 234.3Q385.24185 234.62813 385.63248 234.62813Q386.03873 234.62813 386.28873 234.28438Q386.55435 233.94063 386.55435 233.05Q386.55435 232.20625 386.28873 231.87813Q386.0231 231.53438 385.63248 231.53438ZM385.63248 239.8625L390.3356 230.81563L391.19498 230.81563L386.50748 239.8625L385.63248 239.8625ZM389.35123 237.53438Q389.35123 236.6125 389.80435 235.97188Q390.2731 235.33125 391.16373 235.33125Q391.97623 235.33125 392.50748 235.90938Q393.03873 236.47188 393.03873 237.59688Q393.03873 238.69063 392.49185 239.28438Q391.9606 239.8625 391.16373 239.8625Q390.3981 239.8625 389.86685 239.28438Q389.35123 238.70625 389.35123 237.53438ZM391.19498 236.05Q390.78873 236.05 390.5231 236.39375Q390.2731 236.7375 390.2731 237.64375Q390.2731 238.45625 390.53873 238.8Q390.80435 239.14375 391.19498 239.14375Q391.5856 239.14375 391.85123 238.8Q392.11685 238.45625 392.11685 237.55Q392.11685 236.72188 391.85123 236.39375Q391.5856 236.05 391.19498 236.05Z" fill-rule="nonzero"/><path fill="#000000" d="M307.93942 239.55L307.93942 237.4875L304.22067 237.4875L304.22067 236.51875L308.14255 230.95625L309.00192 230.95625L309.00192 236.51875L310.15817 236.51875L310.15817 237.4875L309.00192 237.4875L309.00192 239.55L307.93942 239.55ZM307.93942 236.51875L307.93942 232.65938L305.25192 236.51875L307.93942 236.51875ZM311.56442 237.3L312.6738 237.20625Q312.7988 238.01875 313.2363 238.425Q313.68942 238.83125 314.33005 238.83125Q315.08005 238.83125 315.6113 238.25313Q316.14255 237.675 316.14255 236.7375Q316.14255 235.83125 315.62692 235.31563Q315.12692 234.78438 314.2988 234.78438Q313.7988 234.78438 313.37692 235.01875Q312.97067 235.25313 312.7363 235.6125L311.75192 235.4875L312.58005 231.08125L316.8613 231.08125L316.8613 232.08125L313.4238 232.08125L312.97067 234.39375Q313.7363 233.84688 314.58005 233.84688Q315.70505 233.84688 316.47067 234.62813Q317.25192 235.40938 317.25192 236.64375Q317.25192 237.8 316.58005 238.65938Q315.75192 239.69063 314.33005 239.69063Q313.15817 239.69063 312.40817 239.03438Q311.6738 238.37813 311.56442 237.3ZM319.15817 239.55L319.15817 238.34688L320.3613 238.34688L320.3613 239.55L319.15817 239.55ZM321.56442 235.31563Q321.56442 233.78438 321.87692 232.8625Q322.18942 231.925 322.7988 231.425Q323.4238 230.925 324.3613 230.925Q325.0488 230.925 325.56442 231.20625Q326.09567 231.4875 326.43942 232.01875Q326.78317 232.53438 326.97067 233.28438Q327.15817 234.03438 327.15817 235.31563Q327.15817 236.83125 326.84567 237.75313Q326.5488 238.675 325.9238 239.19063Q325.31442 239.69063 324.3613 239.69063Q323.12692 239.69063 322.40817 238.8Q321.56442 237.7375 321.56442 235.31563ZM322.64255 235.31563Q322.64255 237.425 323.14255 238.12813Q323.64255 238.83125 324.3613 238.83125Q325.09567 238.83125 325.58005 238.12813Q326.08005 237.425 326.08005 235.31563Q326.08005 233.19063 325.58005 232.50313Q325.09567 231.8 324.34567 231.8Q323.62692 231.8 323.18942 232.40938Q322.64255 233.19063 322.64255 235.31563ZM328.56442 235.31563Q328.56442 233.78438 328.87692 232.8625Q329.18942 231.925 329.7988 231.425Q330.4238 230.925 331.3613 230.925Q332.0488 230.925 332.56442 231.20625Q333.09567 231.4875 333.43942 232.01875Q333.78317 232.53438 333.97067 233.28438Q334.15817 234.03438 334.15817 235.31563Q334.15817 236.83125 333.84567 237.75313Q333.5488 238.675 332.9238 239.19063Q332.31442 239.69063 331.3613 239.69063Q330.12692 239.69063 329.40817 238.8Q328.56442 237.7375 328.56442 235.31563ZM329.64255 235.31563Q329.64255 237.425 330.14255 238.12813Q330.64255 238.83125 331.3613 238.83125Q332.09567 238.83125 332.58005 238.12813Q333.08005 237.425 333.08005 235.31563Q333.08005 233.19063 332.58005 232.50313Q332.09567 231.8 331.34567 231.8Q330.62692 231.8 330.18942 232.40938Q329.64255 233.19063 329.64255 235.31563ZM335.76755 233.01875Q335.76755 232.09688 336.22067 231.45625Q336.68942 230.81563 337.56442 230.81563Q338.37692 230.81563 338.90817 231.39375Q339.43942 231.97188 339.43942 233.08125Q339.43942 234.175 338.89255 234.76875Q338.3613 235.34688 337.58005 235.34688Q336.7988 235.34688 336.28317 234.76875Q335.76755 234.19063 335.76755 233.01875ZM337.59567 231.53438Q337.20505 231.53438 336.93942 231.87813Q336.68942 232.22188 336.68942 233.12813Q336.68942 233.95625 336.93942 234.3Q337.20505 234.62813 337.59567 234.62813Q338.00192 234.62813 338.25192 234.28438Q338.51755 233.94063 338.51755 233.05Q338.51755 232.20625 338.25192 231.87813Q337.9863 231.53438 337.59567 231.53438ZM337.59567 239.8625L342.2988 230.81563L343.15817 230.81563L338.47067 239.8625L337.59567 239.8625ZM341.31442 237.53438Q341.31442 236.6125 341.76755 235.97188Q342.2363 235.33125 343.12692 235.33125Q343.93942 235.33125 344.47067 235.90938Q345.00192 236.47188 345.00192 237.59688Q345.00192 238.69063 344.45505 239.28438Q343.9238 239.8625 343.12692 239.8625Q342.3613 239.8625 341.83005 239.28438Q341.31442 238.70625 341.31442 237.53438ZM343.15817 236.05Q342.75192 236.05 342.4863 236.39375Q342.2363 236.7375 342.2363 237.64375Q342.2363 238.45625 342.50192 238.8Q342.76755 239.14375 343.15817 239.14375Q343.5488 239.14375 343.81442 238.8Q344.08005 238.45625 344.08005 237.55Q344.08005 236.72188 343.81442 236.39375Q343.5488 236.05 343.15817 236.05Z" fill-rule="nonzero"/><path fill="#000000" d="M256.52762 237.3L257.637 237.20625Q257.762 238.01875 258.1995 238.425Q258.65262 238.83125 259.29324 238.83125Q260.04324 238.83125 260.5745 238.25313Q261.10574 237.675 261.10574 236.7375Q261.10574 235.83125 260.59012 235.31563Q260.09012 234.78438 259.262 234.78438Q258.762 234.78438 258.34012 235.01875Q257.93387 235.25313 257.6995 235.6125L256.71512 235.4875L257.54324 231.08125L261.8245 231.08125L261.8245 232.08125L258.387 232.08125L257.93387 234.39375Q258.6995 233.84688 259.54324 233.84688Q260.66824 233.84688 261.43387 234.62813Q262.21512 235.40938 262.21512 236.64375Q262.21512 237.8 261.54324 238.65938Q260.71512 239.69063 259.29324 239.69063Q258.12137 239.69063 257.37137 239.03438Q256.637 238.37813 256.52762 237.3ZM263.52762 237.3L264.637 237.20625Q264.762 238.01875 265.1995 238.425Q265.65262 238.83125 266.29324 238.83125Q267.04324 238.83125 267.5745 238.25313Q268.10574 237.675 268.10574 236.7375Q268.10574 235.83125 267.59012 235.31563Q267.09012 234.78438 266.262 234.78438Q265.762 234.78438 265.34012 235.01875Q264.93387 235.25313 264.6995 235.6125L263.71512 235.4875L264.54324 231.08125L268.8245 231.08125L268.8245 232.08125L265.387 232.08125L264.93387 234.39375Q265.6995 233.84688 266.54324 233.84688Q267.66824 233.84688 268.43387 234.62813Q269.21512 235.40938 269.21512 236.64375Q269.21512 237.8 268.54324 238.65938Q267.71512 239.69063 266.29324 239.69063Q265.12137 239.69063 264.37137 239.03438Q263.637 238.37813 263.52762 237.3ZM271.12137 239.55L271.12137 238.34688L272.3245 238.34688L272.3245 239.55L271.12137 239.55ZM273.52762 235.31563Q273.52762 233.78438 273.84012 232.8625Q274.15262 231.925 274.762 231.425Q275.387 230.925 276.3245 230.925Q277.012 230.925 277.52762 231.20625Q278.05887 231.4875 278.40262 232.01875Q278.74637 232.53438 278.93387 233.28438Q279.12137 234.03438 279.12137 235.31563Q279.12137 236.83125 278.80887 237.75313Q278.512 238.675 277.887 239.19063Q277.27762 239.69063 276.3245 239.69063Q275.09012 239.69063 274.37137 238.8Q273.52762 237.7375 273.52762 235.31563ZM274.60574 235.31563Q274.60574 237.425 275.10574 238.12813Q275.60574 238.83125 276.3245 238.83125Q277.05887 238.83125 277.54324 238.12813Q278.04324 237.425 278.04324 235.31563Q278.04324 233.19063 277.54324 232.50313Q277.05887 231.8 276.30887 231.8Q275.59012 231.8 275.15262 232.40938Q274.60574 233.19063 274.60574 235.31563ZM280.52762 235.31563Q280.52762 233.78438 280.84012 232.8625Q281.15262 231.925 281.762 231.425Q282.387 230.925 283.3245 230.925Q284.012 230.925 284.52762 231.20625Q285.05887 231.4875 285.40262 232.01875Q285.74637 232.53438 285.93387 233.28438Q286.12137 234.03438 286.12137 235.31563Q286.12137 236.83125 285.80887 237.75313Q285.512 238.675 284.887 239.19063Q284.27762 239.69063 283.3245 239.69063Q282.09012 239.69063 281.37137 238.8Q280.52762 237.7375 280.52762 235.31563ZM281.60574 235.31563Q281.60574 237.425 282.10574 238.12813Q282.60574 238.83125 283.3245 238.83125Q284.05887 238.83125 284.54324 238.12813Q285.04324 237.425 285.04324 235.31563Q285.04324 233.19063 284.54324 232.50313Q284.05887 231.8 283.30887 231.8Q282.59012 231.8 282.15262 232.40938Q281.60574 233.19063 281.60574 235.31563ZM287.73074 233.01875Q287.73074 232.09688 288.18387 231.45625Q288.65262 230.81563 289.52762 230.81563Q290.34012 230.81563 290.87137 231.39375Q291.40262 231.97188 291.40262 233.08125Q291.40262 234.175 290.85574 234.76875Q290.3245 235.34688 289.54324 235.34688Q288.762 235.34688 288.24637 234.76875Q287.73074 234.19063 287.73074 233.01875ZM289.55887 231.53438Q289.16824 231.53438 288.90262 231.87813Q288.65262 232.22188 288.65262 233.12813Q288.65262 233.95625 288.90262 234.3Q289.16824 234.62813 289.55887 234.62813Q289.96512 234.62813 290.21512 234.28438Q290.48074 233.94063 290.48074 233.05Q290.48074 232.20625 290.21512 231.87813Q289.9495 231.53438 289.55887 231.53438ZM289.55887 239.8625L294.262 230.81563L295.12137 230.81563L290.43387 239.8625L289.55887 239.8625ZM293.27762 237.53438Q293.27762 236.6125 293.73074 235.97188Q294.1995 235.33125 295.09012 235.33125Q295.90262 235.33125 296.43387 235.90938Q296.96512 236.47188 296.96512 237.59688Q296.96512 238.69063 296.41824 239.28438Q295.887 239.8625 295.09012 239.8625Q294.3245 239.8625 293.79324 239.28438Q293.27762 238.70625 293.27762 237.53438ZM295.12137 236.05Q294.71512 236.05 294.4495 236.39375Q294.1995 236.7375 294.1995 237.64375Q294.1995 238.45625 294.46512 238.8Q294.73074 239.14375 295.12137 239.14375Q295.512 239.14375 295.77762 238.8Q296.04324 238.45625 296.04324 237.55Q296.04324 236.72188 295.77762 236.39375Q295.512 236.05 295.12137 236.05Z" fill-rule="nonzero"/><path fill="#000000" d="M213.95955 233.06563L212.91267 233.14375Q212.77205 232.51875 212.52205 232.2375Q212.08455 231.78438 211.45955 231.78438Q210.95955 231.78438 210.56892 232.06563Q210.08455 232.44063 209.78767 233.14375Q209.50642 233.83125 209.4908 235.1125Q209.8658 234.53438 210.41267 234.25313Q210.97517 233.97188 211.58455 233.97188Q212.63142 233.97188 213.3658 234.75313Q214.1158 235.53438 214.1158 236.75313Q214.1158 237.56563 213.75642 238.26875Q213.41267 238.95625 212.8033 239.33125Q212.19392 239.69063 211.4283 239.69063Q210.10017 239.69063 209.27205 238.72188Q208.44392 237.75313 208.44392 235.53438Q208.44392 233.03438 209.3658 231.90938Q210.16267 230.925 211.52205 230.925Q212.53767 230.925 213.1783 231.50313Q213.83455 232.06563 213.95955 233.06563ZM209.66267 236.76875Q209.66267 237.31563 209.88142 237.81563Q210.1158 238.3 210.52205 238.56563Q210.94392 238.83125 211.41267 238.83125Q212.06892 238.83125 212.5533 238.3Q213.03767 237.75313 213.03767 236.83125Q213.03767 235.94063 212.5533 235.425Q212.08455 234.90938 211.3658 234.90938Q210.64705 234.90938 210.14705 235.425Q209.66267 235.94063 209.66267 236.76875ZM215.4908 237.3L216.60017 237.20625Q216.72517 238.01875 217.16267 238.425Q217.6158 238.83125 218.25642 238.83125Q219.00642 238.83125 219.53767 238.25313Q220.06892 237.675 220.06892 236.7375Q220.06892 235.83125 219.5533 235.31563Q219.0533 234.78438 218.22517 234.78438Q217.72517 234.78438 217.3033 235.01875Q216.89705 235.25313 216.66267 235.6125L215.6783 235.4875L216.50642 231.08125L220.78767 231.08125L220.78767 232.08125L217.35017 232.08125L216.89705 234.39375Q217.66267 233.84688 218.50642 233.84688Q219.63142 233.84688 220.39705 234.62813Q221.1783 235.40938 221.1783 236.64375Q221.1783 237.8 220.50642 238.65938Q219.6783 239.69063 218.25642 239.69063Q217.08455 239.69063 216.33455 239.03438Q215.60017 238.37813 215.4908 237.3ZM223.08455 239.55L223.08455 238.34688L224.28767 238.34688L224.28767 239.55L223.08455 239.55ZM225.4908 235.31563Q225.4908 233.78438 225.8033 232.8625Q226.1158 231.925 226.72517 231.425Q227.35017 230.925 228.28767 230.925Q228.97517 230.925 229.4908 231.20625Q230.02205 231.4875 230.3658 232.01875Q230.70955 232.53438 230.89705 233.28438Q231.08455 234.03438 231.08455 235.31563Q231.08455 236.83125 230.77205 237.75313Q230.47517 238.675 229.85017 239.19063Q229.2408 239.69063 228.28767 239.69063Q227.0533 239.69063 226.33455 238.8Q225.4908 237.7375 225.4908 235.31563ZM226.56892 235.31563Q226.56892 237.425 227.06892 238.12813Q227.56892 238.83125 228.28767 238.83125Q229.02205 238.83125 229.50642 238.12813Q230.00642 237.425 230.00642 235.31563Q230.00642 233.19063 229.50642 232.50313Q229.02205 231.8 228.27205 231.8Q227.5533 231.8 227.1158 232.40938Q226.56892 233.19063 226.56892 235.31563ZM232.4908 235.31563Q232.4908 233.78438 232.8033 232.8625Q233.1158 231.925 233.72517 231.425Q234.35017 230.925 235.28767 230.925Q235.97517 230.925 236.4908 231.20625Q237.02205 231.4875 237.3658 232.01875Q237.70955 232.53438 237.89705 233.28438Q238.08455 234.03438 238.08455 235.31563Q238.08455 236.83125 237.77205 237.75313Q237.47517 238.675 236.85017 239.19063Q236.2408 239.69063 235.28767 239.69063Q234.0533 239.69063 233.33455 238.8Q232.4908 237.7375 232.4908 235.31563ZM233.56892 235.31563Q233.56892 237.425 234.06892 238.12813Q234.56892 238.83125 235.28767 238.83125Q236.02205 238.83125 236.50642 238.12813Q237.00642 237.425 237.00642 235.31563Q237.00642 233.19063 236.50642 232.50313Q236.02205 231.8 235.27205 231.8Q234.5533 231.8 234.1158 232.40938Q233.56892 233.19063 233.56892 235.31563ZM239.69392 233.01875Q239.69392 232.09688 240.14705 231.45625Q240.6158 230.81563 241.4908 230.81563Q242.3033 230.81563 242.83455 231.39375Q243.3658 231.97188 243.3658 233.08125Q243.3658 234.175 242.81892 234.76875Q242.28767 235.34688 241.50642 235.34688Q240.72517 235.34688 240.20955 234.76875Q239.69392 234.19063 239.69392 233.01875ZM241.52205 231.53438Q241.13142 231.53438 240.8658 231.87813Q240.6158 232.22188 240.6158 233.12813Q240.6158 233.95625 240.8658 234.3Q241.13142 234.62813 241.52205 234.62813Q241.9283 234.62813 242.1783 234.28438Q242.44392 233.94063 242.44392 233.05Q242.44392 232.20625 242.1783 231.87813Q241.91267 231.53438 241.52205 231.53438ZM241.52205 239.8625L246.22517 230.81563L247.08455 230.81563L242.39705 239.8625L241.52205 239.8625ZM245.2408 237.53438Q245.2408 236.6125 245.69392 235.97188Q246.16267 235.33125 247.0533 235.33125Q247.8658 235.33125 248.39705 235.90938Q248.9283 236.47188 248.9283 237.59688Q248.9283 238.69063 248.38142 239.28438Q247.85017 239.8625 247.0533 239.8625Q246.28767 239.8625 245.75642 239.28438Q245.2408 238.70625 245.2408 237.53438ZM247.08455 236.05Q246.6783 236.05 246.41267 236.39375Q246.16267 236.7375 246.16267 237.64375Q246.16267 238.45625 246.4283 238.8Q246.69392 239.14375 247.08455 239.14375Q247.47517 239.14375 247.7408 238.8Q248.00642 238.45625 248.00642 237.55Q248.00642 236.72188 247.7408 236.39375Q247.47517 236.05 247.08455 236.05Z" fill-rule="nonzero"/><path fill="#000000" d="M160.51648 232.08125L160.51648 231.06563L166.07898 231.06563L166.07898 231.89375Q165.26648 232.76875 164.45398 234.22188Q163.6571 235.65938 163.2196 237.19063Q162.89148 238.26875 162.81335 239.55L161.7196 239.55Q161.73523 238.53438 162.11023 237.09688Q162.50085 235.65938 163.20398 234.33125Q163.92273 233.00313 164.73523 232.08125L160.51648 232.08125ZM167.45398 237.3L168.56335 237.20625Q168.68835 238.01875 169.12585 238.425Q169.57898 238.83125 170.2196 238.83125Q170.9696 238.83125 171.50085 238.25313Q172.0321 237.675 172.0321 236.7375Q172.0321 235.83125 171.51648 235.31563Q171.01648 234.78438 170.18835 234.78438Q169.68835 234.78438 169.26648 235.01875Q168.86023 235.25313 168.62585 235.6125L167.64148 235.4875L168.4696 231.08125L172.75085 231.08125L172.75085 232.08125L169.31335 232.08125L168.86023 234.39375Q169.62585 233.84688 170.4696 233.84688Q171.5946 233.84688 172.36023 234.62813Q173.14148 235.40938 173.14148 236.64375Q173.14148 237.8 172.4696 238.65938Q171.64148 239.69063 170.2196 239.69063Q169.04773 239.69063 168.29773 239.03438Q167.56335 238.37813 167.45398 237.3ZM175.04773 239.55L175.04773 238.34688L176.25085 238.34688L176.25085 239.55L175.04773 239.55ZM177.45398 235.31563Q177.45398 233.78438 177.76648 232.8625Q178.07898 231.925 178.68835 231.425Q179.31335 230.925 180.25085 230.925Q180.93835 230.925 181.45398 231.20625Q181.98523 231.4875 182.32898 232.01875Q182.67273 232.53438 182.86023 233.28438Q183.04773 234.03438 183.04773 235.31563Q183.04773 236.83125 182.73523 237.75313Q182.43835 238.675 181.81335 239.19063Q181.20398 239.69063 180.25085 239.69063Q179.01648 239.69063 178.29773 238.8Q177.45398 237.7375 177.45398 235.31563ZM178.5321 235.31563Q178.5321 237.425 179.0321 238.12813Q179.5321 238.83125 180.25085 238.83125Q180.98523 238.83125 181.4696 238.12813Q181.9696 237.425 181.9696 235.31563Q181.9696 233.19063 181.4696 232.50313Q180.98523 231.8 180.23523 231.8Q179.51648 231.8 179.07898 232.40938Q178.5321 233.19063 178.5321 235.31563ZM184.45398 235.31563Q184.45398 233.78438 184.76648 232.8625Q185.07898 231.925 185.68835 231.425Q186.31335 230.925 187.25085 230.925Q187.93835 230.925 188.45398 231.20625Q188.98523 231.4875 189.32898 232.01875Q189.67273 232.53438 189.86023 233.28438Q190.04773 234.03438 190.04773 235.31563Q190.04773 236.83125 189.73523 237.75313Q189.43835 238.675 188.81335 239.19063Q188.20398 239.69063 187.25085 239.69063Q186.01648 239.69063 185.29773 238.8Q184.45398 237.7375 184.45398 235.31563ZM185.5321 235.31563Q185.5321 237.425 186.0321 238.12813Q186.5321 238.83125 187.25085 238.83125Q187.98523 238.83125 188.4696 238.12813Q188.9696 237.425 188.9696 235.31563Q188.9696 233.19063 188.4696 232.50313Q187.98523 231.8 187.23523 231.8Q186.51648 231.8 186.07898 232.40938Q185.5321 233.19063 185.5321 235.31563ZM191.6571 233.01875Q191.6571 232.09688 192.11023 231.45625Q192.57898 230.81563 193.45398 230.81563Q194.26648 230.81563 194.79773 231.39375Q195.32898 231.97188 195.32898 233.08125Q195.32898 234.175 194.7821 234.76875Q194.25085 235.34688 193.4696 235.34688Q192.68835 235.34688 192.17273 234.76875Q191.6571 234.19063 191.6571 233.01875ZM193.48523 231.53438Q193.0946 231.53438 192.82898 231.87813Q192.57898 232.22188 192.57898 233.12813Q192.57898 233.95625 192.82898 234.3Q193.0946 234.62813 193.48523 234.62813Q193.89148 234.62813 194.14148 234.28438Q194.4071 233.94063 194.4071 233.05Q194.4071 232.20625 194.14148 231.87813Q193.87585 231.53438 193.48523 231.53438ZM193.48523 239.8625L198.18835 230.81563L199.04773 230.81563L194.36023 239.8625L193.48523 239.8625ZM197.20398 237.53438Q197.20398 236.6125 197.6571 235.97188Q198.12585 235.33125 199.01648 235.33125Q199.82898 235.33125 200.36023 235.90938Q200.89148 236.47188 200.89148 237.59688Q200.89148 238.69063 200.3446 239.28438Q199.81335 239.8625 199.01648 239.8625Q198.25085 239.8625 197.7196 239.28438Q197.20398 238.70625 197.20398 237.53438ZM199.04773 236.05Q198.64148 236.05 198.37585 236.39375Q198.12585 236.7375 198.12585 237.64375Q198.12585 238.45625 198.39148 238.8Q198.6571 239.14375 199.04773 239.14375Q199.43835 239.14375 199.70398 238.8Q199.9696 238.45625 199.9696 237.55Q199.9696 236.72188 199.70398 236.39375Q199.43835 236.05 199.04773 236.05Z" fill-rule="nonzero"/><path fill="#000000" d="M114.042175 234.89375Q113.385925 234.64375 113.0578 234.20625Q112.7453 233.75313 112.7453 233.14375Q112.7453 232.20625 113.417175 231.56563Q114.104675 230.925 115.21405 230.925Q116.33905 230.925 117.02655 231.58125Q117.71405 232.2375 117.71405 233.175Q117.71405 233.76875 117.40155 234.20625Q117.08905 234.64375 116.448425 234.89375Q117.2453 235.14375 117.65155 235.72188Q118.0578 236.3 118.0578 237.09688Q118.0578 238.19063 117.27655 238.94063Q116.510925 239.69063 115.229675 239.69063Q113.96405 239.69063 113.1828 238.94063Q112.40155 238.19063 112.40155 237.06563Q112.40155 236.22188 112.823425 235.65938Q113.260925 235.09688 114.042175 234.89375ZM113.823425 233.09688Q113.823425 233.70625 114.21405 234.09688Q114.6203 234.4875 115.2453 234.4875Q115.854675 234.4875 116.2453 234.1125Q116.635925 233.72188 116.635925 233.15938Q116.635925 232.58125 116.229675 232.19063Q115.823425 231.78438 115.229675 231.78438Q114.6203 231.78438 114.21405 232.175Q113.823425 232.56563 113.823425 233.09688ZM113.4953 237.06563Q113.4953 237.51875 113.698425 237.94063Q113.917175 238.3625 114.33905 238.59688Q114.760925 238.83125 115.2453 238.83125Q115.9953 238.83125 116.479675 238.34688Q116.979675 237.8625 116.979675 237.1125Q116.979675 236.34688 116.479675 235.84688Q115.979675 235.34688 115.21405 235.34688Q114.46405 235.34688 113.979675 235.84688Q113.4953 236.33125 113.4953 237.06563ZM119.417175 237.3L120.52655 237.20625Q120.65155 238.01875 121.08905 238.425Q121.542175 238.83125 122.1828 238.83125Q122.9328 238.83125 123.46405 238.25313Q123.9953 237.675 123.9953 236.7375Q123.9953 235.83125 123.479675 235.31563Q122.979675 234.78438 122.15155 234.78438Q121.65155 234.78438 121.229675 235.01875Q120.823425 235.25313 120.58905 235.6125L119.604675 235.4875L120.4328 231.08125L124.71405 231.08125L124.71405 232.08125L121.27655 232.08125L120.823425 234.39375Q121.58905 233.84688 122.4328 233.84688Q123.5578 233.84688 124.323425 234.62813Q125.104675 235.40938 125.104675 236.64375Q125.104675 237.8 124.4328 238.65938Q123.604675 239.69063 122.1828 239.69063Q121.010925 239.69063 120.260925 239.03438Q119.52655 238.37813 119.417175 237.3ZM127.010925 239.55L127.010925 238.34688L128.21405 238.34688L128.21405 239.55L127.010925 239.55ZM129.41718 235.31563Q129.41718 233.78438 129.72968 232.8625Q130.04218 231.925 130.65155 231.425Q131.27655 230.925 132.21405 230.925Q132.90155 230.925 133.41718 231.20625Q133.94843 231.4875 134.29218 232.01875Q134.63593 232.53438 134.82343 233.28438Q135.01093 234.03438 135.01093 235.31563Q135.01093 236.83125 134.69843 237.75313Q134.40155 238.675 133.77655 239.19063Q133.16718 239.69063 132.21405 239.69063Q130.97968 239.69063 130.26093 238.8Q129.41718 237.7375 129.41718 235.31563ZM130.4953 235.31563Q130.4953 237.425 130.9953 238.12813Q131.4953 238.83125 132.21405 238.83125Q132.94843 238.83125 133.4328 238.12813Q133.9328 237.425 133.9328 235.31563Q133.9328 233.19063 133.4328 232.50313Q132.94843 231.8 132.19843 231.8Q131.47968 231.8 131.04218 232.40938Q130.4953 233.19063 130.4953 235.31563ZM136.41718 235.31563Q136.41718 233.78438 136.72968 232.8625Q137.04218 231.925 137.65155 231.425Q138.27655 230.925 139.21405 230.925Q139.90155 230.925 140.41718 231.20625Q140.94843 231.4875 141.29218 232.01875Q141.63593 232.53438 141.82343 233.28438Q142.01093 234.03438 142.01093 235.31563Q142.01093 236.83125 141.69843 237.75313Q141.40155 238.675 140.77655 239.19063Q140.16718 239.69063 139.21405 239.69063Q137.97968 239.69063 137.26093 238.8Q136.41718 237.7375 136.41718 235.31563ZM137.4953 235.31563Q137.4953 237.425 137.9953 238.12813Q138.4953 238.83125 139.21405 238.83125Q139.94843 238.83125 140.4328 238.12813Q140.9328 237.425 140.9328 235.31563Q140.9328 233.19063 140.4328 232.50313Q139.94843 231.8 139.19843 231.8Q138.47968 231.8 138.04218 232.40938Q137.4953 233.19063 137.4953 235.31563ZM143.6203 233.01875Q143.6203 232.09688 144.07343 231.45625Q144.54218 230.81563 145.41718 230.81563Q146.22968 230.81563 146.76093 231.39375Q147.29218 231.97188 147.29218 233.08125Q147.29218 234.175 146.7453 234.76875Q146.21405 235.34688 145.4328 235.34688Q144.65155 235.34688 144.13593 234.76875Q143.6203 234.19063 143.6203 233.01875ZM145.44843 231.53438Q145.0578 231.53438 144.79218 231.87813Q144.54218 232.22188 144.54218 233.12813Q144.54218 233.95625 144.79218 234.3Q145.0578 234.62813 145.44843 234.62813Q145.85468 234.62813 146.10468 234.28438Q146.3703 233.94063 146.3703 233.05Q146.3703 232.20625 146.10468 231.87813Q145.83905 231.53438 145.44843 231.53438ZM145.44843 239.8625L150.15155 230.81563L151.01093 230.81563L146.32343 239.8625L145.44843 239.8625ZM149.16718 237.53438Q149.16718 236.6125 149.6203 235.97188Q150.08905 235.33125 150.97968 235.33125Q151.79218 235.33125 152.32343 235.90938Q152.85468 236.47188 152.85468 237.59688Q152.85468 238.69063 152.3078 239.28438Q151.77655 239.8625 150.97968 239.8625Q150.21405 239.8625 149.6828 239.28438Q149.16718 238.70625 149.16718 237.53438ZM151.01093 236.05Q150.60468 236.05 150.33905 236.39375Q150.08905 236.7375 150.08905 237.64375Q150.08905 238.45625 150.35468 238.8Q150.6203 239.14375 151.01093 239.14375Q151.40155 239.14375 151.66718 238.8Q151.9328 238.45625 151.9328 237.55Q151.9328 236.72188 151.66718 236.39375Q151.40155 236.05 151.01093 236.05Z" fill-rule="nonzero"/><path fill="#000000" d="M64.53661 237.56563L65.55224 237.47188Q65.67724 238.19063 66.03661 238.51875Q66.41161 238.83125 66.97411 238.83125Q67.45849 238.83125 67.81786 238.6125Q68.19286 238.37813 68.42724 238.01875Q68.66161 237.64375 68.81786 237.01875Q68.97411 236.37813 68.97411 235.72188Q68.97411 235.64375 68.97411 235.50313Q68.66161 236.00313 68.11474 236.33125Q67.56786 236.64375 66.92724 236.64375Q65.84911 236.64375 65.11474 235.87813Q64.38036 235.09688 64.38036 233.83125Q64.38036 232.51875 65.14599 231.72188Q65.92724 230.925 67.08349 230.925Q67.91161 230.925 68.59911 231.37813Q69.30224 231.83125 69.66161 232.675Q70.02099 233.50313 70.02099 235.08125Q70.02099 236.72188 69.66161 237.70625Q69.31786 238.675 68.59911 239.19063Q67.89599 239.69063 66.95849 239.69063Q65.94286 239.69063 65.30224 239.14375Q64.66161 238.58125 64.53661 237.56563ZM68.84911 233.76875Q68.84911 232.8625 68.36474 232.33125Q67.89599 231.8 67.20849 231.8Q66.50536 231.8 65.97411 232.37813Q65.45849 232.94063 65.45849 233.8625Q65.45849 234.675 65.95849 235.19063Q66.45849 235.70625 67.17724 235.70625Q67.91161 235.70625 68.38036 235.19063Q68.84911 234.675 68.84911 233.76875ZM71.38036 237.3L72.48974 237.20625Q72.61474 238.01875 73.05224 238.425Q73.50536 238.83125 74.14599 238.83125Q74.89599 238.83125 75.42724 238.25313Q75.95849 237.675 75.95849 236.7375Q75.95849 235.83125 75.44286 235.31563Q74.94286 234.78438 74.11474 234.78438Q73.61474 234.78438 73.19286 235.01875Q72.78661 235.25313 72.55224 235.6125L71.56786 235.4875L72.39599 231.08125L76.67724 231.08125L76.67724 232.08125L73.23974 232.08125L72.78661 234.39375Q73.55224 233.84688 74.39599 233.84688Q75.52099 233.84688 76.28661 234.62813Q77.06786 235.40938 77.06786 236.64375Q77.06786 237.8 76.39599 238.65938Q75.56786 239.69063 74.14599 239.69063Q72.97411 239.69063 72.22411 239.03438Q71.48974 238.37813 71.38036 237.3ZM78.97411 239.55L78.97411 238.34688L80.17724 238.34688L80.17724 239.55L78.97411 239.55ZM81.38036 235.31563Q81.38036 233.78438 81.69286 232.8625Q82.00536 231.925 82.61474 231.425Q83.23974 230.925 84.17724 230.925Q84.86474 230.925 85.38036 231.20625Q85.91161 231.4875 86.25536 232.01875Q86.59911 232.53438 86.78661 233.28438Q86.97411 234.03438 86.97411 235.31563Q86.97411 236.83125 86.66161 237.75313Q86.36474 238.675 85.73974 239.19063Q85.13036 239.69063 84.17724 239.69063Q82.94286 239.69063 82.22411 238.8Q81.38036 237.7375 81.38036 235.31563ZM82.45849 235.31563Q82.45849 237.425 82.95849 238.12813Q83.45849 238.83125 84.17724 238.83125Q84.91161 238.83125 85.39599 238.12813Q85.89599 237.425 85.89599 235.31563Q85.89599 233.19063 85.39599 232.50313Q84.91161 231.8 84.16161 231.8Q83.44286 231.8 83.00536 232.40938Q82.45849 233.19063 82.45849 235.31563ZM88.38036 235.31563Q88.38036 233.78438 88.69286 232.8625Q89.00536 231.925 89.61474 231.425Q90.23974 230.925 91.17724 230.925Q91.86474 230.925 92.38036 231.20625Q92.91161 231.4875 93.25536 232.01875Q93.59911 232.53438 93.78661 233.28438Q93.97411 234.03438 93.97411 235.31563Q93.97411 236.83125 93.66161 237.75313Q93.36474 238.675 92.73974 239.19063Q92.13036 239.69063 91.17724 239.69063Q89.94286 239.69063 89.22411 238.8Q88.38036 237.7375 88.38036 235.31563ZM89.45849 235.31563Q89.45849 237.425 89.95849 238.12813Q90.45849 238.83125 91.17724 238.83125Q91.91161 238.83125 92.39599 238.12813Q92.89599 237.425 92.89599 235.31563Q92.89599 233.19063 92.39599 232.50313Q91.91161 231.8 91.16161 231.8Q90.44286 231.8 90.00536 232.40938Q89.45849 233.19063 89.45849 235.31563ZM95.58349 233.01875Q95.58349 232.09688 96.03661 231.45625Q96.50536 230.81563 97.38036 230.81563Q98.19286 230.81563 98.72411 231.39375Q99.25536 231.97188 99.25536 233.08125Q99.25536 234.175 98.70849 234.76875Q98.17724 235.34688 97.39599 235.34688Q96.61474 235.34688 96.09911 234.76875Q95.58349 234.19063 95.58349 233.01875ZM97.41161 231.53438Q97.02099 231.53438 96.75536 231.87813Q96.50536 232.22188 96.50536 233.12813Q96.50536 233.95625 96.75536 234.3Q97.02099 234.62813 97.41161 234.62813Q97.81786 234.62813 98.06786 234.28438Q98.33349 233.94063 98.33349 233.05Q98.33349 232.20625 98.06786 231.87813Q97.80224 231.53438 97.41161 231.53438ZM97.41161 239.8625L102.11474 230.81563L102.97411 230.81563L98.28661 239.8625L97.41161 239.8625ZM101.13036 237.53438Q101.13036 236.6125 101.58349 235.97188Q102.05224 235.33125 102.94286 235.33125Q103.75536 235.33125 104.28661 235.90938Q104.81786 236.47188 104.81786 237.59688Q104.81786 238.69063 104.27099 239.28438Q103.73974 239.8625 102.94286 239.8625Q102.17724 239.8625 101.64599 239.28438Q101.13036 238.70625 101.13036 237.53438ZM102.97411 236.05Q102.56786 236.05 102.30224 236.39375Q102.05224 236.7375 102.05224 237.64375Q102.05224 238.45625 102.31786 238.8Q102.58349 239.14375 102.97411 239.14375Q103.36474 239.14375 103.63036 238.8Q103.89599 238.45625 103.89599 237.55Q103.89599 236.72188 103.63036 236.39375Q103.36474 236.05 102.97411 236.05Z" fill-rule="nonzero"/><path fill="#4285f4" d="M122.5 55.083332C122.5 58.39704 119.813705 61.083332 116.5 61.083332C113.186295 61.083332 110.5 58.39704 110.5 55.083332C110.5 51.769627 113.186295 49.083332 116.5 49.083332C119.813705 49.083332 122.5 51.769627 122.5 55.083332Z" fill-rule="nonzero"/><path fill="#1a1a1a" d="M135.35938 58.317707Q134.76562 58.817707 134.21875 59.020832Q133.6875 59.223957 133.0625 59.223957Q132.03125 59.223957 131.48438 58.723957Q130.9375 58.223957 130.9375 57.442707Q130.9375 56.989582 131.14062 56.614582Q131.34375 56.223957 131.6875 56.005207Q132.03125 55.770832 132.45312 55.661457Q132.75 55.567707 133.39062 55.489582Q134.65625 55.348957 135.26562 55.130207Q135.26562 54.911457 135.26562 54.864582Q135.26562 54.208332 134.96875 53.942707Q134.5625 53.598957 133.76562 53.598957Q133.03125 53.598957 132.67188 53.864582Q132.3125 54.114582 132.14062 54.770832L131.10938 54.630207Q131.25 53.973957 131.57812 53.567707Q131.90625 53.161457 132.51562 52.942707Q133.125 52.723957 133.92188 52.723957Q134.71875 52.723957 135.21875 52.911457Q135.71875 53.098957 135.95312 53.380207Q136.1875 53.661457 136.28125 54.098957Q136.32812 54.364582 136.32812 55.067707L136.32812 56.473957Q136.32812 57.942707 136.39062 58.333332Q136.46875 58.723957 136.67188 59.083332L135.5625 59.083332Q135.40625 58.755207 135.35938 58.317707ZM135.26562 55.958332Q134.6875 56.192707 133.54688 56.364582Q132.89062 56.458332 132.625 56.583332Q132.35938 56.692707 132.20312 56.911457Q132.0625 57.130207 132.0625 57.411457Q132.0625 57.833332 132.375 58.114582Q132.70312 58.395832 133.3125 58.395832Q133.92188 58.395832 134.39062 58.130207Q134.875 57.864582 135.09375 57.395832Q135.26562 57.036457 135.26562 56.348957L135.26562 55.958332ZM138.29688 61.473957L138.29688 52.864582L139.25 52.864582L139.25 53.661457Q139.59375 53.192707 140.01562 52.958332Q140.45312 52.723957 141.0625 52.723957Q141.85938 52.723957 142.46875 53.130207Q143.07812 53.536457 143.375 54.286457Q143.6875 55.036457 143.6875 55.927082Q143.6875 56.880207 143.34375 57.645832Q143.01562 58.411457 142.35938 58.817707Q141.70312 59.223957 140.98438 59.223957Q140.45312 59.223957 140.03125 59.005207Q139.60938 58.770832 139.34375 58.442707L139.34375 61.473957L138.29688 61.473957ZM139.25 56.005207Q139.25 57.208332 139.73438 57.786457Q140.21875 58.348957 140.90625 58.348957Q141.60938 58.348957 142.10938 57.755207Q142.60938 57.161457 142.60938 55.911457Q142.60938 54.723957 142.125 54.145832Q141.64062 53.552082 140.95312 53.552082Q140.28125 53.552082 139.76562 54.177082Q139.25 54.802082 139.25 56.005207ZM145.28125 59.083332L145.28125 52.864582L146.23438 52.864582L146.23438 53.802082Q146.59375 53.145832 146.89062 52.942707Q147.20312 52.723957 147.57812 52.723957Q148.10938 52.723957 148.65625 53.052082L148.29688 54.036457Q147.90625 53.802082 147.53125 53.802082Q147.17188 53.802082 146.89062 54.020832Q146.625 54.223957 146.51562 54.598957Q146.32812 55.161457 146.32812 55.817707L146.32812 59.083332L145.28125 59.083332ZM149.29688 51.708332L149.29688 50.489582L150.35938 50.489582L150.35938 51.708332L149.29688 51.708332ZM149.29688 59.083332L149.29688 52.864582L150.35938 52.864582L150.35938 59.083332L149.29688 59.083332ZM151.90625 55.973957Q151.90625 54.239582 152.85938 53.411457Q153.65625 52.723957 154.8125 52.723957Q156.09375 52.723957 156.90625 53.567707Q157.73438 54.395832 157.73438 55.880207Q157.73438 57.083332 157.375 57.770832Q157.01562 58.458332 156.3125 58.848957Q155.625 59.223957 154.8125 59.223957Q153.51562 59.223957 152.70312 58.395832Q151.90625 57.552082 151.90625 55.973957ZM152.98438 55.973957Q152.98438 57.161457 153.5 57.755207Q154.03125 58.348957 154.8125 58.348957Q155.60938 58.348957 156.125 57.755207Q156.64062 57.161457 156.64062 55.942707Q156.64062 54.786457 156.10938 54.192707Q155.59375 53.598957 154.8125 53.598957Q154.03125 53.598957 153.5 54.192707Q152.98438 54.770832 152.98438 55.973957ZM159.28125 59.083332L159.28125 52.864582L160.23438 52.864582L160.23438 53.802082Q160.59375 53.145832 160.89062 52.942707Q161.20312 52.723957 161.57812 52.723957Q162.10938 52.723957 162.65625 53.052082L162.29688 54.036457Q161.90625 53.802082 161.53125 53.802082Q161.17188 53.802082 160.89062 54.020832Q160.625 54.223957 160.51562 54.598957Q160.32812 55.161457 160.32812 55.817707L160.32812 59.083332L159.28125 59.083332ZM163.29688 51.708332L163.29688 50.489582L164.35938 50.489582L164.35938 51.708332L163.29688 51.708332ZM163.29688 59.083332L163.29688 52.864582L164.35938 52.864582L164.35938 59.083332L163.29688 59.083332Z" fill-rule="nonzero"/><path fill="#ea4335" d="M187.5 49.083332L192.69615 58.083332L182.30385 58.083332Z" fill-rule="nonzero"/><path fill="#1a1a1a" d="M206.54688 57.083332L207.64062 57.208332Q207.39062 58.161457 206.6875 58.692707Q205.98438 59.223957 204.90625 59.223957Q203.54688 59.223957 202.73438 58.380207Q201.9375 57.536457 201.9375 56.020832Q201.9375 54.458332 202.75 53.598957Q203.5625 52.723957 204.84375 52.723957Q206.09375 52.723957 206.875 53.567707Q207.67188 54.411457 207.67188 55.958332Q207.67188 56.052082 207.67188 56.239582L203.03125 56.239582Q203.09375 57.270832 203.60938 57.817707Q204.125 58.348957 204.90625 58.348957Q205.48438 58.348957 205.89062 58.052082Q206.3125 57.739582 206.54688 57.083332ZM203.09375 55.380207L206.5625 55.380207Q206.5 54.583332 206.17188 54.192707Q205.65625 53.583332 204.85938 53.583332Q204.125 53.583332 203.625 54.067707Q203.14062 54.552082 203.09375 55.380207ZM213.35938 56.802082L214.39062 56.942707Q214.21875 58.005207 213.51562 58.614582Q212.8125 59.223957 211.79688 59.223957Q210.51562 59.223957 209.73438 58.395832Q208.96875 57.552082 208.96875 55.989582Q208.96875 54.989582 209.29688 54.239582Q209.64062 53.473957 210.3125 53.098957Q211.0 52.723957 211.8125 52.723957Q212.8125 52.723957 213.45312 53.239582Q214.10938 53.739582 214.29688 54.692707L213.26562 54.848957Q213.125 54.223957 212.75 53.911457Q212.375 53.583332 211.84375 53.583332Q211.04688 53.583332 210.54688 54.161457Q210.04688 54.723957 210.04688 55.958332Q210.04688 57.223957 210.53125 57.786457Q211.01562 58.348957 211.78125 58.348957Q212.40625 58.348957 212.8125 57.973957Q213.23438 57.598957 213.35938 56.802082ZM215.26562 59.083332L215.26562 50.489582L216.32812 50.489582L216.32812 59.083332L215.26562 59.083332ZM222.35938 58.317707Q221.76562 58.817707 221.21875 59.020832Q220.6875 59.223957 220.0625 59.223957Q219.03125 59.223957 218.48438 58.723957Q217.9375 58.223957 217.9375 57.442707Q217.9375 56.989582 218.14062 56.614582Q218.34375 56.223957 218.6875 56.005207Q219.03125 55.770832 219.45312 55.661457Q219.75 55.567707 220.39062 55.489582Q221.65625 55.348957 222.26562 55.130207Q222.26562 54.911457 222.26562 54.864582Q222.26562 54.208332 221.96875 53.942707Q221.5625 53.598957 220.76562 53.598957Q220.03125 53.598957 219.67188 53.864582Q219.3125 54.114582 219.14062 54.770832L218.10938 54.630207Q218.25 53.973957 218.57812 53.567707Q218.90625 53.161457 219.51562 52.942707Q220.125 52.723957 220.92188 52.723957Q221.71875 52.723957 222.21875 52.911457Q222.71875 53.098957 222.95312 53.380207Q223.1875 53.661457 223.28125 54.098957Q223.32812 54.364582 223.32812 55.067707L223.32812 56.473957Q223.32812 57.942707 223.39062 58.333332Q223.46875 58.723957 223.67188 59.083332L222.5625 59.083332Q222.40625 58.755207 222.35938 58.317707ZM222.26562 55.958332Q221.6875 56.192707 220.54688 56.364582Q219.89062 56.458332 219.625 56.583332Q219.35938 56.692707 219.20312 56.911457Q219.0625 57.130207 219.0625 57.411457Q219.0625 57.833332 219.375 58.114582Q219.70312 58.395832 220.3125 58.395832Q220.92188 58.395832 221.39062 58.130207Q221.875 57.864582 222.09375 57.395832Q222.26562 57.036457 222.26562 56.348957L222.26562 55.958332ZM227.59375 58.145832L227.75 59.067707Q227.29688 59.161457 226.95312 59.161457Q226.375 59.161457 226.0625 58.989582Q225.75 58.802082 225.60938 58.505207Q225.48438 58.208332 225.48438 57.255207L225.48438 53.677082L224.71875 53.677082L224.71875 52.864582L225.48438 52.864582L225.48438 51.317707L226.53125 50.692707L226.53125 52.864582L227.59375 52.864582L227.59375 53.677082L226.53125 53.677082L226.53125 57.317707Q226.53125 57.770832 226.57812 57.895832Q226.64062 58.020832 226.76562 58.098957Q226.89062 58.177082 227.125 58.177082Q227.3125 58.177082 227.59375 58.145832Z" fill-rule="nonzero"/><path fill="#fbbc04" d="M245.25735 50.840694L253.74265 50.840694L253.74265 59.325974L245.25735 59.325974Z" fill-rule="nonzero"/><path fill="#1a1a1a" d="M264.54688 59.083332L264.54688 53.677082L263.60938 53.677082L263.60938 52.864582L264.54688 52.864582L264.54688 52.192707Q264.54688 51.567707 264.65625 51.270832Q264.8125 50.848957 265.1875 50.598957Q265.57812 50.348957 266.26562 50.348957Q266.71875 50.348957 267.25 50.458332L267.09375 51.364582Q266.76562 51.317707 266.46875 51.317707Q265.98438 51.317707 265.78125 51.520832Q265.59375 51.723957 265.59375 52.286457L265.59375 52.864582L266.8125 52.864582L266.8125 53.677082L265.59375 53.677082L265.59375 59.083332L264.54688 59.083332ZM267.29688 61.473957L267.29688 52.864582L268.25 52.864582L268.25 53.661457Q268.59375 53.192707 269.01562 52.958332Q269.45312 52.723957 270.0625 52.723957Q270.85938 52.723957 271.46875 53.130207Q272.07812 53.536457 272.375 54.286457Q272.6875 55.036457 272.6875 55.927082Q272.6875 56.880207 272.34375 57.645832Q272.01562 58.411457 271.35938 58.817707Q270.70312 59.223957 269.98438 59.223957Q269.45312 59.223957 269.03125 59.005207Q268.60938 58.770832 268.34375 58.442707L268.34375 61.473957L267.29688 61.473957ZM268.25 56.005207Q268.25 57.208332 268.73438 57.786457Q269.21875 58.348957 269.90625 58.348957Q270.60938 58.348957 271.10938 57.755207Q271.60938 57.161457 271.60938 55.911457Q271.60938 54.723957 271.125 54.145832Q270.64062 53.552082 269.95312 53.552082Q269.28125 53.552082 268.76562 54.177082Q268.25 54.802082 268.25 56.005207ZM274.09375 59.598957L275.125 59.755207Q275.1875 60.223957 275.48438 60.442707Q275.875 60.739582 276.54688 60.739582Q277.28125 60.739582 277.67188 60.442707Q278.07812 60.145832 278.21875 59.630207Q278.3125 59.302082 278.29688 58.270832Q277.60938 59.083332 276.57812 59.083332Q275.29688 59.083332 274.59375 58.161457Q273.89062 57.223957 273.89062 55.942707Q273.89062 55.052082 274.20312 54.302082Q274.53125 53.536457 275.14062 53.130207Q275.75 52.723957 276.57812 52.723957Q277.6875 52.723957 278.40625 53.614582L278.40625 52.864582L279.375 52.864582L279.375 58.239582Q279.375 59.692707 279.07812 60.302082Q278.78125 60.911457 278.14062 61.255207Q277.5 61.614582 276.5625 61.614582Q275.45312 61.614582 274.76562 61.114582Q274.07812 60.614582 274.09375 59.598957ZM274.96875 55.864582Q274.96875 57.083332 275.45312 57.645832Q275.9375 58.208332 276.67188 58.208332Q277.40625 58.208332 277.89062 57.645832Q278.39062 57.083332 278.39062 55.895832Q278.39062 54.755207 277.875 54.177082Q277.375 53.598957 276.65625 53.598957Q275.95312 53.598957 275.45312 54.177082Q274.96875 54.739582 274.96875 55.864582ZM281.28125 59.083332L281.28125 52.864582L282.23438 52.864582L282.23438 53.802082Q282.59375 53.145832 282.89062 52.942707Q283.20312 52.723957 283.57812 52.723957Q284.10938 52.723957 284.65625 53.052082L284.29688 54.036457Q283.90625 53.802082 283.53125 53.802082Q283.17188 53.802082 282.89062 54.020832Q282.625 54.223957 282.51562 54.598957Q282.32812 55.161457 282.32812 55.817707L282.32812 59.083332L281.28125 59.083332ZM284.90625 55.973957Q284.90625 54.239582 285.85938 53.411457Q286.65625 52.723957 287.8125 52.723957Q289.09375 52.723957 289.90625 53.567707Q290.73438 54.395832 290.73438 55.880207Q290.73438 57.083332 290.375 57.770832Q290.01562 58.458332 289.3125 58.848957Q288.625 59.223957 287.8125 59.223957Q286.51562 59.223957 285.70312 58.395832Q284.90625 57.552082 284.90625 55.973957ZM285.98438 55.973957Q285.98438 57.161457 286.5 57.755207Q287.03125 58.348957 287.8125 58.348957Q288.60938 58.348957 289.125 57.755207Q289.64062 57.161457 289.64062 55.942707Q289.64062 54.786457 289.10938 54.192707Q288.59375 53.598957 287.8125 53.598957Q287.03125 53.598957 286.5 54.192707Q285.98438 54.770832 285.98438 55.973957ZM293.4375 59.083332L291.53125 52.864582L292.625 52.864582L293.60938 56.458332L293.98438 57.786457Q294.01562 57.692707 294.3125 56.505207L295.29688 52.864582L296.375 52.864582L297.3125 56.473957L297.625 57.661457L297.98438 56.458332L299.04688 52.864582L300.07812 52.864582L298.125 59.083332L297.03125 59.083332L296.04688 55.348957L295.79688 54.302082L294.54688 59.083332L293.4375 59.083332ZM303.59375 58.145832L303.75 59.067707Q303.29688 59.161457 302.95312 59.161457Q302.375 59.161457 302.0625 58.989582Q301.75 58.802082 301.60938 58.505207Q301.48438 58.208332 301.48438 57.255207L301.48438 53.677082L300.71875 53.677082L300.71875 52.864582L301.48438 52.864582L301.48438 51.317707L302.53125 50.692707L302.53125 52.864582L303.59375 52.864582L303.59375 53.677082L302.53125 53.677082L302.53125 57.317707Q302.53125 57.770832 302.57812 57.895832Q302.64062 58.020832 302.76562 58.098957Q302.89062 58.177082 303.125 58.177082Q303.3125 58.177082 303.59375 58.145832ZM304.29688 59.083332L304.29688 50.489582L305.34375 50.489582L305.34375 53.567707Q306.07812 52.723957 307.20312 52.723957Q307.90625 52.723957 308.40625 53.005207Q308.92188 53.270832 309.14062 53.755207Q309.35938 54.223957 309.35938 55.145832L309.35938 59.083332L308.3125 59.083332L308.3125 55.145832Q308.3125 54.348957 307.96875 53.989582Q307.625 53.630207 307.0 53.630207Q306.53125 53.630207 306.10938 53.880207Q305.70312 54.114582 305.51562 54.536457Q305.34375 54.942707 305.34375 55.677082L305.34375 59.083332L304.29688 59.083332Z" fill-rule="nonzero"/><path fill="#757575" d="M134.54688 33.45L134.54688 32.1375Q133.5625 33.684376 131.64062 33.684376Q130.40625 33.684376 129.35938 32.996876Q128.32812 32.309376 127.75 31.090626Q127.1875 29.871876 127.1875 28.278126Q127.1875 26.715626 127.703125 25.45Q128.21875 24.184376 129.25 23.5125Q130.29688 22.840626 131.5625 22.840626Q132.5 22.840626 133.23438 23.246876Q133.96875 23.6375 134.4375 24.2625L134.4375 19.1375L136.17188 19.1375L136.17188 33.45L134.54688 33.45ZM128.98438 28.278126Q128.98438 30.2625 129.82812 31.246876Q130.67188 32.23125 131.8125 32.23125Q132.96875 32.23125 133.76562 31.29375Q134.57812 30.35625 134.57812 28.41875Q134.57812 26.29375 133.75 25.29375Q132.9375 24.29375 131.73438 24.29375Q130.5625 24.29375 129.76562 25.2625Q128.98438 26.215626 128.98438 28.278126ZM145.59375 32.16875Q144.60938 32.996876 143.70312 33.340626Q142.79688 33.684376 141.76562 33.684376Q140.0625 33.684376 139.14062 32.85625Q138.21875 32.0125 138.21875 30.715626Q138.21875 29.95 138.5625 29.325Q138.92188 28.7 139.48438 28.325Q140.04688 27.934376 140.75 27.73125Q141.26562 27.60625 142.3125 27.465626Q144.4375 27.215626 145.4375 26.871876Q145.45312 26.5125 145.45312 26.403126Q145.45312 25.340626 144.95312 24.8875Q144.28125 24.29375 142.95312 24.29375Q141.70312 24.29375 141.10938 24.73125Q140.53125 25.16875 140.25 26.278126L138.53125 26.04375Q138.76562 24.934376 139.29688 24.2625Q139.82812 23.575 140.84375 23.215626Q141.85938 22.840626 143.20312 22.840626Q144.53125 22.840626 145.35938 23.153126Q146.1875 23.465626 146.57812 23.95Q146.96875 24.41875 147.125 25.1375Q147.21875 25.590626 147.21875 26.7625L147.21875 29.10625Q147.21875 31.559376 147.32812 32.215626Q147.4375 32.85625 147.78125 33.45L145.9375 33.45Q145.67188 32.903126 145.59375 32.16875ZM145.4375 28.246876Q144.48438 28.6375 142.5625 28.903126Q141.48438 29.059376 141.03125 29.2625Q140.59375 29.45 140.34375 29.825Q140.09375 30.2 140.09375 30.66875Q140.09375 31.371876 140.625 31.840626Q141.15625 32.309376 142.1875 32.309376Q143.20312 32.309376 143.98438 31.871876Q144.78125 31.41875 145.15625 30.653126Q145.4375 30.04375 145.4375 28.8875L145.4375 28.246876ZM153.65625 31.871876L153.90625 33.434376Q153.17188 33.590626 152.57812 33.590626Q151.625 33.590626 151.09375 33.29375Q150.57812 32.98125 150.35938 32.496876Q150.14062 31.996876 150.14062 30.41875L150.14062 24.45L148.85938 24.45L148.85938 23.075L150.14062 23.075L150.14062 20.5125L151.89062 19.45L151.89062 23.075L153.65625 23.075L153.65625 24.45L151.89062 24.45L151.89062 30.5125Q151.89062 31.2625 151.98438 31.48125Q152.07812 31.684376 152.28125 31.825Q152.5 31.95 152.89062 31.95Q153.17188 31.95 153.65625 31.871876ZM162.59375 32.16875Q161.60938 32.996876 160.70312 33.340626Q159.79688 33.684376 158.76562 33.684376Q157.0625 33.684376 156.14062 32.85625Q155.21875 32.0125 155.21875 30.715626Q155.21875 29.95 155.5625 29.325Q155.92188 28.7 156.48438 28.325Q157.04688 27.934376 157.75 27.73125Q158.26562 27.60625 159.3125 27.465626Q161.4375 27.215626 162.4375 26.871876Q162.45312 26.5125 162.45312 26.403126Q162.45312 25.340626 161.95312 24.8875Q161.28125 24.29375 159.95312 24.29375Q158.70312 24.29375 158.10938 24.73125Q157.53125 25.16875 157.25 26.278126L155.53125 26.04375Q155.76562 24.934376 156.29688 24.2625Q156.82812 23.575 157.84375 23.215626Q158.85938 22.840626 160.20312 22.840626Q161.53125 22.840626 162.35938 23.153126Q163.1875 23.465626 163.57812 23.95Q163.96875 24.41875 164.125 25.1375Q164.21875 25.590626 164.21875 26.7625L164.21875 29.10625Q164.21875 31.559376 164.32812 32.215626Q164.4375 32.85625 164.78125 33.45L162.9375 33.45Q162.67188 32.903126 162.59375 32.16875ZM162.4375 28.246876Q161.48438 28.6375 159.5625 28.903126Q158.48438 29.059376 158.03125 29.2625Q157.59375 29.45 157.34375 29.825Q157.09375 30.2 157.09375 30.66875Q157.09375 31.371876 157.625 31.840626Q158.15625 32.309376 159.1875 32.309376Q160.20312 32.309376 160.98438 31.871876Q161.78125 31.41875 162.15625 30.653126Q162.4375 30.04375 162.4375 28.8875L162.4375 28.246876ZM166.10938 30.35625L167.85938 30.075Q168.0 31.121876 168.67188 31.684376Q169.34375 32.23125 170.54688 32.23125Q171.75 32.23125 172.32812 31.746876Q172.92188 31.246876 172.92188 30.590626Q172.92188 29.996876 172.40625 29.653126Q172.04688 29.41875 170.60938 29.059376Q168.67188 28.559376 167.92188 28.215626Q167.1875 27.85625 166.79688 27.23125Q166.40625 26.590626 166.40625 25.825Q166.40625 25.1375 166.71875 24.54375Q167.04688 23.95 167.59375 23.559376Q168.0 23.2625 168.70312 23.059376Q169.42188 22.840626 170.23438 22.840626Q171.45312 22.840626 172.375 23.2Q173.29688 23.54375 173.73438 24.153126Q174.17188 24.746876 174.34375 25.746876L172.625 25.98125Q172.5 25.184376 171.9375 24.746876Q171.375 24.29375 170.35938 24.29375Q169.14062 24.29375 168.625 24.7Q168.10938 25.090626 168.10938 25.621876Q168.10938 25.965626 168.32812 26.246876Q168.53125 26.528126 169.0 26.715626Q169.26562 26.809376 170.54688 27.153126Q172.42188 27.653126 173.15625 27.98125Q173.89062 28.29375 174.3125 28.903126Q174.73438 29.496876 174.73438 30.403126Q174.73438 31.278126 174.21875 32.059376Q173.70312 32.840626 172.73438 33.2625Q171.76562 33.684376 170.54688 33.684376Q168.53125 33.684376 167.46875 32.840626Q166.40625 31.996876 166.10938 30.35625ZM183.92188 30.10625L185.73438 30.340626Q185.3125 31.91875 184.14062 32.809376Q182.98438 33.684376 181.17188 33.684376Q178.90625 33.684376 177.5625 32.29375Q176.23438 30.8875 176.23438 28.35625Q176.23438 25.73125 177.57812 24.29375Q178.92188 22.840626 181.07812 22.840626Q183.15625 22.840626 184.46875 24.2625Q185.79688 25.66875 185.79688 28.246876Q185.79688 28.403126 185.78125 28.715626L178.04688 28.715626Q178.14062 30.41875 179.01562 31.325Q179.89062 32.23125 181.1875 32.23125Q182.15625 32.23125 182.82812 31.73125Q183.51562 31.215626 183.92188 30.10625ZM178.14062 27.2625L183.9375 27.2625Q183.82812 25.965626 183.28125 25.309376Q182.4375 24.29375 181.09375 24.29375Q179.89062 24.29375 179.0625 25.10625Q178.23438 25.903126 178.14062 27.2625ZM191.65625 31.871876L191.90625 33.434376Q191.17188 33.590626 190.57812 33.590626Q189.625 33.590626 189.09375 33.29375Q188.57812 32.98125 188.35938 32.496876Q188.14062 31.996876 188.14062 30.41875L188.14062 24.45L186.85938 24.45L186.85938 23.075L188.14062 23.075L188.14062 20.5125L189.89062 19.45L189.89062 23.075L191.65625 23.075L191.65625 24.45L189.89062 24.45L189.89062 30.5125Q189.89062 31.2625 189.98438 31.48125Q190.07812 31.684376 190.28125 31.825Q190.5 31.95 190.89062 31.95Q191.17188 31.95 191.65625 31.871876ZM193.10938 30.35625L194.85938 30.075Q195.0 31.121876 195.67188 31.684376Q196.34375 32.23125 197.54688 32.23125Q198.75 32.23125 199.32812 31.746876Q199.92188 31.246876 199.92188 30.590626Q199.92188 29.996876 199.40625 29.653126Q199.04688 29.41875 197.60938 29.059376Q195.67188 28.559376 194.92188 28.215626Q194.1875 27.85625 193.79688 27.23125Q193.40625 26.590626 193.40625 25.825Q193.40625 25.1375 193.71875 24.54375Q194.04688 23.95 194.59375 23.559376Q195.0 23.2625 195.70312 23.059376Q196.42188 22.840626 197.23438 22.840626Q198.45312 22.840626 199.375 23.2Q200.29688 23.54375 200.73438 24.153126Q201.17188 24.746876 201.34375 25.746876L199.625 25.98125Q199.5 25.184376 198.9375 24.746876Q198.375 24.29375 197.35938 24.29375Q196.14062 24.29375 195.625 24.7Q195.10938 25.090626 195.10938 25.621876Q195.10938 25.965626 195.32812 26.246876Q195.53125 26.528126 196.0 26.715626Q196.26562 26.809376 197.54688 27.153126Q199.42188 27.653126 200.15625 27.98125Q200.89062 28.29375 201.3125 28.903126Q201.73438 29.496876 201.73438 30.403126Q201.73438 31.278126 201.21875 32.059376Q200.70312 32.840626 199.73438 33.2625Q198.76562 33.684376 197.54688 33.684376Q195.53125 33.684376 194.46875 32.840626Q193.40625 31.996876 193.10938 30.35625ZM202.5 33.7L206.65625 18.8875L208.0625 18.8875L203.92188 33.7L202.5 33.7ZM216.59375 29.653126L218.3125 29.871876Q218.03125 31.66875 216.85938 32.684376Q215.70312 33.684376 214.0 33.684376Q211.875 33.684376 210.57812 32.29375Q209.28125 30.903126 209.28125 28.309376Q209.28125 26.621876 209.82812 25.371876Q210.39062 24.10625 211.53125 23.48125Q212.67188 22.840626 214.01562 22.840626Q215.70312 22.840626 216.76562 23.7Q217.84375 24.559376 218.15625 26.121876L216.4375 26.3875Q216.20312 25.340626 215.57812 24.825Q214.95312 24.29375 214.07812 24.29375Q212.75 24.29375 211.92188 25.246876Q211.09375 26.2 211.09375 28.246876Q211.09375 30.340626 211.89062 31.29375Q212.6875 32.23125 213.98438 32.23125Q215.01562 32.23125 215.70312 31.60625Q216.40625 30.965626 216.59375 29.653126ZM219.8125 33.45L219.8125 19.1375L221.57812 19.1375L221.57812 24.2625Q222.8125 22.840626 224.6875 22.840626Q225.82812 22.840626 226.67188 23.29375Q227.53125 23.746876 227.89062 24.559376Q228.26562 25.35625 228.26562 26.871876L228.26562 33.45L226.51562 33.45L226.51562 26.871876Q226.51562 25.559376 225.9375 24.965626Q225.35938 24.35625 224.32812 24.35625Q223.54688 24.35625 222.84375 24.7625Q222.15625 25.16875 221.85938 25.871876Q221.57812 26.559376 221.57812 27.778126L221.57812 33.45L219.8125 33.45ZM237.92188 30.10625L239.73438 30.340626Q239.3125 31.91875 238.14062 32.809376Q236.98438 33.684376 235.17188 33.684376Q232.90625 33.684376 231.5625 32.29375Q230.23438 30.8875 230.23438 28.35625Q230.23438 25.73125 231.57812 24.29375Q232.92188 22.840626 235.07812 22.840626Q237.15625 22.840626 238.46875 24.2625Q239.79688 25.66875 239.79688 28.246876Q239.79688 28.403126 239.78125 28.715626L232.04688 28.715626Q232.14062 30.41875 233.01562 31.325Q233.89062 32.23125 235.1875 32.23125Q236.15625 32.23125 236.82812 31.73125Q237.51562 31.215626 237.92188 30.10625ZM232.14062 27.2625L237.9375 27.2625Q237.82812 25.965626 237.28125 25.309376Q236.4375 24.29375 235.09375 24.29375Q233.89062 24.29375 233.0625 25.10625Q232.23438 25.903126 232.14062 27.2625ZM241.10938 30.35625L242.85938 30.075Q243.0 31.121876 243.67188 31.684376Q244.34375 32.23125 245.54688 32.23125Q246.75 32.23125 247.32812 31.746876Q247.92188 31.246876 247.92188 30.590626Q247.92188 29.996876 247.40625 29.653126Q247.04688 29.41875 245.60938 29.059376Q243.67188 28.559376 242.92188 28.215626Q242.1875 27.85625 241.79688 27.23125Q241.40625 26.590626 241.40625 25.825Q241.40625 25.1375 241.71875 24.54375Q242.04688 23.95 242.59375 23.559376Q243.0 23.2625 243.70312 23.059376Q244.42188 22.840626 245.23438 22.840626Q246.45312 22.840626 247.375 23.2Q248.29688 23.54375 248.73438 24.153126Q249.17188 24.746876 249.34375 25.746876L247.625 25.98125Q247.5 25.184376 246.9375 24.746876Q246.375 24.29375 245.35938 24.29375Q244.14062 24.29375 243.625 24.7Q243.10938 25.090626 243.10938 25.621876Q243.10938 25.965626 243.32812 26.246876Q243.53125 26.528126 244.0 26.715626Q244.26562 26.809376 245.54688 27.153126Q247.42188 27.653126 248.15625 27.98125Q248.89062 28.29375 249.3125 28.903126Q249.73438 29.496876 249.73438 30.403126Q249.73438 31.278126 249.21875 32.059376Q248.70312 32.840626 247.73438 33.2625Q246.76562 33.684376 245.54688 33.684376Q243.53125 33.684376 242.46875 32.840626Q241.40625 31.996876 241.10938 30.35625ZM251.10938 30.35625L252.85938 30.075Q253.0 31.121876 253.67188 31.684376Q254.34375 32.23125 255.54688 32.23125Q256.75 32.23125 257.32812 31.746876Q257.92188 31.246876 257.92188 30.590626Q257.92188 29.996876 257.40625 29.653126Q257.04688 29.41875 255.60938 29.059376Q253.67188 28.559376 252.92188 28.215626Q252.1875 27.85625 251.79688 27.23125Q251.40625 26.590626 251.40625 25.825Q251.40625 25.1375 251.71875 24.54375Q252.04688 23.95 252.59375 23.559376Q253.0 23.2625 253.70312 23.059376Q254.42188 22.840626 255.23438 22.840626Q256.45312 22.840626 257.375 23.2Q258.29688 23.54375 258.73438 24.153126Q259.17188 24.746876 259.34375 25.746876L257.625 25.98125Q257.5 25.184376 256.9375 24.746876Q256.375 24.29375 255.35938 24.29375Q254.14062 24.29375 253.625 24.7Q253.10938 25.090626 253.10938 25.621876Q253.10938 25.965626 253.32812 26.246876Q253.53125 26.528126 254.0 26.715626Q254.26562 26.809376 255.54688 27.153126Q257.42188 27.653126 258.15625 27.98125Q258.89062 28.29375 259.3125 28.903126Q259.73438 29.496876 259.73438 30.403126Q259.73438 31.278126 259.21875 32.059376Q258.70312 32.840626 257.73438 33.2625Q256.76562 33.684376 255.54688 33.684376Q253.53125 33.684376 252.46875 32.840626Q251.40625 31.996876 251.10938 30.35625ZM262.3125 33.45L262.3125 31.45L264.3125 31.45L264.3125 33.45L262.3125 33.45ZM274.54688 33.45L274.54688 32.1375Q273.5625 33.684376 271.64062 33.684376Q270.40625 33.684376 269.35938 32.996876Q268.32812 32.309376 267.75 31.090626Q267.1875 29.871876 267.1875 28.278126Q267.1875 26.715626 267.70312 25.45Q268.21875 24.184376 269.25 23.5125Q270.29688 22.840626 271.5625 22.840626Q272.5 22.840626 273.23438 23.246876Q273.96875 23.6375 274.4375 24.2625L274.4375 19.1375L276.17188 19.1375L276.17188 33.45L274.54688 33.45ZM268.98438 28.278126Q268.98438 30.2625 269.82812 31.246876Q270.67188 32.23125 271.8125 32.23125Q272.96875 32.23125 273.76562 31.29375Q274.57812 30.35625 274.57812 28.41875Q274.57812 26.29375 273.75 25.29375Q272.9375 24.29375 271.73438 24.29375Q270.5625 24.29375 269.76562 25.2625Q268.98438 26.215626 268.98438 28.278126ZM285.59375 32.16875Q284.60938 32.996876 283.70312 33.340626Q282.79688 33.684376 281.76562 33.684376Q280.0625 33.684376 279.14062 32.85625Q278.21875 32.0125 278.21875 30.715626Q278.21875 29.95 278.5625 29.325Q278.92188 28.7 279.48438 28.325Q280.04688 27.934376 280.75 27.73125Q281.26562 27.60625 282.3125 27.465626Q284.4375 27.215626 285.4375 26.871876Q285.45312 26.5125 285.45312 26.403126Q285.45312 25.340626 284.95312 24.8875Q284.28125 24.29375 282.95312 24.29375Q281.70312 24.29375 281.10938 24.73125Q280.53125 25.16875 280.25 26.278126L278.53125 26.04375Q278.76562 24.934376 279.29688 24.2625Q279.82812 23.575 280.84375 23.215626Q281.85938 22.840626 283.20312 22.840626Q284.53125 22.840626 285.35938 23.153126Q286.1875 23.465626 286.57812 23.95Q286.96875 24.41875 287.125 25.1375Q287.21875 25.590626 287.21875 26.7625L287.21875 29.10625Q287.21875 31.559376 287.32812 32.215626Q287.4375 32.85625 287.78125 33.45L285.9375 33.45Q285.67188 32.903126 285.59375 32.16875ZM285.4375 28.246876Q284.48438 28.6375 282.5625 28.903126Q281.48438 29.059376 281.03125 29.2625Q280.59375 29.45 280.34375 29.825Q280.09375 30.2 280.09375 30.66875Q280.09375 31.371876 280.625 31.840626Q281.15625 32.309376 282.1875 32.309376Q283.20312 32.309376 283.98438 31.871876Q284.78125 31.41875 285.15625 30.653126Q285.4375 30.04375 285.4375 28.8875L285.4375 28.246876ZM293.65625 31.871876L293.90625 33.434376Q293.17188 33.590626 292.57812 33.590626Q291.625 33.590626 291.09375 33.29375Q290.57812 32.98125 290.35938 32.496876Q290.14062 31.996876 290.14062 30.41875L290.14062 24.45L288.85938 24.45L288.85938 23.075L290.14062 23.075L290.14062 20.5125L291.89062 19.45L291.89062 23.075L293.65625 23.075L293.65625 24.45L291.89062 24.45L291.89062 30.5125Q291.89062 31.2625 291.98438 31.48125Q292.07812 31.684376 292.28125 31.825Q292.5 31.95 292.89062 31.95Q293.17188 31.95 293.65625 31.871876Z" fill-rule="nonzero"/></svg>