<svg version="1.1" viewBox="0.0 0.0 421.0 289.0" fill="none" stroke="none" stroke-linecap="square" stroke-miterlimit="10" width="421" height="289" xmlns:xlink="http://www.w3.org/1999/xlink" xmlns="http://www.w3.org/2000/svg"><path fill="#ffffff" d="M0 0L421.0 0L421.0 289.0L0 289.0L0 0Z" fill-rule="nonzero"/><clipPath id="id_0"><path d="M75.45 78.71667L406.55 78.71667L406.55 206.85152L75.45 206.85152L75.45 78.71667Z" clip-rule="nonzero"/></clipPath><path stroke="#4285f4" stroke-width="2.0" stroke-linecap="butt" clip-path="url(#id_0)" d="M84.88036 198.57884L119.573616 198.4224L154.26686 197.03282L188.96011 197.36293L223.65337 196.16722L258.34662 195.11647L293.0399 192.59108L327.73312 183.39604L362.4264 165.96333L397.11963 85.55069" fill-rule="nonzero"/><path stroke="#ea4335" stroke-width="2.0" stroke-linecap="butt" clip-path="url(#id_0)" d="M84.88036 200.90717L119.573616 200.90514L154.26686 200.86534L188.96011 200.86444L223.65337 200.87189L258.34662 200.8195L293.0399 200.74544L327.73312 200.66272L362.4264 200.31924L397.11963 198.63461" fill-rule="nonzero"/><path stroke="#fbbc04" stroke-width="2.0" stroke-linecap="butt" clip-path="url(#id_0)" d="M84.88036 206.24637L119.573616 206.1732L154.26686 206.13138L188.96011 206.00467L223.65337 205.866L258.34662 205.64532L293.0399 205.36401L327.73312 204.88208L362.4264 203.74562L397.11963 201.7237" fill-rule="nonzero"/><path fill="#4285f4" clip-path="url(#id_0)" d="M89.38036 198.57884C89.38036 201.06412 87.36565 203.07884 84.88036 203.07884C82.39508 203.07884 80.38036 201.06412 80.38036 198.57884C80.38036 196.09355 82.39508 194.07884 84.88036 194.07884C87.36565 194.07884 89.38036 196.09355 89.38036 198.57884Z" fill-rule="nonzero"/><path fill="#4285f4" clip-path="url(#id_0)" d="M124.073616 198.4224C124.073616 200.90767 122.0589 202.9224 119.573616 202.9224C117.08833 202.9224 115.073616 200.90767 115.073616 198.4224C115.073616 195.93712 117.08833 193.9224 119.573616 193.9224C122.0589 193.9224 124.073616 195.93712 124.073616 198.4224Z" fill-rule="nonzero"/><path fill="#4285f4" clip-path="url(#id_0)" d="M158.76686 197.03282C158.76686 199.51811 156.75215 201.53282 154.26686 201.53282C151.78159 201.53282 149.76686 199.51811 149.76686 197.03282C149.76686 194.54755 151.78159 192.53282 154.26686 192.53282C156.75215 192.53282 158.76686 194.54755 158.76686 197.03282Z" fill-rule="nonzero"/><path fill="#4285f4" clip-path="url(#id_0)" d="M193.46011 197.36293C193.46011 199.84822 191.4454 201.86293 188.96011 201.86293C186.47484 201.86293 184.46011 199.84822 184.46011 197.36293C184.46011 194.87766 186.47484 192.86293 188.96011 192.86293C191.4454 192.86293 193.46011 194.87766 193.46011 197.36293Z" fill-rule="nonzero"/><path fill="#4285f4" clip-path="url(#id_0)" d="M228.15337 196.16722C228.15337 198.6525 226.13866 200.66722 223.65337 200.66722C221.16809 200.66722 219.15337 198.6525 219.15337 196.16722C219.15337 193.68195 221.16809 191.66722 223.65337 191.66722C226.13866 191.66722 228.15337 193.68195 228.15337 196.16722Z" fill-rule="nonzero"/><path fill="#4285f4" clip-path="url(#id_0)" d="M262.84662 195.11647C262.84662 197.60175 260.8319 199.61647 258.34662 199.61647C255.86134 199.61647 253.84663 197.60175 253.84663 195.11647C253.84663 192.6312 255.86134 190.61647 258.34662 190.61647C260.8319 190.61647 262.84662 192.6312 262.84662 195.11647Z" fill-rule="nonzero"/><path fill="#4285f4" clip-path="url(#id_0)" d="M297.5399 192.59108C297.5399 195.07635 295.52515 197.09108 293.0399 197.09108C290.5546 197.09108 288.5399 195.07635 288.5399 192.59108C288.5399 190.10579 290.5546 188.09108 293.0399 188.09108C295.52515 188.09108 297.5399 190.10579 297.5399 192.59108Z" fill-rule="nonzero"/><path fill="#4285f4" clip-path="url(#id_0)" d="M332.23312 183.39604C332.23312 185.88133 330.2184 187.89604 327.73312 187.89604C325.24786 187.89604 323.23312 185.88133 323.23312 183.39604C323.23312 180.91077 325.24786 178.89604 327.73312 178.89604C330.2184 178.89604 332.23312 180.91077 332.23312 183.39604Z" fill-rule="nonzero"/><path fill="#4285f4" clip-path="url(#id_0)" d="M366.9264 165.96333C366.9264 168.44861 364.91165 170.46333 362.4264 170.46333C359.9411 170.46333 357.9264 168.44861 357.9264 165.96333C357.9264 163.47806 359.9411 161.46333 362.4264 161.46333C364.91165 161.46333 366.9264 163.47806 366.9264 165.96333Z" fill-rule="nonzero"/><path fill="#4285f4" clip-path="url(#id_0)" d="M401.61963 85.55069C401.61963 88.03597 399.60492 90.05069 397.11963 90.05069C394.63437 90.05069 392.61963 88.03597 392.61963 85.55069C392.61963 83.06541 394.63437 81.05069 397.11963 81.05069C399.60492 81.05069 401.61963 83.06541 401.61963 85.55069Z" fill-rule="nonzero"/><path fill="#ea4335" clip-path="url(#id_0)" d="M84.88036 194.90717L90.076515 203.90717L79.68421 203.90717Z" fill-rule="nonzero"/><path fill="#ea4335" clip-path="url(#id_0)" d="M119.573616 194.90514L124.76977 203.90514L114.377464 203.90514Z" fill-rule="nonzero"/><path fill="#ea4335" clip-path="url(#id_0)" d="M154.26686 194.86534L159.46301 203.86534L149.07071 203.86534Z" fill-rule="nonzero"/><path fill="#ea4335" clip-path="url(#id_0)" d="M188.96011 194.86444L194.15628 203.86444L183.76396 203.86444Z" fill-rule="nonzero"/><path fill="#ea4335" clip-path="url(#id_0)" d="M223.65337 194.87189L228.84953 203.87189L218.45721 203.87189Z" fill-rule="nonzero"/><path fill="#ea4335" clip-path="url(#id_0)" d="M258.34662 194.8195L263.5428 203.8195L253.15047 203.8195Z" fill-rule="nonzero"/><path fill="#ea4335" clip-path="url(#id_0)" d="M293.0399 194.74544L298.23602 203.74544L287.84372 203.74544Z" fill-rule="nonzero"/><path fill="#ea4335" clip-path="url(#id_0)" d="M327.73312 194.66272L332.9293 203.66272L322.537 203.66272Z" fill-rule="nonzero"/><path fill="#ea4335" clip-path="url(#id_0)" d="M362.4264 194.31924L367.62253 203.31924L357.23022 203.31924Z" fill-rule="nonzero"/><path fill="#ea4335" clip-path="url(#id_0)" d="M397.11963 192.63461L402.3158 201.63461L391.9235 201.63461Z" fill-rule="nonzero"/><path fill="#fbbc04" clip-path="url(#id_0)" d="M80.63772 202.00374L89.123 202.00374L89.123 210.48901L80.63772 210.48901Z" fill-rule="nonzero"/><path fill="#fbbc04" clip-path="url(#id_0)" d="M115.33097 201.93056L123.81625 201.93056L123.81625 210.41585L115.33097 210.41585Z" fill-rule="nonzero"/><path fill="#fbbc04" clip-path="url(#id_0)" d="M150.02423 201.88875L158.5095 201.88875L158.5095 210.37402L150.02423 210.37402Z" fill-rule="nonzero"/><path fill="#fbbc04" clip-path="url(#id_0)" d="M184.71748 201.76202L193.20276 201.76202L193.20276 210.2473L184.71748 210.2473Z" fill-rule="nonzero"/><path fill="#fbbc04" clip-path="url(#id_0)" d="M219.41074 201.62335L227.89601 201.62335L227.89601 210.10863L219.41074 210.10863Z" fill-rule="nonzero"/><path fill="#fbbc04" clip-path="url(#id_0)" d="M254.10399 201.40268L262.58926 201.40268L262.58926 209.88797L254.10399 209.88797Z" fill-rule="nonzero"/><path fill="#fbbc04" clip-path="url(#id_0)" d="M288.79724 201.12138L297.28253 201.12138L297.28253 209.60666L288.79724 209.60666Z" fill-rule="nonzero"/><path fill="#fbbc04" clip-path="url(#id_0)" d="M323.49048 200.63943L331.97577 200.63943L331.97577 209.12473L323.49048 209.12473Z" fill-rule="nonzero"/><path fill="#fbbc04" clip-path="url(#id_0)" d="M358.18375 199.50298L366.66904 199.50298L366.66904 207.98825L358.18375 207.98825Z" fill-rule="nonzero"/><path fill="#fbbc04" clip-path="url(#id_0)" d="M392.87698 197.48106L401.36227 197.48106L401.36227 205.96634L392.87698 205.96634Z" fill-rule="nonzero"/><path fill="#000000" d="M220.875 269.6906L221.90625 269.53436Q222.0 270.15936 222.39062 270.4875Q222.79688 270.8156 223.53125 270.8156Q224.25 270.8156 224.59375 270.53436Q224.95312 270.2375 224.95312 269.83124Q224.95312 269.47186 224.64062 269.26874Q224.42188 269.1281 223.5625 268.90936Q222.40625 268.6125 221.95312 268.40936Q221.51562 268.1906 221.28125 267.8156Q221.04688 267.4406 221.04688 266.97186Q221.04688 266.5656 221.23438 266.20624Q221.42188 265.84686 221.75 265.6125Q222.0 265.4406 222.42188 265.3156Q222.84375 265.1906 223.34375 265.1906Q224.0625 265.1906 224.60938 265.40936Q225.17188 265.6125 225.4375 265.97186Q225.70312 266.33124 225.79688 266.925L224.76562 267.0656Q224.70312 266.59686 224.35938 266.33124Q224.03125 266.05 223.40625 266.05Q222.6875 266.05 222.375 266.3Q222.0625 266.53436 222.0625 266.8625Q222.0625 267.0656 222.1875 267.22186Q222.32812 267.39374 222.59375 267.5031Q222.75 267.5656 223.53125 267.76874Q224.65625 268.08124 225.09375 268.26874Q225.53125 268.45624 225.78125 268.8156Q226.03125 269.175 226.03125 269.72186Q226.03125 270.2531 225.71875 270.72186Q225.42188 271.175 224.84375 271.4406Q224.26562 271.6906 223.53125 271.6906Q222.3125 271.6906 221.67188 271.1906Q221.04688 270.675 220.875 269.6906ZM231.375 271.55L231.375 270.6281Q230.64062 271.6906 229.39062 271.6906Q228.84375 271.6906 228.35938 271.4875Q227.89062 271.26874 227.65625 270.95624Q227.42188 270.6281 227.32812 270.15936Q227.26562 269.8625 227.26562 269.175L227.26562 265.33124L228.32812 265.33124L228.32812 268.78436Q228.32812 269.59686 228.39062 269.89374Q228.48438 270.3 228.79688 270.55Q229.125 270.78436 229.60938 270.78436Q230.07812 270.78436 230.48438 270.55Q230.90625 270.3 231.07812 269.8781Q231.26562 269.45624 231.26562 268.65936L231.26562 265.33124L232.3125 265.33124L232.3125 271.55L231.375 271.55ZM234.29688 273.9406L234.29688 265.33124L235.25 265.33124L235.25 266.1281Q235.59375 265.65936 236.01562 265.425Q236.45312 265.1906 237.0625 265.1906Q237.85938 265.1906 238.46875 265.59686Q239.07812 266.0031 239.375 266.7531Q239.6875 267.5031 239.6875 268.39374Q239.6875 269.34686 239.34375 270.1125Q239.01562 270.8781 238.35938 271.28436Q237.70312 271.6906 236.98438 271.6906Q236.45312 271.6906 236.03125 271.47186Q235.60938 271.2375 235.34375 270.90936L235.34375 273.9406L234.29688 273.9406ZM235.25 268.47186Q235.25 269.675 235.73438 270.2531Q236.21875 270.8156 236.90625 270.8156Q237.60938 270.8156 238.10938 270.22186Q238.60938 269.6281 238.60938 268.3781Q238.60938 267.1906 238.125 266.6125Q237.64062 266.01874 236.95312 266.01874Q236.28125 266.01874 235.76562 266.64374Q235.25 267.26874 235.25 268.47186ZM241.29688 273.9406L241.29688 265.33124L242.25 265.33124L242.25 266.1281Q242.59375 265.65936 243.01562 265.425Q243.45312 265.1906 244.0625 265.1906Q244.85938 265.1906 245.46875 265.59686Q246.07812 266.0031 246.375 266.7531Q246.6875 267.5031 246.6875 268.39374Q246.6875 269.34686 246.34375 270.1125Q246.01562 270.8781 245.35938 271.28436Q244.70312 271.6906 243.98438 271.6906Q243.45312 271.6906 243.03125 271.47186Q242.60938 271.2375 242.34375 270.90936L242.34375 273.9406L241.29688 273.9406ZM242.25 268.47186Q242.25 269.675 242.73438 270.2531Q243.21875 270.8156 243.90625 270.8156Q244.60938 270.8156 245.10938 270.22186Q245.60938 269.6281 245.60938 268.3781Q245.60938 267.1906 245.125 266.6125Q244.64062 266.01874 243.95312 266.01874Q243.28125 266.01874 242.76562 266.64374Q242.25 267.26874 242.25 268.47186ZM247.90625 268.4406Q247.90625 266.70624 248.85938 265.8781Q249.65625 265.1906 250.8125 265.1906Q252.09375 265.1906 252.90625 266.03436Q253.73438 266.8625 253.73438 268.34686Q253.73438 269.55 253.375 270.2375Q253.01562 270.925 252.3125 271.3156Q251.625 271.6906 250.8125 271.6906Q249.51562 271.6906 248.70312 270.8625Q247.90625 270.01874 247.90625 268.4406ZM248.98438 268.4406Q248.98438 269.6281 249.5 270.22186Q250.03125 270.8156 250.8125 270.8156Q251.60938 270.8156 252.125 270.22186Q252.64062 269.6281 252.64062 268.40936Q252.64062 267.2531 252.10938 266.65936Q251.59375 266.0656 250.8125 266.0656Q250.03125 266.0656 249.5 266.65936Q248.98438 267.2375 248.98438 268.4406ZM255.28125 271.55L255.28125 265.33124L256.23438 265.33124L256.23438 266.26874Q256.59375 265.6125 256.89062 265.40936Q257.20312 265.1906 257.57812 265.1906Q258.10938 265.1906 258.65625 265.51874L258.29688 266.5031Q257.90625 266.26874 257.53125 266.26874Q257.17188 266.26874 256.89062 266.4875Q256.625 266.6906 256.51562 267.0656Q256.32812 267.6281 256.32812 268.28436L256.32812 271.55L255.28125 271.55ZM261.59375 270.6125L261.75 271.53436Q261.29688 271.6281 260.95312 271.6281Q260.375 271.6281 260.0625 271.45624Q259.75 271.26874 259.60938 270.97186Q259.48438 270.675 259.48438 269.72186L259.48438 266.14374L258.71875 266.14374L258.71875 265.33124L259.48438 265.33124L259.48438 263.78436L260.53125 263.15936L260.53125 265.33124L261.59375 265.33124L261.59375 266.14374L260.53125 266.14374L260.53125 269.78436Q260.53125 270.2375 260.57812 270.3625Q260.64062 270.4875 260.76562 270.5656Q260.89062 270.64374 261.125 270.64374Q261.3125 270.64374 261.59375 270.6125Z" fill-rule="nonzero"/><path fill="#000000" d="M25.450003 176.85208L19.231253 176.85208L19.231253 175.89896L20.168753 175.89896Q19.512503 175.53958 19.309378 175.2427Q19.090628 174.9302 19.090628 174.5552Q19.090628 174.02396 19.418753 173.47708L20.403128 173.83646Q20.168753 174.22708 20.168753 174.60208Q20.168753 174.96146 20.387503 175.2427Q20.590628 175.50833 20.965628 175.6177Q21.528128 175.8052 22.184378 175.8052L25.450003 175.8052L25.450003 176.85208ZM25.450003 168.75833L24.528128 168.75833Q25.590628 169.4927 25.590628 170.7427Q25.590628 171.28958 25.387503 171.77396Q25.168753 172.2427 24.856253 172.47708Q24.528128 172.71146 24.059378 172.8052Q23.762503 172.8677 23.075003 172.8677L19.231253 172.8677L19.231253 171.8052L22.684378 171.8052Q23.496878 171.8052 23.793753 171.7427Q24.200003 171.64896 24.450003 171.33646Q24.684378 171.00833 24.684378 170.52396Q24.684378 170.0552 24.450003 169.64896Q24.200003 169.22708 23.778128 169.0552Q23.356253 168.8677 22.559378 168.8677L19.231253 168.8677L19.231253 167.82083L25.450003 167.82083L25.450003 168.75833ZM25.450003 165.83646L19.231253 165.83646L19.231253 164.89896L20.106253 164.89896Q19.090628 164.21146 19.090628 162.91458Q19.090628 162.35208 19.293753 161.88333Q19.496878 161.39896 19.825003 161.16458Q20.153128 160.9302 20.590628 160.83646Q20.887503 160.78958 21.621878 160.78958L25.450003 160.78958L25.450003 161.83646L21.668753 161.83646Q21.012503 161.83646 20.700003 161.96146Q20.387503 162.08646 20.200003 162.39896Q19.996878 162.71146 19.996878 163.13333Q19.996878 163.8052 20.434378 164.3052Q20.856253 164.78958 22.043753 164.78958L25.450003 164.78958L25.450003 165.83646ZM24.512503 156.53958L25.434378 156.38333Q25.528128 156.83646 25.528128 157.1802Q25.528128 157.75833 25.356253 158.07083Q25.168753 158.38333 24.871878 158.52396Q24.575003 158.64896 23.621878 158.64896L20.043753 158.64896L20.043753 159.41458L19.231253 159.41458L19.231253 158.64896L17.684378 158.64896L17.059378 157.60208L19.231253 157.60208L19.231253 156.53958L20.043753 156.53958L20.043753 157.60208L23.684378 157.60208Q24.137503 157.60208 24.262503 157.5552Q24.387503 157.4927 24.465628 157.3677Q24.543753 157.2427 24.543753 157.00833Q24.543753 156.82083 24.512503 156.53958ZM18.075003 155.83646L16.856253 155.83646L16.856253 154.77396L18.075003 154.77396L18.075003 155.83646ZM25.450003 155.83646L19.231253 155.83646L19.231253 154.77396L25.450003 154.77396L25.450003 155.83646ZM25.450003 152.83646L19.231253 152.83646L19.231253 151.89896L20.106253 151.89896Q19.637503 151.60208 19.371878 151.1177Q19.090628 150.63333 19.090628 150.00833Q19.090628 149.32083 19.371878 148.88333Q19.653128 148.4302 20.168753 148.25833Q19.090628 147.50833 19.090628 146.33646Q19.090628 145.39896 19.606253 144.91458Q20.106253 144.41458 21.184378 144.41458L25.450003 144.41458L25.450003 145.46146L21.528128 145.46146Q20.903128 145.46146 20.621878 145.57083Q20.340628 145.66458 20.168753 145.9302Q19.996878 146.19583 19.996878 146.57083Q19.996878 147.22708 20.434378 147.66458Q20.871878 148.08646 21.840628 148.08646L25.450003 148.08646L25.450003 149.14896L21.403128 149.14896Q20.700003 149.14896 20.356253 149.41458Q19.996878 149.66458 19.996878 150.2427Q19.996878 150.69583 20.231253 151.07083Q20.465628 151.44583 20.918753 151.6177Q21.371878 151.78958 22.215628 151.78958L25.450003 151.78958L25.450003 152.83646ZM23.450003 138.58646L23.575003 137.4927Q24.528128 137.7427 25.059378 138.44583Q25.590628 139.14896 25.590628 140.22708Q25.590628 141.58646 24.746878 142.39896Q23.903128 143.19583 22.387503 143.19583Q20.825003 143.19583 19.965628 142.38333Q19.090628 141.57083 19.090628 140.28958Q19.090628 139.03958 19.934378 138.25833Q20.778128 137.46146 22.325003 137.46146Q22.418753 137.46146 22.606253 137.46146L22.606253 142.10208Q23.637503 142.03958 24.184378 141.52396Q24.715628 141.00833 24.715628 140.22708Q24.715628 139.64896 24.418753 139.2427Q24.106253 138.82083 23.450003 138.58646ZM21.746878 142.03958L21.746878 138.57083Q20.950003 138.63333 20.559378 138.96146Q19.950003 139.47708 19.950003 140.27396Q19.950003 141.00833 20.434378 141.50833Q20.918753 141.9927 21.746878 142.03958Z" fill-rule="nonzero"/><path fill="#000000" d="M63.825 208.99214L64.85625 208.83589Q64.95 209.46089 65.34062 209.78902Q65.74687 210.11714 66.48125 210.11714Q67.2 210.11714 67.54375 209.83589Q67.90312 209.53902 67.90312 209.13277Q67.90312 208.77339 67.59062 208.57027Q67.37187 208.42964 66.5125 208.21089Q65.35625 207.91402 64.90312 207.71089Q64.46562 207.49214 64.23125 207.11714Q63.996876 206.74214 63.996876 206.27339Q63.996876 205.86714 64.18437 205.50777Q64.37187 205.14839 64.7 204.91402Q64.95 204.74214 65.37187 204.61714Q65.79375 204.49214 66.29375 204.49214Q67.0125 204.49214 67.55937 204.71089Q68.12187 204.91402 68.3875 205.27339Q68.65312 205.63277 68.74687 206.22652L67.71562 206.36714Q67.65312 205.89839 67.30937 205.63277Q66.98125 205.35152 66.35625 205.35152Q65.6375 205.35152 65.325 205.60152Q65.0125 205.83589 65.0125 206.16402Q65.0125 206.36714 65.1375 206.52339Q65.27812 206.69527 65.54375 206.80464Q65.7 206.86714 66.48125 207.07027Q67.60625 207.38277 68.04375 207.57027Q68.48125 207.75777 68.73125 208.11714Q68.98125 208.47652 68.98125 209.02339Q68.98125 209.55464 68.66875 210.02339Q68.37187 210.47652 67.79375 210.74214Q67.21562 210.99214 66.48125 210.99214Q65.2625 210.99214 64.62187 210.49214Q63.996876 209.97652 63.825 208.99214Z" fill-rule="nonzero"/><path fill="#000000" d="M50.91875 185.22455L49.871876 185.22455L49.871876 178.5058Q49.48125 178.86517 48.85625 179.24017Q48.246876 179.59955 47.7625 179.77142L47.7625 178.7558Q48.6375 178.33392 49.29375 177.7558Q49.965626 177.16205 50.246876 176.59955L50.91875 176.59955L50.91875 185.22455ZM53.95 180.99017Q53.95 179.45892 54.2625 178.53705Q54.575 177.59955 55.184376 177.09955Q55.809376 176.59955 56.746876 176.59955Q57.434376 176.59955 57.95 176.8808Q58.48125 177.16205 58.825 177.6933Q59.16875 178.20892 59.35625 178.95892Q59.54375 179.70892 59.54375 180.99017Q59.54375 182.5058 59.23125 183.42767Q58.934376 184.34955 58.309376 184.86517Q57.7 185.36517 56.746876 185.36517Q55.5125 185.36517 54.79375 184.47455Q53.95 183.41205 53.95 180.99017ZM55.028126 180.99017Q55.028126 183.09955 55.528126 183.80267Q56.028126 184.5058 56.746876 184.5058Q57.48125 184.5058 57.965626 183.80267Q58.465626 183.09955 58.465626 180.99017Q58.465626 178.86517 57.965626 178.17767Q57.48125 177.47455 56.73125 177.47455Q56.0125 177.47455 55.575 178.08392Q55.028126 178.86517 55.028126 180.99017ZM63.825 183.36517L64.85625 183.20892Q64.95 183.83392 65.34062 184.16205Q65.74687 184.49017 66.48125 184.49017Q67.2 184.49017 67.54375 184.20892Q67.90312 183.91205 67.90312 183.5058Q67.90312 183.14642 67.59062 182.9433Q67.37187 182.80267 66.5125 182.58392Q65.35625 182.28705 64.90312 182.08392Q64.46562 181.86517 64.23125 181.49017Q63.996876 181.11517 63.996876 180.64642Q63.996876 180.24017 64.18437 179.8808Q64.37187 179.52142 64.7 179.28705Q64.95 179.11517 65.37187 178.99017Q65.79375 178.86517 66.29375 178.86517Q67.0125 178.86517 67.55937 179.08392Q68.12187 179.28705 68.3875 179.64642Q68.65312 180.0058 68.74687 180.59955L67.71562 180.74017Q67.65312 180.27142 67.30937 180.0058Q66.98125 179.72455 66.35625 179.72455Q65.6375 179.72455 65.325 179.97455Q65.0125 180.20892 65.0125 180.53705Q65.0125 180.74017 65.1375 180.89642Q65.27812 181.0683 65.54375 181.17767Q65.7 181.24017 66.48125 181.4433Q67.60625 181.7558 68.04375 181.9433Q68.48125 182.1308 68.73125 182.49017Q68.98125 182.84955 68.98125 183.39642Q68.98125 183.92767 68.66875 184.39642Q68.37187 184.84955 67.79375 185.11517Q67.21562 185.36517 66.48125 185.36517Q65.2625 185.36517 64.62187 184.86517Q63.996876 184.34955 63.825 183.36517Z" fill-rule="nonzero"/><path fill="#000000" d="M52.496876 158.58195L52.496876 159.59758L46.809376 159.59758Q46.809376 159.22258 46.934376 158.8632Q47.153126 158.28508 47.621876 157.72258Q48.10625 157.16008 49.0125 156.4257Q50.41875 155.26945 50.903126 154.59758Q51.403126 153.9257 51.403126 153.33195Q51.403126 152.70695 50.95 152.28508Q50.496876 151.84758 49.778126 151.84758Q49.0125 151.84758 48.559376 152.3007Q48.10625 152.75383 48.090626 153.56633L47.0125 153.45695Q47.121876 152.2382 47.840626 151.6132Q48.575 150.97258 49.809376 150.97258Q51.04375 150.97258 51.7625 151.66008Q52.48125 152.34758 52.48125 153.3632Q52.48125 153.87883 52.2625 154.37883Q52.059376 154.8632 51.559376 155.4257Q51.075 155.97258 49.95 156.9257Q48.996876 157.72258 48.715626 158.01945Q48.45 158.3007 48.278126 158.58195L52.496876 158.58195ZM53.95 155.3632Q53.95 153.83195 54.2625 152.91008Q54.575 151.97258 55.184376 151.47258Q55.809376 150.97258 56.746876 150.97258Q57.434376 150.97258 57.95 151.25383Q58.48125 151.53508 58.825 152.06633Q59.16875 152.58195 59.35625 153.33195Q59.54375 154.08195 59.54375 155.3632Q59.54375 156.87883 59.23125 157.8007Q58.934376 158.72258 58.309376 159.2382Q57.7 159.7382 56.746876 159.7382Q55.5125 159.7382 54.79375 158.84758Q53.95 157.78508 53.95 155.3632ZM55.028126 155.3632Q55.028126 157.47258 55.528126 158.1757Q56.028126 158.87883 56.746876 158.87883Q57.48125 158.87883 57.965626 158.1757Q58.465626 157.47258 58.465626 155.3632Q58.465626 153.2382 57.965626 152.5507Q57.48125 151.84758 56.73125 151.84758Q56.0125 151.84758 55.575 152.45695Q55.028126 153.2382 55.028126 155.3632ZM63.825 157.7382L64.85625 157.58195Q64.95 158.20695 65.34062 158.53508Q65.74687 158.8632 66.48125 158.8632Q67.2 158.8632 67.54375 158.58195Q67.90312 158.28508 67.90312 157.87883Q67.90312 157.51945 67.59062 157.31633Q67.37187 157.1757 66.5125 156.95695Q65.35625 156.66008 64.90312 156.45695Q64.46562 156.2382 64.23125 155.8632Q63.996876 155.4882 63.996876 155.01945Q63.996876 154.6132 64.18437 154.25383Q64.37187 153.89445 64.7 153.66008Q64.95 153.4882 65.37187 153.3632Q65.79375 153.2382 66.29375 153.2382Q67.0125 153.2382 67.55937 153.45695Q68.12187 153.66008 68.3875 154.01945Q68.65312 154.37883 68.74687 154.97258L67.71562 155.1132Q67.65312 154.64445 67.30937 154.37883Q66.98125 154.09758 66.35625 154.09758Q65.6375 154.09758 65.325 154.34758Q65.0125 154.58195 65.0125 154.91008Q65.0125 155.1132 65.1375 155.26945Q65.27812 155.44133 65.54375 155.5507Q65.7 155.6132 66.48125 155.81633Q67.60625 156.12883 68.04375 156.31633Q68.48125 156.50383 68.73125 156.8632Q68.98125 157.22258 68.98125 157.76945Q68.98125 158.3007 68.66875 158.76945Q68.37187 159.22258 67.79375 159.4882Q67.21562 159.7382 66.48125 159.7382Q65.2625 159.7382 64.62187 159.2382Q63.996876 158.72258 63.825 157.7382Z" fill-rule="nonzero"/><path fill="#000000" d="M46.95 131.70499L48.0125 131.56436Q48.184376 132.45499 48.621876 132.86124Q49.059376 133.25186 49.684376 133.25186Q50.434376 133.25186 50.95 132.73624Q51.465626 132.22061 51.465626 131.45499Q51.465626 130.73624 50.98125 130.26749Q50.5125 129.78311 49.778126 129.78311Q49.48125 129.78311 49.028126 129.90811L49.153126 128.97061Q49.2625 128.98624 49.325 128.98624Q49.996876 128.98624 50.528126 128.64249Q51.075 128.28311 51.075 127.54874Q51.075 126.97061 50.684376 126.59561Q50.29375 126.20499 49.66875 126.20499Q49.059376 126.20499 48.6375 126.59561Q48.23125 126.98624 48.121876 127.75186L47.059376 127.56436Q47.246876 126.51749 47.934376 125.93936Q48.621876 125.34561 49.6375 125.34561Q50.340626 125.34561 50.934376 125.65811Q51.528126 125.95499 51.840626 126.47061Q52.153126 126.98624 52.153126 127.57999Q52.153126 128.12686 51.85625 128.59561Q51.559376 129.04874 50.98125 129.31436Q51.73125 129.48624 52.153126 130.04874Q52.575 130.59561 52.575 131.43936Q52.575 132.56436 51.746876 133.34561Q50.934376 134.12686 49.684376 134.12686Q48.559376 134.12686 47.809376 133.45499Q47.059376 132.76749 46.95 131.70499ZM53.95 129.73624Q53.95 128.20499 54.2625 127.28311Q54.575 126.34561 55.184376 125.84561Q55.809376 125.34561 56.746876 125.34561Q57.434376 125.34561 57.95 125.62686Q58.48125 125.90811 58.825 126.43936Q59.16875 126.95499 59.35625 127.70499Q59.54375 128.45499 59.54375 129.73624Q59.54375 131.25186 59.23125 132.17374Q58.934376 133.09561 58.309376 133.61124Q57.7 134.11124 56.746876 134.11124Q55.5125 134.11124 54.79375 133.22061Q53.95 132.15811 53.95 129.73624ZM55.028126 129.73624Q55.028126 131.84561 55.528126 132.54874Q56.028126 133.25186 56.746876 133.25186Q57.48125 133.25186 57.965626 132.54874Q58.465626 131.84561 58.465626 129.73624Q58.465626 127.61124 57.965626 126.92374Q57.48125 126.22061 56.73125 126.22061Q56.0125 126.22061 55.575 126.82999Q55.028126 127.61124 55.028126 129.73624ZM63.825 132.11124L64.85625 131.95499Q64.95 132.57999 65.34062 132.90811Q65.74687 133.23624 66.48125 133.23624Q67.2 133.23624 67.54375 132.95499Q67.90312 132.65811 67.90312 132.25186Q67.90312 131.89249 67.59062 131.68936Q67.37187 131.54874 66.5125 131.32999Q65.35625 131.03311 64.90312 130.82999Q64.46562 130.61124 64.23125 130.23624Q63.996876 129.86124 63.996876 129.39249Q63.996876 128.98624 64.18437 128.62686Q64.37187 128.26749 64.7 128.03311Q64.95 127.86124 65.37187 127.73624Q65.79375 127.61124 66.29375 127.61124Q67.0125 127.61124 67.55937 127.82999Q68.12187 128.03311 68.3875 128.39249Q68.65312 128.75186 68.74687 129.34561L67.71562 129.48624Q67.65312 129.01749 67.30937 128.75186Q66.98125 128.47061 66.35625 128.47061Q65.6375 128.47061 65.325 128.72061Q65.0125 128.95499 65.0125 129.28311Q65.0125 129.48624 65.1375 129.64249Q65.27812 129.81436 65.54375 129.92374Q65.7 129.98624 66.48125 130.18936Q67.60625 130.50186 68.04375 130.68936Q68.48125 130.87686 68.73125 131.23624Q68.98125 131.59561 68.98125 132.14249Q68.98125 132.67374 68.66875 133.14249Q68.37187 133.59561 67.79375 133.86124Q67.21562 134.11124 66.48125 134.11124Q65.2625 134.11124 64.62187 133.61124Q63.996876 133.09561 63.825 132.11124Z" fill-rule="nonzero"/><path fill="#000000" d="M50.325 108.343636L50.325 106.281136L46.60625 106.281136L46.60625 105.312386L50.528126 99.749886L51.3875 99.749886L51.3875 105.312386L52.54375 105.312386L52.54375 106.281136L51.3875 106.281136L51.3875 108.343636L50.325 108.343636ZM50.325 105.312386L50.325 101.45301L47.6375 105.312386L50.325 105.312386ZM53.95 104.10926Q53.95 102.57801 54.2625 101.656136Q54.575 100.718636 55.184376 100.218636Q55.809376 99.718636 56.746876 99.718636Q57.434376 99.718636 57.95 99.999886Q58.48125 100.281136 58.825 100.812386Q59.16875 101.32801 59.35625 102.07801Q59.54375 102.82801 59.54375 104.10926Q59.54375 105.624886 59.23125 106.54676Q58.934376 107.468636 58.309376 107.98426Q57.7 108.48426 56.746876 108.48426Q55.5125 108.48426 54.79375 107.593636Q53.95 106.531136 53.95 104.10926ZM55.028126 104.10926Q55.028126 106.218636 55.528126 106.92176Q56.028126 107.624886 56.746876 107.624886Q57.48125 107.624886 57.965626 106.92176Q58.465626 106.218636 58.465626 104.10926Q58.465626 101.98426 57.965626 101.29676Q57.48125 100.593636 56.73125 100.593636Q56.0125 100.593636 55.575 101.20301Q55.028126 101.98426 55.028126 104.10926ZM63.825 106.48426L64.85625 106.32801Q64.95 106.95301 65.34062 107.281136Q65.74687 107.60926 66.48125 107.60926Q67.2 107.60926 67.54375 107.32801Q67.90312 107.031136 67.90312 106.624886Q67.90312 106.26551 67.59062 106.062386Q67.37187 105.92176 66.5125 105.70301Q65.35625 105.406136 64.90312 105.20301Q64.46562 104.98426 64.23125 104.60926Q63.996876 104.23426 63.996876 103.76551Q63.996876 103.35926 64.18437 102.999886Q64.37187 102.64051 64.7 102.406136Q64.95 102.23426 65.37187 102.10926Q65.79375 101.98426 66.29375 101.98426Q67.0125 101.98426 67.55937 102.20301Q68.12187 102.406136 68.3875 102.76551Q68.65312 103.124886 68.74687 103.718636L67.71562 103.85926Q67.65312 103.39051 67.30937 103.124886Q66.98125 102.843636 66.35625 102.843636Q65.6375 102.843636 65.325 103.093636Q65.0125 103.32801 65.0125 103.656136Q65.0125 103.85926 65.1375 104.01551Q65.27812 104.187386 65.54375 104.29676Q65.7 104.35926 66.48125 104.562386Q67.60625 104.874886 68.04375 105.062386Q68.48125 105.249886 68.73125 105.60926Q68.98125 105.968636 68.98125 106.51551Q68.98125 107.04676 68.66875 107.51551Q68.37187 107.968636 67.79375 108.23426Q67.21562 108.48426 66.48125 108.48426Q65.2625 108.48426 64.62187 107.98426Q63.996876 107.468636 63.825 106.48426Z" fill-rule="nonzero"/><path fill="#000000" d="M46.95 80.46667L48.059376 80.37292Q48.184376 81.18542 48.621876 81.59167Q49.075 81.99792 49.715626 81.99792Q50.465626 81.99792 50.996876 81.41979Q51.528126 80.84167 51.528126 79.90417Q51.528126 78.99792 51.0125 78.48229Q50.5125 77.95104 49.684376 77.95104Q49.184376 77.95104 48.7625 78.18542Q48.35625 78.41979 48.121876 78.77917L47.1375 78.65417L47.965626 74.24792L52.246876 74.24792L52.246876 75.24792L48.809376 75.24792L48.35625 77.56042Q49.121876 77.01354 49.965626 77.01354Q51.090626 77.01354 51.85625 77.79479Q52.6375 78.57604 52.6375 79.81042Q52.6375 80.96667 51.965626 81.82604Q51.1375 82.85729 49.715626 82.85729Q48.54375 82.85729 47.79375 82.20104Q47.059376 81.54479 46.95 80.46667ZM53.95 78.48229Q53.95 76.95104 54.2625 76.02917Q54.575 75.09167 55.184376 74.59167Q55.809376 74.09167 56.746876 74.09167Q57.434376 74.09167 57.95 74.37292Q58.48125 74.65417 58.825 75.18542Q59.16875 75.70104 59.35625 76.45104Q59.54375 77.20104 59.54375 78.48229Q59.54375 79.99792 59.23125 80.91979Q58.934376 81.84167 58.309376 82.35729Q57.7 82.85729 56.746876 82.85729Q55.5125 82.85729 54.79375 81.96667Q53.95 80.90417 53.95 78.48229ZM55.028126 78.48229Q55.028126 80.59167 55.528126 81.29479Q56.028126 81.99792 56.746876 81.99792Q57.48125 81.99792 57.965626 81.29479Q58.465626 80.59167 58.465626 78.48229Q58.465626 76.35729 57.965626 75.66979Q57.48125 74.96667 56.73125 74.96667Q56.0125 74.96667 55.575 75.57604Q55.028126 76.35729 55.028126 78.48229ZM63.825 80.85729L64.85625 80.70104Q64.95 81.32604 65.34062 81.65417Q65.74687 81.98229 66.48125 81.98229Q67.2 81.98229 67.54375 81.70104Q67.90312 81.40417 67.90312 80.99792Q67.90312 80.63854 67.59062 80.43542Q67.37187 80.29479 66.5125 80.07604Q65.35625 79.77917 64.90312 79.57604Q64.46562 79.35729 64.23125 78.98229Q63.996876 78.60729 63.996876 78.13854Q63.996876 77.73229 64.18437 77.37292Q64.37187 77.01354 64.7 76.77917Q64.95 76.60729 65.37187 76.48229Q65.79375 76.35729 66.29375 76.35729Q67.0125 76.35729 67.55937 76.57604Q68.12187 76.77917 68.3875 77.13854Q68.65312 77.49792 68.74687 78.09167L67.71562 78.23229Q67.65312 77.76354 67.30937 77.49792Q66.98125 77.21667 66.35625 77.21667Q65.6375 77.21667 65.325 77.46667Q65.0125 77.70104 65.0125 78.02917Q65.0125 78.23229 65.1375 78.38854Q65.27812 78.56042 65.54375 78.66979Q65.7 78.73229 66.48125 78.93542Q67.60625 79.24792 68.04375 79.43542Q68.48125 79.62292 68.73125 79.98229Q68.98125 80.34167 68.98125 80.88854Q68.98125 81.41979 68.66875 81.88854Q68.37187 82.34167 67.79375 82.60729Q67.21562 82.85729 66.48125 82.85729Q65.2625 82.85729 64.62187 82.35729Q63.996876 81.84167 63.825 80.85729Z" fill-rule="nonzero"/><path fill="#000000" d="M377.50848 242.03072Q376.42572 240.94795 375.99484 240.07512Q375.5529 239.19124 375.63022 238.4068Q375.71863 237.6113 376.38153 236.94838Q376.86768 236.46225 377.43115 236.29652Q378.00568 236.11975 378.6244 236.25233Q379.23206 236.37386 379.89496 236.7716Q380.5579 237.16936 381.46387 238.07533Q382.53558 239.14705 382.96646 240.01988Q383.40842 240.88167 383.33105 241.68822Q383.25372 242.47266 382.57977 243.14662Q381.70694 244.01945 380.56894 243.89792Q379.221 243.74324 377.50848 242.03072ZM378.27084 241.26837Q379.7624 242.75992 380.61313 242.90355Q381.46387 243.04718 381.9721 242.53896Q382.49136 242.01967 382.3367 241.17998Q382.19305 240.32924 380.7015 238.83769Q379.1989 237.33508 378.35922 237.2025Q377.51953 237.04782 376.9892 237.57816Q376.48096 238.08638 376.6025 238.82664Q376.76822 239.76576 378.27084 241.26837ZM385.87222 239.65527L385.02148 238.80453L385.87222 237.95381L386.72296 238.80453L385.87222 239.65527ZM390.38004 235.14748L389.63977 235.88773L384.88892 231.13686Q384.86682 231.66718 384.69003 232.37428Q384.51328 233.0593 384.2923 233.52333L383.57413 232.80518Q383.89453 231.88815 383.9498 231.01532Q384.00504 230.12039 383.80615 229.52376L384.28125 229.04868L390.38004 235.14748ZM389.5293 230.0099Q388.44653 228.92714 388.01566 228.0543Q387.5737 227.17043 387.65106 226.38599Q387.73944 225.59048 388.40234 224.92757Q388.8885 224.44144 389.45197 224.27571Q390.0265 224.09894 390.6452 224.2315Q391.25287 224.35304 391.91577 224.7508Q392.5787 225.14854 393.48468 226.05452Q394.5564 227.12624 394.98727 227.99907Q395.42923 228.86086 395.35187 229.66739Q395.27454 230.45184 394.6006 231.12581Q393.72775 231.99864 392.58975 231.8771Q391.24182 231.72243 389.5293 230.0099ZM390.29166 229.24756Q391.7832 230.7391 392.63394 230.88274Q393.48468 231.02637 393.99292 230.51813Q394.5122 229.99886 394.3575 229.15916Q394.21387 228.30843 392.72232 226.81688Q391.21973 225.31427 390.38004 225.18169Q389.54034 225.02701 389.01 225.55734Q388.50177 226.06557 388.62332 226.80582Q388.78906 227.74495 390.29166 229.24756ZM392.99854 223.29239Q392.34668 222.64052 392.21408 221.86713Q392.09256 221.08267 392.71127 220.46396Q393.2858 219.88943 394.07025 219.92258Q394.8547 219.95573 395.63913 220.74017Q396.41254 221.51357 396.44568 222.32011Q396.47882 223.10457 395.9264 223.65698Q395.374 224.20941 394.6006 224.16522Q393.82718 224.12103 392.99854 223.29239ZM393.2416 220.95009Q392.9654 221.2263 393.02063 221.6572Q393.08694 222.07704 393.72775 222.71786Q394.31332 223.30344 394.73315 223.36972Q395.153 223.41393 395.42923 223.13771Q395.7165 222.85045 395.6502 222.4306Q395.59494 221.99971 394.96518 221.36993Q394.36856 220.77332 393.94873 220.72913Q393.51782 220.67389 393.2416 220.95009ZM399.1305 226.83897L396.059 217.11626L396.66666 216.50858L399.7492 226.22025L399.1305 226.83897ZM400.1138 222.56319Q399.46194 221.91132 399.32935 221.13792Q399.20782 220.35347 399.8376 219.72371Q400.4121 219.14919 401.19656 219.18233Q401.96997 219.20442 402.76544 219.99992Q403.53885 220.77332 403.572 221.57986Q403.60513 222.3643 403.04166 222.92778Q402.50027 223.46916 401.71585 223.43602Q400.94244 223.39183 400.1138 222.56319ZM400.36792 220.20984Q400.08066 220.4971 400.1359 220.928Q400.20218 221.34784 400.84302 221.98866Q401.41754 222.56319 401.84842 222.61842Q402.27933 222.67368 402.55554 222.39746Q402.83176 222.12125 402.7765 221.69035Q402.72125 221.25946 402.08044 220.61864Q401.49487 220.03307 401.07504 219.98888Q400.64413 219.93362 400.36792 220.20984Z" fill-rule="nonzero"/><path fill="#000000" d="M342.81522 242.03073Q341.73245 240.94797 341.30157 240.07513Q340.85962 239.19125 340.93698 238.4068Q341.02536 237.61131 341.68826 236.9484Q342.1744 236.46227 342.73788 236.29654Q343.3124 236.11975 343.93112 236.25233Q344.5388 236.37387 345.20172 236.77162Q345.86462 237.16937 346.7706 238.07535Q347.84232 239.14706 348.2732 240.0199Q348.71515 240.88168 348.63782 241.68822Q348.56046 242.47267 347.8865 243.14664Q347.01367 244.01947 345.87567 243.89793Q344.52774 243.74326 342.81522 242.03073ZM343.57758 241.26837Q345.06912 242.75993 345.91986 242.90356Q346.7706 243.0472 347.27884 242.53896Q347.79813 242.01968 347.64343 241.18Q347.49982 240.32925 346.00824 238.83769Q344.50565 237.3351 343.66595 237.20251Q342.82626 237.04784 342.29593 237.57817Q341.78772 238.0864 341.90924 238.82664Q342.07498 239.76578 343.57758 241.26837ZM351.17896 239.65529L350.32822 238.80455L351.17896 237.95381L352.0297 238.80455L351.17896 239.65529ZM356.08453 233.31343L356.80267 234.03159L352.781 238.05325Q352.51584 237.78809 352.35013 237.44559Q352.096 236.88211 352.0297 236.15291Q351.97446 235.41264 352.096 234.25255Q352.27277 232.4406 352.1402 231.623Q352.01865 230.79436 351.59882 230.37451Q351.15686 229.93257 350.53815 229.95467Q349.9084 229.96571 349.40015 230.47395Q348.85876 231.01534 348.85876 231.65614Q348.85876 232.29697 349.42224 232.88254L348.58255 233.56754Q347.79813 232.62842 347.8644 231.67824Q347.9307 230.70596 348.80353 229.83313Q349.67636 228.9603 350.67075 228.9382Q351.6651 228.9161 352.38327 229.63426Q352.74786 229.99887 352.94675 230.5071Q353.1456 230.99323 353.1898 231.74454Q353.234 232.47374 353.11246 233.94319Q353.00198 235.18063 353.01303 235.58943Q353.02408 235.97612 353.1014 236.29654L356.08453 233.31343ZM354.83603 230.00992Q353.75327 228.92715 353.3224 228.05432Q352.88043 227.17044 352.9578 226.38599Q353.04617 225.5905 353.70908 224.92758Q354.19522 224.44145 354.7587 224.27571Q355.33322 224.09894 355.95193 224.23152Q356.5596 224.35306 357.22253 224.75081Q357.88544 225.14856 358.7914 226.05453Q359.86313 227.12624 360.294 227.99908Q360.73596 228.86087 360.65863 229.6674Q360.58127 230.45186 359.90732 231.12581Q359.0345 231.99866 357.89648 231.87712Q356.54855 231.72244 354.83603 230.00992ZM355.5984 229.24756Q357.08994 230.73912 357.94067 230.88275Q358.7914 231.02638 359.29965 230.51814Q359.81894 229.99887 359.66425 229.15918Q359.52063 228.30844 358.02905 226.81688Q356.52646 225.31429 355.68677 225.1817Q354.84708 225.02702 354.31674 225.55734Q353.80853 226.06558 353.93005 226.80583Q354.0958 227.74496 355.5984 229.24756ZM358.30527 223.2924Q357.6534 222.64053 357.52084 221.86714Q357.3993 221.08269 358.018 220.46397Q358.59253 219.88945 359.37698 219.92259Q360.16144 219.95573 360.9459 220.74019Q361.71927 221.51358 361.7524 222.32013Q361.78558 223.10457 361.23315 223.657Q360.68073 224.20943 359.90732 224.16524Q359.1339 224.12103 358.30527 223.2924ZM358.54834 220.9501Q358.27213 221.22632 358.32736 221.65721Q358.39368 222.07706 359.0345 222.71788Q359.62006 223.30345 360.0399 223.36974Q360.45975 223.41393 360.73596 223.13771Q361.02322 222.85045 360.95694 222.43062Q360.90167 221.99973 360.2719 221.36995Q359.6753 220.77333 359.25546 220.72914Q358.82455 220.67389 358.54834 220.9501ZM364.43723 226.83897L361.36572 217.11626L361.9734 216.50859L365.05594 226.22026L364.43723 226.83897ZM365.42053 222.56319Q364.76868 221.91133 364.6361 221.13792Q364.51456 220.35349 365.14432 219.72372Q365.71884 219.1492 366.5033 219.18234Q367.2767 219.20444 368.0722 219.99994Q368.84558 220.77333 368.87872 221.57988Q368.9119 222.36432 368.34842 222.9278Q367.80704 223.46918 367.02258 223.43604Q366.24918 223.39183 365.42053 222.56319ZM365.67465 220.20985Q365.3874 220.49712 365.44263 220.92801Q365.50894 221.34785 366.14975 221.98866Q366.72427 222.56319 367.15515 222.61844Q367.58606 222.67368 367.86227 222.39746Q368.1385 222.12125 368.08325 221.69035Q368.02798 221.25946 367.38718 220.61865Q366.8016 220.03308 366.38177 219.98888Q365.95087 219.93364 365.67465 220.20985Z" fill-rule="nonzero"/><path fill="#000000" d="M308.12198 242.03072Q307.0392 240.94795 306.60834 240.07512Q306.16638 239.19124 306.2437 238.4068Q306.33212 237.6113 306.99503 236.94838Q307.48117 236.46225 308.04465 236.29652Q308.61917 236.11975 309.23788 236.25233Q309.84555 236.37386 310.50845 236.7716Q311.1714 237.16936 312.07736 238.07533Q313.14908 239.14705 313.57996 240.01988Q314.0219 240.88167 313.94455 241.68822Q313.86722 242.47266 313.19327 243.14662Q312.32043 244.01945 311.18243 243.89792Q309.8345 243.74324 308.12198 242.03072ZM308.88434 241.26837Q310.3759 242.75992 311.22662 242.90355Q312.07736 243.04718 312.5856 242.53896Q313.10486 242.01967 312.9502 241.17998Q312.80655 240.32924 311.315 238.83769Q309.8124 237.33508 308.97272 237.2025Q308.13303 237.04782 307.6027 237.57816Q307.09445 238.08638 307.216 238.82664Q307.3817 239.76576 308.88434 241.26837ZM316.48572 239.65527L315.63498 238.80453L316.48572 237.9538L317.33646 238.80453L316.48572 239.65527ZM316.58517 236.35176L317.23703 235.50102Q317.98834 236.00926 318.58496 235.98717Q319.17053 235.95401 319.61246 235.51207Q320.1428 234.98175 320.1428 234.25255Q320.1428 233.52333 319.6014 232.98196Q319.09317 232.47372 318.41922 232.48477Q317.74527 232.47372 317.22598 232.99301Q317.01605 233.20293 316.78403 233.61172L316.2095 232.86043Q316.2979 232.79413 316.3421 232.74994Q316.81717 232.27486 316.94977 231.65613Q317.08234 231.01532 316.56308 230.49603Q316.15427 230.08723 315.61288 230.09828Q315.06046 230.09828 314.61853 230.54024Q314.18762 230.97113 314.16553 231.54565Q314.15448 232.10913 314.61853 232.72784L313.73465 233.34656Q313.12698 232.47372 313.2043 231.5788Q313.2706 230.6728 313.98877 229.95465Q314.48593 229.45747 315.12677 229.2586Q315.75653 229.04868 316.3421 229.1923Q316.92767 229.33594 317.3475 229.75578Q317.73422 230.14249 317.85574 230.68387Q317.96622 231.21419 317.74527 231.8108Q318.39713 231.40202 319.09317 231.50145Q319.7782 231.58984 320.37482 232.18646Q321.17032 232.98196 321.13718 234.11996Q321.11505 235.24692 320.23117 236.1308Q319.4357 236.92628 318.43027 236.98154Q317.41382 237.02573 316.58517 236.35176ZM320.1428 230.0099Q319.06003 228.92714 318.62915 228.0543Q318.1872 227.17043 318.26456 226.38597Q318.35294 225.59048 319.01584 224.92757Q319.50198 224.44144 320.06546 224.27571Q320.63998 224.09892 321.2587 224.2315Q321.86636 224.35304 322.52927 224.7508Q323.1922 225.14854 324.09818 226.05452Q325.1699 227.12624 325.60077 227.99907Q326.04272 228.86086 325.96536 229.66739Q325.88803 230.45184 325.21408 231.12581Q324.34125 231.99864 323.20325 231.8771Q321.85532 231.72243 320.1428 230.0099ZM320.90515 229.24756Q322.3967 230.7391 323.24744 230.88274Q324.09818 231.02637 324.6064 230.51813Q325.1257 229.99886 324.971 229.15916Q324.82736 228.30843 323.33582 226.81688Q321.83322 225.31427 320.99353 225.18169Q320.15384 225.02701 319.6235 225.55734Q319.11526 226.06557 319.23682 226.80582Q319.40253 227.74495 320.90515 229.24756ZM323.61203 223.29239Q322.96017 222.64052 322.82758 221.86713Q322.70605 221.08267 323.32477 220.46396Q323.8993 219.88943 324.68375 219.92258Q325.4682 219.95572 326.25262 220.74017Q327.02603 221.51357 327.05917 222.32011Q327.09232 223.10457 326.5399 223.65698Q325.9875 224.20941 325.21408 224.16522Q324.44067 224.12103 323.61203 223.29239ZM323.8551 220.95009Q323.5789 221.2263 323.63412 221.6572Q323.70044 222.07704 324.34125 222.71786Q324.92682 223.30344 325.34665 223.36972Q325.7665 223.41393 326.04272 223.13771Q326.33 222.85045 326.2637 222.4306Q326.20844 221.99971 325.57867 221.36993Q324.98206 220.77332 324.56223 220.72913Q324.13132 220.67389 323.8551 220.95009ZM329.744 226.83897L326.6725 217.11626L327.28015 216.50858L330.3627 226.22025L329.744 226.83897ZM330.7273 222.56319Q330.07544 221.91132 329.94284 221.13792Q329.82132 220.35347 330.45108 219.72371Q331.0256 219.14919 331.81006 219.18233Q332.58347 219.20442 333.37894 219.99992Q334.15234 220.77332 334.1855 221.57986Q334.21863 222.3643 333.65515 222.92778Q333.11377 223.46916 332.32935 223.43602Q331.55594 223.39183 330.7273 222.56319ZM330.9814 220.20984Q330.69415 220.4971 330.7494 220.928Q330.81567 221.34784 331.4565 221.98866Q332.03104 222.56319 332.4619 222.61842Q332.89282 222.67368 333.16904 222.39746Q333.44525 222.12125 333.38998 221.69035Q333.33475 221.25946 332.69394 220.61864Q332.10837 220.03307 331.6885 219.98888Q331.25763 219.93362 330.9814 220.20984Z" fill-rule="nonzero"/><path fill="#000000" d="M273.4287 242.03073Q272.34595 240.94797 271.91507 240.07513Q271.4731 239.19125 271.55048 238.4068Q271.63885 237.61131 272.30176 236.9484Q272.7879 236.46227 273.35138 236.29654Q273.9259 236.11975 274.54462 236.25233Q275.15228 236.37387 275.81522 236.77162Q276.47812 237.16937 277.3841 238.07535Q278.4558 239.14706 278.8867 240.0199Q279.32864 240.88168 279.2513 241.68822Q279.17395 242.47267 278.5 243.14664Q277.62717 244.01947 276.48917 243.89793Q275.14124 243.74326 273.4287 242.03073ZM274.19107 241.26837Q275.68262 242.75993 276.53336 242.90356Q277.3841 243.0472 277.89233 242.53896Q278.41162 242.01968 278.25693 241.18Q278.1133 240.32925 276.62173 238.83769Q275.11914 237.3351 274.27945 237.20251Q273.43976 237.04784 272.90942 237.57817Q272.4012 238.0864 272.52274 238.82664Q272.68848 239.76578 274.19107 241.26837ZM281.79245 239.65529L280.9417 238.80455L281.79245 237.95381L282.6432 238.80455L281.79245 239.65529ZM285.88043 235.56732L284.42203 234.10892L281.79245 236.73848L281.10745 236.05347L279.94736 229.347L280.55502 228.73933L284.4883 232.6726L285.3059 231.85501L285.9909 232.54002L285.1733 233.35762L286.6317 234.81602L285.88043 235.56732ZM283.737 233.4239L281.00803 230.69492L281.83667 235.32426L283.737 233.4239ZM285.44952 230.00992Q284.36676 228.92715 283.93588 228.05432Q283.49393 227.17044 283.5713 226.38599Q283.65967 225.5905 284.32257 224.92758Q284.80872 224.44145 285.3722 224.27571Q285.94672 224.09894 286.56543 224.23152Q287.1731 224.35306 287.83603 224.75081Q288.49893 225.14856 289.4049 226.05453Q290.47662 227.12624 290.9075 227.99907Q291.34946 228.86087 291.27213 229.6674Q291.19476 230.45186 290.5208 231.12581Q289.64798 231.99864 288.50998 231.87712Q287.16205 231.72244 285.44952 230.00992ZM286.21188 229.24756Q287.70343 230.73912 288.55417 230.88275Q289.4049 231.02638 289.91315 230.51814Q290.43243 229.99886 290.27774 229.15918Q290.13412 228.30844 288.64255 226.81688Q287.13995 225.31429 286.30026 225.1817Q285.46057 225.02702 284.93024 225.55734Q284.42203 226.06558 284.54355 226.80583Q284.7093 227.74496 286.21188 229.24756ZM288.91876 223.2924Q288.2669 222.64053 288.13434 221.86714Q288.0128 221.08269 288.6315 220.46397Q289.20602 219.88945 289.99048 219.92259Q290.77493 219.95573 291.5594 220.74019Q292.33276 221.51358 292.3659 222.32013Q292.39908 223.10457 291.84665 223.657Q291.29422 224.20943 290.5208 224.16524Q289.7474 224.12103 288.91876 223.2924ZM289.16183 220.9501Q288.88562 221.22632 288.94086 221.65721Q289.00717 222.07706 289.64798 222.71786Q290.23355 223.30345 290.65338 223.36974Q291.07324 223.41393 291.34946 223.13771Q291.63672 222.85045 291.57043 222.4306Q291.51517 221.99971 290.8854 221.36995Q290.2888 220.77333 289.86896 220.72914Q289.43805 220.67389 289.16183 220.9501ZM295.05072 226.83897L291.97922 217.11626L292.58688 216.50859L295.66943 226.22026L295.05072 226.83897ZM296.03403 222.56319Q295.38217 221.91133 295.2496 221.13792Q295.12805 220.35349 295.7578 219.72372Q296.33234 219.1492 297.1168 219.18234Q297.8902 219.20444 298.6857 219.99992Q299.45908 220.77333 299.49222 221.57988Q299.52536 222.36432 298.9619 222.9278Q298.42053 223.46918 297.63608 223.43604Q296.86267 223.39183 296.03403 222.56319ZM296.28815 220.20985Q296.0009 220.49712 296.05612 220.92801Q296.12244 221.34785 296.76324 221.98866Q297.33777 222.56319 297.76865 222.61844Q298.19955 222.67368 298.47577 222.39746Q298.75198 222.12125 298.69675 221.69035Q298.64148 221.25946 298.00067 220.61865Q297.4151 220.03308 296.99527 219.98888Q296.56436 219.93364 296.28815 220.20985Z" fill-rule="nonzero"/><path fill="#000000" d="M238.73546 242.03073Q237.65271 240.94797 237.22182 240.07513Q236.77988 239.19125 236.85721 238.4068Q236.9456 237.61131 237.6085 236.9484Q238.09465 236.46227 238.65813 236.29654Q239.23265 236.11975 239.85136 236.25233Q240.45903 236.37387 241.12195 236.77162Q241.78487 237.16937 242.69084 238.07535Q243.76254 239.14705 244.19345 240.0199Q244.63539 240.88168 244.55804 241.68822Q244.48071 242.47267 243.80675 243.14662Q242.93391 244.01947 241.79591 243.89793Q240.44798 243.74326 238.73546 242.03073ZM239.49782 241.26837Q240.98936 242.75993 241.8401 242.90356Q242.69084 243.0472 243.19908 242.53896Q243.71835 242.01968 243.56367 241.18Q243.42004 240.32925 241.9285 238.83769Q240.42589 237.3351 239.5862 237.20251Q238.7465 237.04784 238.21619 237.57817Q237.70795 238.0864 237.82948 238.82664Q237.99521 239.76578 239.49782 241.26837ZM247.09921 239.65529L246.24847 238.80455L247.09921 237.95381L247.94995 238.80455L247.09921 239.65529ZM247.2097 236.36282L247.92786 235.51208Q248.59076 235.99821 249.18738 235.97612Q249.79506 235.94298 250.24805 235.48999Q250.77838 234.95966 250.74522 234.17522Q250.71208 233.39076 250.04918 232.72786Q249.40836 232.08704 248.67915 232.08704Q247.94995 232.06494 247.36438 232.65051Q247.01082 233.00406 246.87823 233.46811Q246.7567 233.9211 246.8451 234.34094L246.06065 234.94861L243.53053 231.24734L246.55783 228.22005L247.26494 228.92715L244.83426 231.35783L246.14903 233.31343Q246.30371 232.38535 246.90033 231.78873Q247.69583 230.99323 248.78964 231.00427Q249.89449 231.00427 250.76733 231.87712Q251.58492 232.6947 251.7175 233.77747Q251.86113 235.09224 250.85571 236.09766Q250.02707 236.9263 249.0327 236.99258Q248.0494 237.04784 247.2097 236.36282ZM250.75629 230.0099Q249.67354 228.92714 249.24265 228.0543Q248.80069 227.17043 248.87804 226.38597Q248.96643 225.59048 249.62933 224.92757Q250.11548 224.44144 250.67896 224.27571Q251.25348 224.09892 251.8722 224.2315Q252.47986 224.35304 253.14278 224.7508Q253.8057 225.14854 254.71167 226.05452Q255.78337 227.12624 256.21426 227.99907Q256.65622 228.86086 256.57886 229.66739Q256.50153 230.45184 255.82758 231.12581Q254.95474 231.99864 253.81674 231.8771Q252.46881 231.72243 250.75629 230.0099ZM251.51863 229.24754Q253.0102 230.7391 253.86093 230.88274Q254.71167 231.02637 255.2199 230.51813Q255.73918 229.99886 255.5845 229.15916Q255.44087 228.30843 253.94933 226.81686Q252.44672 225.31427 251.60703 225.18169Q250.76733 225.02701 250.23701 225.55734Q249.72878 226.06557 249.85031 226.80582Q250.01604 227.74495 251.51863 229.24754ZM254.22552 223.29239Q253.57367 222.64052 253.44109 221.86713Q253.31955 221.08267 253.93826 220.46396Q254.51279 219.88943 255.29724 219.92258Q256.0817 219.95572 256.86612 220.74017Q257.63953 221.51357 257.67267 222.32011Q257.7058 223.10455 257.15338 223.65698Q256.60098 224.20941 255.82758 224.16522Q255.05417 224.12103 254.22552 223.29239ZM254.4686 220.95009Q254.19238 221.2263 254.24763 221.6572Q254.31392 222.07704 254.95474 222.71786Q255.54031 223.30344 255.96016 223.36972Q256.38 223.41393 256.65622 223.13771Q256.94348 222.85045 256.8772 222.4306Q256.82193 221.99971 256.19217 221.36993Q255.59555 220.77332 255.1757 220.72913Q254.74481 220.67387 254.4686 220.95009ZM260.35748 226.83897L257.28598 217.11626L257.89365 216.50858L260.9762 226.22025L260.35748 226.83897ZM261.3408 222.56319Q260.68893 221.91132 260.55634 221.13792Q260.4348 220.35347 261.06458 219.72371Q261.6391 219.14919 262.42355 219.18233Q263.19696 219.20442 263.99243 219.99992Q264.76584 220.77332 264.79898 221.57986Q264.83212 222.3643 264.26865 222.92778Q263.72726 223.46916 262.94284 223.43602Q262.16943 223.39182 261.3408 222.56319ZM261.5949 220.20984Q261.30765 220.4971 261.36288 220.928Q261.42917 221.34784 262.07 221.98866Q262.64453 222.56319 263.0754 222.61842Q263.50632 222.67366 263.78253 222.39746Q264.05875 222.12125 264.00348 221.69035Q263.94824 221.25946 263.30743 220.61864Q262.72186 220.03307 262.302 219.98888Q261.87112 219.93362 261.5949 220.20984Z" fill-rule="nonzero"/><path fill="#000000" d="M204.0422 242.03073Q202.95946 240.94797 202.52856 240.07513Q202.08662 239.19125 202.16396 238.4068Q202.25235 237.61131 202.91525 236.9484Q203.4014 236.46227 203.96487 236.29654Q204.5394 236.11975 205.15811 236.25233Q205.76578 236.37387 206.4287 236.77162Q207.09161 237.16937 207.99759 238.07535Q209.06929 239.14705 209.5002 240.0199Q209.94214 240.88168 209.86479 241.68822Q209.78746 242.47267 209.1135 243.14662Q208.24066 244.01947 207.10266 243.89793Q205.75473 243.74326 204.0422 242.03073ZM204.80457 241.26837Q206.29611 242.75993 207.14685 242.90356Q207.99759 243.0472 208.50583 242.53896Q209.0251 242.01968 208.87042 241.18Q208.72679 240.32925 207.23524 238.83769Q205.73264 237.3351 204.89294 237.20251Q204.05325 237.04784 203.52293 237.57816Q203.0147 238.0864 203.13623 238.82664Q203.30196 239.76578 204.80457 241.26837ZM212.40596 239.65529L211.55522 238.80455L212.40596 237.95381L213.2567 238.80455L212.40596 239.65529ZM213.38928 229.50168L212.70427 230.29718Q212.16289 229.95467 211.78725 229.93257Q211.15747 229.92152 210.71553 230.36346Q210.36198 230.71701 210.28464 231.19211Q210.20729 231.79977 210.49455 232.50688Q210.78181 233.1919 211.67676 234.10892Q211.53313 233.43495 211.72095 232.84938Q211.91982 232.25276 212.35071 231.82187Q213.09097 231.08162 214.16267 231.11476Q215.24544 231.13686 216.10722 231.99864Q216.68175 232.57317 216.9248 233.32448Q217.16788 234.05368 217.00215 234.74974Q216.82538 235.43474 216.284 235.97612Q215.34486 236.91525 214.0743 236.81581Q212.80371 236.71637 211.23482 235.14748Q209.46704 233.37971 209.32341 231.93236Q209.19083 230.67282 210.15205 229.7116Q210.87021 228.99344 211.732 228.94925Q212.59378 228.88297 213.38928 229.50168ZM212.96944 235.15854Q213.35612 235.54523 213.86436 235.74411Q214.3726 235.92088 214.84769 235.82144Q215.33382 235.71095 215.66528 235.3795Q216.12932 234.91547 216.09618 234.19731Q216.05197 233.46811 215.40012 232.81624Q214.77034 232.18648 214.06323 232.16438Q213.36719 232.13123 212.85895 232.63947Q212.35071 233.14769 212.36177 233.86586Q212.38387 234.57295 212.96944 235.15854ZM216.06302 230.00992Q214.98027 228.92715 214.54938 228.05432Q214.10744 227.17044 214.18477 226.38599Q214.27316 225.5905 214.93608 224.92758Q215.42221 224.44145 215.98569 224.27571Q216.56021 224.09894 217.17892 224.23152Q217.7866 224.35306 218.44951 224.75081Q219.11243 225.14854 220.0184 226.05453Q221.09012 227.12624 221.52101 227.99907Q221.96295 228.86086 221.8856 229.6674Q221.80827 230.45186 221.13431 231.12581Q220.26147 231.99864 219.12347 231.87712Q217.77554 231.72243 216.06302 230.00992ZM216.82538 229.24756Q218.31693 230.73912 219.16766 230.88275Q220.0184 231.02638 220.52664 230.51814Q221.04591 229.99886 220.89124 229.15918Q220.7476 228.30844 219.25606 226.81688Q217.75345 225.31429 216.91376 225.1817Q216.07408 225.02702 215.54375 225.55734Q215.0355 226.06558 215.15704 226.80583Q215.32277 227.74496 216.82538 229.24756ZM219.53227 223.29239Q218.8804 222.64053 218.74782 221.86714Q218.62628 221.08269 219.24501 220.46397Q219.81953 219.88945 220.60397 219.92259Q221.38843 219.95573 222.17287 220.74019Q222.94627 221.51358 222.97942 222.32013Q223.01256 223.10457 222.46013 223.657Q221.9077 224.20943 221.13431 224.16524Q220.36092 224.12103 219.53227 223.29239ZM219.77533 220.9501Q219.49913 221.22632 219.55437 221.65721Q219.62065 222.07706 220.26147 222.71786Q220.84705 223.30345 221.26689 223.36974Q221.68674 223.41393 221.96295 223.13771Q222.25021 222.85045 222.18391 222.4306Q222.12868 221.99971 221.4989 221.36995Q220.90228 220.77333 220.48244 220.72914Q220.05154 220.67389 219.77533 220.9501ZM225.66422 226.83897L222.59271 217.11626L223.20038 216.50859L226.28293 226.22026L225.66422 226.83897ZM226.64754 222.56319Q225.99567 221.91133 225.86308 221.13792Q225.74155 220.35349 226.37132 219.72372Q226.94585 219.14919 227.73029 219.18234Q228.5037 219.20444 229.29918 219.99992Q230.07259 220.77333 230.10573 221.57986Q230.13887 222.36432 229.5754 222.9278Q229.03401 223.46918 228.24957 223.43602Q227.47617 223.39183 226.64754 222.56319ZM226.90164 220.20985Q226.61438 220.49712 226.66963 220.92801Q226.73592 221.34785 227.37674 221.98866Q227.95126 222.56319 228.38216 222.61844Q228.81305 222.67368 229.08926 222.39746Q229.36548 222.12125 229.31023 221.69035Q229.25499 221.25946 228.61417 220.61865Q228.0286 220.03308 227.60875 219.98888Q227.17786 219.93364 226.90164 220.20985Z" fill-rule="nonzero"/><path fill="#000000" d="M169.34895 242.03073Q168.2662 240.94797 167.83531 240.07513Q167.39337 239.19125 167.4707 238.4068Q167.5591 237.61131 168.222 236.9484Q168.70815 236.46227 169.27162 236.29654Q169.84615 236.11975 170.46486 236.25233Q171.07253 236.37387 171.73544 236.77162Q172.39836 237.16937 173.30434 238.07535Q174.37604 239.14705 174.80693 240.0199Q175.24889 240.88168 175.17154 241.68822Q175.09421 242.47267 174.42024 243.14662Q173.54741 244.01947 172.40941 243.89793Q171.06148 243.74326 169.34895 242.03073ZM170.11131 241.26837Q171.60286 242.75993 172.4536 242.90356Q173.30434 243.0472 173.81258 242.53896Q174.33185 242.01968 174.17717 241.18Q174.03354 240.32925 172.54199 238.83769Q171.03938 237.3351 170.19969 237.20251Q169.36 237.04784 168.82968 237.57816Q168.32144 238.0864 168.44298 238.82664Q168.6087 239.76578 170.11131 241.26837ZM177.7127 239.65529L176.86197 238.80455L177.7127 237.95381L178.56345 238.80455L177.7127 239.65529ZM174.17717 232.62842L173.45901 231.91026L177.3923 227.97697L177.97787 228.56255Q178.02206 229.7558 178.47505 231.35783Q178.92804 232.93777 179.70145 234.3299Q180.23177 235.32426 181.0825 236.28548L180.30911 237.05888Q179.602 236.32968 178.85071 235.04805Q178.11046 233.75537 177.66852 232.31906Q177.23763 230.8717 177.16028 229.64531L174.17717 232.62842ZM181.36977 230.0099Q180.28702 228.92715 179.85612 228.05432Q179.41418 227.17044 179.49152 226.38599Q179.57991 225.5905 180.24283 224.92758Q180.72896 224.44145 181.29243 224.27571Q181.86696 224.09894 182.48567 224.23152Q183.09335 224.35306 183.75626 224.75081Q184.41917 225.14854 185.32515 226.05453Q186.39687 227.12624 186.82776 227.99907Q187.2697 228.86086 187.19235 229.6674Q187.11502 230.45186 186.44106 231.12581Q185.56822 231.99864 184.43022 231.87712Q183.08229 231.72243 181.36977 230.0099ZM182.13213 229.24756Q183.62367 230.73912 184.47441 230.88275Q185.32515 231.02638 185.83339 230.51814Q186.35266 229.99886 186.19798 229.15918Q186.05435 228.30844 184.5628 226.81688Q183.0602 225.31429 182.2205 225.1817Q181.38083 225.02702 180.8505 225.55734Q180.34225 226.06558 180.46379 226.80583Q180.62952 227.74496 182.13213 229.24756ZM184.83902 223.29239Q184.18715 222.64053 184.05457 221.86713Q183.93303 221.08269 184.55176 220.46397Q185.12628 219.88945 185.91072 219.92259Q186.69518 219.95573 187.47961 220.74019Q188.25302 221.51358 188.28616 222.32013Q188.3193 223.10457 187.76688 223.657Q187.21445 224.20943 186.44106 224.16524Q185.66766 224.12103 184.83902 223.29239ZM185.08208 220.9501Q184.80586 221.22632 184.86111 221.65721Q184.9274 222.07706 185.56822 222.71786Q186.1538 223.30345 186.57364 223.36974Q186.99348 223.41393 187.2697 223.13771Q187.55696 222.85045 187.49066 222.4306Q187.43542 221.99971 186.80565 221.36995Q186.20903 220.77333 185.78918 220.72914Q185.35829 220.67389 185.08208 220.9501ZM190.97096 226.83897L187.89946 217.11626L188.50713 216.50859L191.58968 226.22026L190.97096 226.83897ZM191.95428 222.56319Q191.30241 221.91133 191.16983 221.13792Q191.0483 220.35349 191.67807 219.72371Q192.2526 219.14919 193.03703 219.18234Q193.81044 219.20444 194.60593 219.99992Q195.37933 220.77333 195.41248 221.57986Q195.44562 222.36432 194.88214 222.9278Q194.34076 223.46918 193.55632 223.43602Q192.78291 223.39183 191.95428 222.56319ZM192.20839 220.20985Q191.92113 220.49712 191.97638 220.92801Q192.04266 221.34785 192.68349 221.98866Q193.25801 222.56319 193.6889 222.61844Q194.1198 222.67368 194.39601 222.39746Q194.67223 222.12125 194.61697 221.69035Q194.56174 221.25946 193.92091 220.61865Q193.33534 220.03308 192.9155 219.98888Q192.4846 219.93364 192.20839 220.20985Z" fill-rule="nonzero"/><path fill="#000000" d="M134.6557 242.03073Q133.57295 240.94797 133.14206 240.07513Q132.70012 239.19125 132.77745 238.4068Q132.86584 237.61131 133.52875 236.9484Q134.0149 236.46227 134.57837 236.29652Q135.1529 236.11975 135.7716 236.25233Q136.37927 236.37387 137.04219 236.77162Q137.70511 237.16937 138.61108 238.07535Q139.68279 239.14705 140.11368 240.0199Q140.55563 240.88168 140.47829 241.68822Q140.40094 242.47267 139.72699 243.14662Q138.85416 244.01947 137.71616 243.89793Q136.36823 243.74326 134.6557 242.03073ZM135.41806 241.26837Q136.9096 242.75993 137.76035 242.90356Q138.61108 243.0472 139.11932 242.53896Q139.6386 242.01968 139.48392 241.18Q139.34029 240.32925 137.84874 238.83769Q136.34613 237.3351 135.50644 237.20251Q134.66675 237.04784 134.13643 237.57816Q133.62819 238.0864 133.74973 238.82664Q133.91545 239.76578 135.41806 241.26837ZM143.01945 239.65529L142.16872 238.80455L143.01945 237.95381L143.8702 238.80455L143.01945 239.65529ZM142.57751 233.5123Q141.93669 233.79956 141.39531 233.72221Q140.85394 233.62279 140.42305 233.1919Q139.76013 232.52898 139.78223 231.6009Q139.81537 230.66177 140.59982 229.87733Q141.39531 229.08183 142.34549 229.05974Q143.29567 229.03764 143.95857 229.70055Q144.37842 230.12039 144.46681 230.65073Q144.5552 231.18106 144.27899 231.81082Q145.01924 231.42412 145.7153 231.54565Q146.41136 231.66719 146.97484 232.23067Q147.74823 233.00406 147.72614 234.08682Q147.71509 235.15854 146.8091 236.06451Q145.91417 236.95944 144.83142 236.98154Q143.74866 237.00363 142.95316 236.20815Q142.35654 235.61153 142.2571 234.91547Q142.16872 234.20836 142.57751 233.5123ZM141.15225 232.3964Q141.58315 232.82729 142.13557 232.82729Q142.69905 232.81624 143.14099 232.3743Q143.57188 231.9434 143.58293 231.40202Q143.58293 230.8496 143.18518 230.45186Q142.77638 230.04306 142.2129 230.05411Q141.63838 230.05411 141.21854 230.47395Q140.78764 230.90485 140.7766 231.46832Q140.7766 232.02075 141.15225 232.3964ZM143.72656 235.43474Q144.04697 235.75516 144.4889 235.90984Q144.9419 236.05347 145.40594 235.92088Q145.86998 235.7883 146.21248 235.4458Q146.74281 234.91547 146.74281 234.23045Q146.75386 233.5344 146.22353 233.00406Q145.68214 232.46269 144.97505 232.46269Q144.26794 232.46269 143.72656 233.00406Q143.19623 233.5344 143.20728 234.23045Q143.20728 234.91547 143.72656 235.43474ZM146.67651 230.0099Q145.59377 228.92715 145.16287 228.05432Q144.72093 227.17044 144.79826 226.38599Q144.88666 225.5905 145.54958 224.92758Q146.0357 224.44144 146.59918 224.27571Q147.1737 224.09894 147.79242 224.23152Q148.40009 224.35306 149.063 224.75081Q149.72592 225.14854 150.6319 226.05453Q151.70361 227.12624 152.1345 227.99907Q152.57645 228.86086 152.4991 229.6674Q152.42177 230.45186 151.7478 231.12581Q150.87497 231.99864 149.73697 231.87712Q148.38904 231.72243 146.67651 230.0099ZM147.43887 229.24756Q148.93042 230.73912 149.78116 230.88275Q150.6319 231.02638 151.14014 230.51814Q151.65941 229.99886 151.50473 229.15918Q151.3611 228.30844 149.86955 226.81688Q148.36694 225.31429 147.52725 225.1817Q146.68758 225.02702 146.15724 225.55734Q145.649 226.06558 145.77054 226.80583Q145.93626 227.74496 147.43887 229.24756ZM150.14577 223.29239Q149.4939 222.64053 149.36131 221.86713Q149.23978 221.08269 149.8585 220.46397Q150.43303 219.88945 151.21747 219.92259Q152.00192 219.95573 152.78636 220.74019Q153.55977 221.51358 153.59291 222.32013Q153.62605 223.10457 153.07362 223.657Q152.5212 224.20943 151.7478 224.16524Q150.97441 224.12103 150.14577 223.29239ZM150.38882 220.9501Q150.11261 221.22632 150.16786 221.65721Q150.23415 222.07706 150.87497 222.71786Q151.46054 223.30345 151.88039 223.36974Q152.30023 223.41393 152.57645 223.13771Q152.86371 222.85045 152.79741 222.4306Q152.74217 221.99971 152.1124 221.36995Q151.51578 220.77333 151.09593 220.72914Q150.66504 220.67389 150.38882 220.9501ZM156.27771 226.83897L153.2062 217.11626L153.81387 216.50859L156.89642 226.22026L156.27771 226.83897ZM157.26103 222.56319Q156.60916 221.91133 156.47658 221.13792Q156.35504 220.35349 156.98482 219.72371Q157.55934 219.14919 158.34378 219.18234Q159.11719 219.20444 159.91267 219.99992Q160.68608 220.77333 160.71922 221.57986Q160.75237 222.36432 160.18889 222.9278Q159.6475 223.46918 158.86307 223.43602Q158.08966 223.39183 157.26103 222.56319ZM157.51514 220.20985Q157.22787 220.49712 157.28313 220.92801Q157.34941 221.34785 157.99023 221.98866Q158.56476 222.56319 158.99565 222.61844Q159.42654 222.67368 159.70276 222.39746Q159.97897 222.12125 159.92372 221.69035Q159.86848 221.25946 159.22766 220.61865Q158.64209 220.03308 158.22224 219.98888Q157.79135 219.93364 157.51514 220.20985Z" fill-rule="nonzero"/><path fill="#000000" d="M99.962456 242.03073Q98.87969 240.94797 98.4488 240.07513Q98.00686 239.19125 98.0842 238.4068Q98.172585 237.61131 98.8355 236.9484Q99.32164 236.46227 99.88511 236.29652Q100.45964 236.11975 101.078354 236.25233Q101.68603 236.37387 102.34894 236.77162Q103.01185 237.16937 103.91783 238.07535Q104.98954 239.14705 105.42043 240.0199Q105.86237 240.88168 105.785034 241.68822Q105.707695 242.47267 105.03374 243.14662Q104.1609 244.01947 103.022896 243.89793Q101.67498 243.74326 99.962456 242.03073ZM100.7248 241.26837Q102.216354 242.75993 103.06709 242.90356Q103.91783 243.0472 104.42606 242.53896Q104.94534 242.01968 104.790665 241.18Q104.64703 240.32925 103.15548 238.83769Q101.65288 237.3351 100.81319 237.20251Q99.9735 237.04784 99.44317 237.57816Q98.93494 238.0864 99.05647 238.82664Q99.2222 239.76578 100.7248 241.26837ZM108.3262 239.65529L107.475464 238.80455L108.3262 237.95381L109.17694 238.80455L108.3262 239.65529ZM108.73499 236.44016L109.386856 235.65572Q109.98348 236.07556 110.46962 236.05347Q110.95575 236.00926 111.3535 235.61153Q111.69601 235.26901 111.79544 234.86021Q111.89488 234.42932 111.80649 234.00948Q111.707054 233.57858 111.375595 233.02617Q111.0331 232.46269 110.56905 231.99864Q110.51381 231.9434 110.414375 231.84396Q110.54696 232.41849 110.39228 233.03722Q110.22655 233.64488 109.77356 234.09787Q109.01121 234.86021 107.95055 234.83812Q106.87884 234.80498 105.98391 233.91005Q105.05583 232.98196 105.03374 231.87712Q105.02268 230.76122 105.84028 229.94362Q106.42585 229.35805 107.23239 229.19232Q108.04999 229.01553 108.90073 229.35805Q109.74041 229.6895 110.856316 230.8054Q112.01641 231.9655 112.45835 232.91568Q112.9003 233.84375 112.75667 234.71658Q112.61304 235.56732 111.95012 236.23024Q111.231964 236.9484 110.39228 237.01468Q109.54154 237.06993 108.73499 236.44016ZM109.099594 230.70596Q108.458786 230.06516 107.74062 230.03201Q107.03352 229.98781 106.547386 230.47395Q106.0502 230.97113 106.08334 231.75558Q106.11649 232.51793 106.76836 233.1698Q107.34288 233.74432 108.061035 233.75537Q108.77919 233.76642 109.28742 233.25818Q109.8067 232.7389 109.77356 232.04285Q109.74041 231.34679 109.099594 230.70596ZM111.98327 230.0099Q110.90051 228.92715 110.46962 228.05432Q110.02767 227.17044 110.10502 226.38599Q110.193405 225.5905 110.856316 224.92758Q111.34245 224.44144 111.90593 224.27571Q112.48045 224.09894 113.09917 224.23152Q113.70684 224.35306 114.36975 224.75081Q115.03267 225.14854 115.938644 226.05453Q117.01035 227.12624 117.441246 227.99907Q117.88319 228.86086 117.80585 229.6674Q117.72851 230.45186 117.05455 231.12581Q116.18172 231.99864 115.04372 231.87712Q113.69579 231.72243 111.98327 230.0099ZM112.74562 229.24756Q114.23717 230.73912 115.087906 230.88275Q115.938644 231.02638 116.44688 230.51814Q116.96616 229.99886 116.81148 229.15918Q116.66785 228.30844 115.1763 226.81688Q113.6737 225.31429 112.83401 225.1817Q111.994316 225.02702 111.46399 225.55734Q110.95575 226.06558 111.077286 226.80583Q111.24301 227.74496 112.74562 229.24756ZM115.45251 223.29239Q114.800644 222.64053 114.66806 221.86713Q114.54653 221.08269 115.165245 220.46397Q115.73977 219.88945 116.524216 219.92259Q117.30866 219.95573 118.09311 220.74019Q118.86651 221.51358 118.89966 222.32013Q118.9328 223.10457 118.38037 223.657Q117.82795 224.20943 117.05455 224.16524Q116.28115 224.12103 115.45251 223.29239ZM115.69558 220.9501Q115.419365 221.22632 115.47461 221.65721Q115.5409 222.07706 116.18172 222.71786Q116.76729 223.30345 117.18713 223.36974Q117.60698 223.41393 117.88319 223.13771Q118.17045 222.85045 118.104164 222.4306Q118.04892 221.99971 117.41915 221.36995Q116.82253 220.77333 116.40269 220.72913Q115.971794 220.67389 115.69558 220.9501ZM121.58445 226.83897L118.512955 217.11626L119.12063 216.50859L122.20317 226.22026L121.58445 226.83897ZM122.56777 222.56319Q121.91591 221.91133 121.783325 221.13792Q121.66179 220.35349 122.29156 219.72371Q122.86608 219.14919 123.65053 219.18234Q124.42393 219.20444 125.21942 219.99992Q125.99282 220.77333 126.02596 221.57986Q126.05911 222.36432 125.495636 222.9278Q124.954254 223.46918 124.16981 223.43602Q123.396416 223.39183 122.56777 222.56319ZM122.82189 220.20985Q122.53463 220.49712 122.58987 220.92801Q122.65616 221.34785 123.296974 221.98866Q123.8715 222.56319 124.30239 222.61844Q124.733284 222.67368 125.0095 222.39746Q125.28571 222.12125 125.23047 221.69035Q125.17523 221.25946 124.53442 220.61865Q123.94884 220.03308 123.52899 219.98888Q123.0981 219.93364 122.82189 220.20985Z" fill-rule="nonzero"/><path fill="#000000" d="M71.06969 242.21855L70.32943 242.9588L65.57856 238.20793Q65.556465 238.73827 65.379684 239.44536Q65.20291 240.13037 64.98194 240.59442L64.26378 239.87627Q64.58419 238.95923 64.639435 238.0864Q64.69467 237.19147 64.495804 236.59485L64.97089 236.11975L71.06969 242.21855ZM73.63295 239.65529L72.78221 238.80455L73.63295 237.95381L74.48369 238.80455L73.63295 239.65529ZM72.34027 234.95966Q71.25751 233.8769 70.826614 233.00406Q70.384674 232.12018 70.46201 231.33574Q70.5504 230.54024 71.21332 229.87733Q71.699455 229.39119 72.262924 229.22546Q72.83745 229.04869 73.45617 229.18127Q74.06384 229.3028 74.72675 229.70055Q75.38966 230.0983 76.29565 231.00427Q77.367355 232.07599 77.79825 232.94882Q78.24019 233.81061 78.16285 234.61716Q78.08551 235.4016 77.41155 236.07556Q76.53871 236.9484 75.40071 236.82686Q74.052795 236.67218 72.34027 234.95966ZM73.102615 234.19731Q74.59417 235.68886 75.44491 235.83249Q76.29565 235.97612 76.80388 235.4679Q77.32316 234.94861 77.16848 234.10892Q77.02485 233.25818 75.533295 231.76663Q74.03069 230.26402 73.191 230.13144Q72.35132 229.97676 71.820984 230.5071Q71.31275 231.01532 71.43429 231.75558Q71.60001 232.6947 73.102615 234.19731ZM77.290016 230.0099Q76.20726 228.92715 75.77637 228.05432Q75.33442 227.17044 75.411766 226.38599Q75.50015 225.5905 76.16306 224.92758Q76.6492 224.44144 77.21268 224.27571Q77.7872 224.09894 78.405914 224.23152Q79.01359 224.35306 79.6765 224.75081Q80.33942 225.14854 81.24539 226.05453Q82.3171 227.12624 82.74799 227.99907Q83.18993 228.86086 83.112595 229.6674Q83.035255 230.45186 82.3613 231.12581Q81.488464 231.99864 80.350464 231.87712Q79.00254 231.72243 77.290016 230.0099ZM78.05237 229.24756Q79.543915 230.73912 80.39465 230.88275Q81.24539 231.02638 81.753624 230.51814Q82.27291 229.99886 82.118225 229.15916Q81.974594 228.30844 80.48305 226.81688Q78.98044 225.31429 78.140755 225.1817Q77.30106 225.02702 76.77074 225.55734Q76.2625 226.06558 76.38403 226.80583Q76.54976 227.74496 78.05237 229.24756ZM80.759254 223.29239Q80.10739 222.64053 79.97481 221.86713Q79.85328 221.08269 80.47199 220.46397Q81.04652 219.88945 81.83096 219.92259Q82.61541 219.95573 83.39986 220.74019Q84.173256 221.51358 84.206406 222.32013Q84.23955 223.10457 83.68712 223.657Q83.1347 224.20943 82.3613 224.16524Q81.5879 224.12103 80.759254 223.29239ZM81.00233 220.9501Q80.72611 221.22632 80.78136 221.65721Q80.84765 222.07706 81.488464 222.71786Q82.074036 223.30344 82.49388 223.36974Q82.91373 223.41393 83.18993 223.13771Q83.477196 222.85045 83.41091 222.4306Q83.35567 221.99971 82.7259 221.36995Q82.12928 220.77333 81.709435 220.72913Q81.27854 220.67389 81.00233 220.9501ZM86.8912 226.83897L83.8197 217.11626L84.427376 216.50859L87.50992 226.22026L86.8912 226.83897ZM87.87452 222.56319Q87.22266 221.91133 87.09007 221.13792Q86.96854 220.35349 87.598305 219.72371Q88.17283 219.14919 88.957275 219.18234Q89.730675 219.20444 90.52617 219.99992Q91.29957 220.77333 91.33271 221.57986Q91.36586 222.36432 90.80238 222.9278Q90.261 223.46918 89.476555 223.43602Q88.70316 223.39183 87.87452 222.56319ZM88.12864 220.20985Q87.84138 220.49712 87.896614 220.92801Q87.962906 221.34785 88.60372 221.98866Q89.178246 222.56319 89.60914 222.61844Q90.04003 222.67368 90.316246 222.39746Q90.59246 222.12125 90.53722 221.69035Q90.48198 221.25946 89.84116 220.61865Q89.255585 220.03308 88.83574 219.98888Q88.40485 219.93364 88.12864 220.20985Z" fill-rule="nonzero"/><path fill="#4285f4" d="M122.5 55.083332C122.5 58.39704 119.813705 61.083332 116.5 61.083332C113.186295 61.083332 110.5 58.39704 110.5 55.083332C110.5 51.769627 113.186295 49.083332 116.5 49.083332C119.813705 49.083332 122.5 51.769627 122.5 55.083332Z" fill-rule="nonzero"/><path fill="#1a1a1a" d="M135.35938 58.317707Q134.76562 58.817707 134.21875 59.020832Q133.6875 59.223957 133.0625 59.223957Q132.03125 59.223957 131.48438 58.723957Q130.9375 58.223957 130.9375 57.442707Q130.9375 56.989582 131.14062 56.614582Q131.34375 56.223957 131.6875 56.005207Q132.03125 55.770832 132.45312 55.661457Q132.75 55.567707 133.39062 55.489582Q134.65625 55.348957 135.26562 55.130207Q135.26562 54.911457 135.26562 54.864582Q135.26562 54.208332 134.96875 53.942707Q134.5625 53.598957 133.76562 53.598957Q133.03125 53.598957 132.67188 53.864582Q132.3125 54.114582 132.14062 54.770832L131.10938 54.630207Q131.25 53.973957 131.57812 53.567707Q131.90625 53.161457 132.51562 52.942707Q133.125 52.723957 133.92188 52.723957Q134.71875 52.723957 135.21875 52.911457Q135.71875 53.098957 135.95312 53.380207Q136.1875 53.661457 136.28125 54.098957Q136.32812 54.364582 136.32812 55.067707L136.32812 56.473957Q136.32812 57.942707 136.39062 58.333332Q136.46875 58.723957 136.67188 59.083332L135.5625 59.083332Q135.40625 58.755207 135.35938 58.317707ZM135.26562 55.958332Q134.6875 56.192707 133.54688 56.364582Q132.89062 56.458332 132.625 56.583332Q132.35938 56.692707 132.20312 56.911457Q132.0625 57.130207 132.0625 57.411457Q132.0625 57.833332 132.375 58.114582Q132.70312 58.395832 133.3125 58.395832Q133.92188 58.395832 134.39062 58.130207Q134.875 57.864582 135.09375 57.395832Q135.26562 57.036457 135.26562 56.348957L135.26562 55.958332ZM138.29688 61.473957L138.29688 52.864582L139.25 52.864582L139.25 53.661457Q139.59375 53.192707 140.01562 52.958332Q140.45312 52.723957 141.0625 52.723957Q141.85938 52.723957 142.46875 53.130207Q143.07812 53.536457 143.375 54.286457Q143.6875 55.036457 143.6875 55.927082Q143.6875 56.880207 143.34375 57.645832Q143.01562 58.411457 142.35938 58.817707Q141.70312 59.223957 140.98438 59.223957Q140.45312 59.223957 140.03125 59.005207Q139.60938 58.770832 139.34375 58.442707L139.34375 61.473957L138.29688 61.473957ZM139.25 56.005207Q139.25 57.208332 139.73438 57.786457Q140.21875 58.348957 140.90625 58.348957Q141.60938 58.348957 142.10938 57.755207Q142.60938 57.161457 142.60938 55.911457Q142.60938 54.723957 142.125 54.145832Q141.64062 53.552082 140.95312 53.552082Q140.28125 53.552082 139.76562 54.177082Q139.25 54.802082 139.25 56.005207ZM145.28125 59.083332L145.28125 52.864582L146.23438 52.864582L146.23438 53.802082Q146.59375 53.145832 146.89062 52.942707Q147.20312 52.723957 147.57812 52.723957Q148.10938 52.723957 148.65625 53.052082L148.29688 54.036457Q147.90625 53.802082 147.53125 53.802082Q147.17188 53.802082 146.89062 54.020832Q146.625 54.223957 146.51562 54.598957Q146.32812 55.161457 146.32812 55.817707L146.32812 59.083332L145.28125 59.083332ZM149.29688 51.708332L149.29688 50.489582L150.35938 50.489582L150.35938 51.708332L149.29688 51.708332ZM149.29688 59.083332L149.29688 52.864582L150.35938 52.864582L150.35938 59.083332L149.29688 59.083332ZM151.90625 55.973957Q151.90625 54.239582 152.85938 53.411457Q153.65625 52.723957 154.8125 52.723957Q156.09375 52.723957 156.90625 53.567707Q157.73438 54.395832 157.73438 55.880207Q157.73438 57.083332 157.375 57.770832Q157.01562 58.458332 156.3125 58.848957Q155.625 59.223957 154.8125 59.223957Q153.51562 59.223957 152.70312 58.395832Q151.90625 57.552082 151.90625 55.973957ZM152.98438 55.973957Q152.98438 57.161457 153.5 57.755207Q154.03125 58.348957 154.8125 58.348957Q155.60938 58.348957 156.125 57.755207Q156.64062 57.161457 156.64062 55.942707Q156.64062 54.786457 156.10938 54.192707Q155.59375 53.598957 154.8125 53.598957Q154.03125 53.598957 153.5 54.192707Q152.98438 54.770832 152.98438 55.973957ZM159.28125 59.083332L159.28125 52.864582L160.23438 52.864582L160.23438 53.802082Q160.59375 53.145832 160.89062 52.942707Q161.20312 52.723957 161.57812 52.723957Q162.10938 52.723957 162.65625 53.052082L162.29688 54.036457Q161.90625 53.802082 161.53125 53.802082Q161.17188 53.802082 160.89062 54.020832Q160.625 54.223957 160.51562 54.598957Q160.32812 55.161457 160.32812 55.817707L160.32812 59.083332L159.28125 59.083332ZM163.29688 51.708332L163.29688 50.489582L164.35938 50.489582L164.35938 51.708332L163.29688 51.708332ZM163.29688 59.083332L163.29688 52.864582L164.35938 52.864582L164.35938 59.083332L163.29688 59.083332Z" fill-rule="nonzero"/><path fill="#ea4335" d="M187.5 49.083332L192.69615 58.083332L182.30385 58.083332Z" fill-rule="nonzero"/><path fill="#1a1a1a" d="M206.54688 57.083332L207.64062 57.208332Q207.39062 58.161457 206.6875 58.692707Q205.98438 59.223957 204.90625 59.223957Q203.54688 59.223957 202.73438 58.380207Q201.9375 57.536457 201.9375 56.020832Q201.9375 54.458332 202.75 53.598957Q203.5625 52.723957 204.84375 52.723957Q206.09375 52.723957 206.875 53.567707Q207.67188 54.411457 207.67188 55.958332Q207.67188 56.052082 207.67188 56.239582L203.03125 56.239582Q203.09375 57.270832 203.60938 57.817707Q204.125 58.348957 204.90625 58.348957Q205.48438 58.348957 205.89062 58.052082Q206.3125 57.739582 206.54688 57.083332ZM203.09375 55.380207L206.5625 55.380207Q206.5 54.583332 206.17188 54.192707Q205.65625 53.583332 204.85938 53.583332Q204.125 53.583332 203.625 54.067707Q203.14062 54.552082 203.09375 55.380207ZM213.35938 56.802082L214.39062 56.942707Q214.21875 58.005207 213.51562 58.614582Q212.8125 59.223957 211.79688 59.223957Q210.51562 59.223957 209.73438 58.395832Q208.96875 57.552082 208.96875 55.989582Q208.96875 54.989582 209.29688 54.239582Q209.64062 53.473957 210.3125 53.098957Q211.0 52.723957 211.8125 52.723957Q212.8125 52.723957 213.45312 53.239582Q214.10938 53.739582 214.29688 54.692707L213.26562 54.848957Q213.125 54.223957 212.75 53.911457Q212.375 53.583332 211.84375 53.583332Q211.04688 53.583332 210.54688 54.161457Q210.04688 54.723957 210.04688 55.958332Q210.04688 57.223957 210.53125 57.786457Q211.01562 58.348957 211.78125 58.348957Q212.40625 58.348957 212.8125 57.973957Q213.23438 57.598957 213.35938 56.802082ZM215.26562 59.083332L215.26562 50.489582L216.32812 50.489582L216.32812 59.083332L215.26562 59.083332ZM222.35938 58.317707Q221.76562 58.817707 221.21875 59.020832Q220.6875 59.223957 220.0625 59.223957Q219.03125 59.223957 218.48438 58.723957Q217.9375 58.223957 217.9375 57.442707Q217.9375 56.989582 218.14062 56.614582Q218.34375 56.223957 218.6875 56.005207Q219.03125 55.770832 219.45312 55.661457Q219.75 55.567707 220.39062 55.489582Q221.65625 55.348957 222.26562 55.130207Q222.26562 54.911457 222.26562 54.864582Q222.26562 54.208332 221.96875 53.942707Q221.5625 53.598957 220.76562 53.598957Q220.03125 53.598957 219.67188 53.864582Q219.3125 54.114582 219.14062 54.770832L218.10938 54.630207Q218.25 53.973957 218.57812 53.567707Q218.90625 53.161457 219.51562 52.942707Q220.125 52.723957 220.92188 52.723957Q221.71875 52.723957 222.21875 52.911457Q222.71875 53.098957 222.95312 53.380207Q223.1875 53.661457 223.28125 54.098957Q223.32812 54.364582 223.32812 55.067707L223.32812 56.473957Q223.32812 57.942707 223.39062 58.333332Q223.46875 58.723957 223.67188 59.083332L222.5625 59.083332Q222.40625 58.755207 222.35938 58.317707ZM222.26562 55.958332Q221.6875 56.192707 220.54688 56.364582Q219.89062 56.458332 219.625 56.583332Q219.35938 56.692707 219.20312 56.911457Q219.0625 57.130207 219.0625 57.411457Q219.0625 57.833332 219.375 58.114582Q219.70312 58.395832 220.3125 58.395832Q220.92188 58.395832 221.39062 58.130207Q221.875 57.864582 222.09375 57.395832Q222.26562 57.036457 222.26562 56.348957L222.26562 55.958332ZM227.59375 58.145832L227.75 59.067707Q227.29688 59.161457 226.95312 59.161457Q226.375 59.161457 226.0625 58.989582Q225.75 58.802082 225.60938 58.505207Q225.48438 58.208332 225.48438 57.255207L225.48438 53.677082L224.71875 53.677082L224.71875 52.864582L225.48438 52.864582L225.48438 51.317707L226.53125 50.692707L226.53125 52.864582L227.59375 52.864582L227.59375 53.677082L226.53125 53.677082L226.53125 57.317707Q226.53125 57.770832 226.57812 57.895832Q226.64062 58.020832 226.76562 58.098957Q226.89062 58.177082 227.125 58.177082Q227.3125 58.177082 227.59375 58.145832Z" fill-rule="nonzero"/><path fill="#fbbc04" d="M245.25735 50.840694L253.74265 50.840694L253.74265 59.325974L245.25735 59.325974Z" fill-rule="nonzero"/><path fill="#1a1a1a" d="M264.54688 59.083332L264.54688 53.677082L263.60938 53.677082L263.60938 52.864582L264.54688 52.864582L264.54688 52.192707Q264.54688 51.567707 264.65625 51.270832Q264.8125 50.848957 265.1875 50.598957Q265.57812 50.348957 266.26562 50.348957Q266.71875 50.348957 267.25 50.458332L267.09375 51.364582Q266.76562 51.317707 266.46875 51.317707Q265.98438 51.317707 265.78125 51.520832Q265.59375 51.723957 265.59375 52.286457L265.59375 52.864582L266.8125 52.864582L266.8125 53.677082L265.59375 53.677082L265.59375 59.083332L264.54688 59.083332ZM267.29688 61.473957L267.29688 52.864582L268.25 52.864582L268.25 53.661457Q268.59375 53.192707 269.01562 52.958332Q269.45312 52.723957 270.0625 52.723957Q270.85938 52.723957 271.46875 53.130207Q272.07812 53.536457 272.375 54.286457Q272.6875 55.036457 272.6875 55.927082Q272.6875 56.880207 272.34375 57.645832Q272.01562 58.411457 271.35938 58.817707Q270.70312 59.223957 269.98438 59.223957Q269.45312 59.223957 269.03125 59.005207Q268.60938 58.770832 268.34375 58.442707L268.34375 61.473957L267.29688 61.473957ZM268.25 56.005207Q268.25 57.208332 268.73438 57.786457Q269.21875 58.348957 269.90625 58.348957Q270.60938 58.348957 271.10938 57.755207Q271.60938 57.161457 271.60938 55.911457Q271.60938 54.723957 271.125 54.145832Q270.64062 53.552082 269.95312 53.552082Q269.28125 53.552082 268.76562 54.177082Q268.25 54.802082 268.25 56.005207ZM274.09375 59.598957L275.125 59.755207Q275.1875 60.223957 275.48438 60.442707Q275.875 60.739582 276.54688 60.739582Q277.28125 60.739582 277.67188 60.442707Q278.07812 60.145832 278.21875 59.630207Q278.3125 59.302082 278.29688 58.270832Q277.60938 59.083332 276.57812 59.083332Q275.29688 59.083332 274.59375 58.161457Q273.89062 57.223957 273.89062 55.942707Q273.89062 55.052082 274.20312 54.302082Q274.53125 53.536457 275.14062 53.130207Q275.75 52.723957 276.57812 52.723957Q277.6875 52.723957 278.40625 53.614582L278.40625 52.864582L279.375 52.864582L279.375 58.239582Q279.375 59.692707 279.07812 60.302082Q278.78125 60.911457 278.14062 61.255207Q277.5 61.614582 276.5625 61.614582Q275.45312 61.614582 274.76562 61.114582Q274.07812 60.614582 274.09375 59.598957ZM274.96875 55.864582Q274.96875 57.083332 275.45312 57.645832Q275.9375 58.208332 276.67188 58.208332Q277.40625 58.208332 277.89062 57.645832Q278.39062 57.083332 278.39062 55.895832Q278.39062 54.755207 277.875 54.177082Q277.375 53.598957 276.65625 53.598957Q275.95312 53.598957 275.45312 54.177082Q274.96875 54.739582 274.96875 55.864582ZM281.28125 59.083332L281.28125 52.864582L282.23438 52.864582L282.23438 53.802082Q282.59375 53.145832 282.89062 52.942707Q283.20312 52.723957 283.57812 52.723957Q284.10938 52.723957 284.65625 53.052082L284.29688 54.036457Q283.90625 53.802082 283.53125 53.802082Q283.17188 53.802082 282.89062 54.020832Q282.625 54.223957 282.51562 54.598957Q282.32812 55.161457 282.32812 55.817707L282.32812 59.083332L281.28125 59.083332ZM284.90625 55.973957Q284.90625 54.239582 285.85938 53.411457Q286.65625 52.723957 287.8125 52.723957Q289.09375 52.723957 289.90625 53.567707Q290.73438 54.395832 290.73438 55.880207Q290.73438 57.083332 290.375 57.770832Q290.01562 58.458332 289.3125 58.848957Q288.625 59.223957 287.8125 59.223957Q286.51562 59.223957 285.70312 58.395832Q284.90625 57.552082 284.90625 55.973957ZM285.98438 55.973957Q285.98438 57.161457 286.5 57.755207Q287.03125 58.348957 287.8125 58.348957Q288.60938 58.348957 289.125 57.755207Q289.64062 57.161457 289.64062 55.942707Q289.64062 54.786457 289.10938 54.192707Q288.59375 53.598957 287.8125 53.598957Q287.03125 53.598957 286.5 54.192707Q285.98438 54.770832 285.98438 55.973957ZM293.4375 59.083332L291.53125 52.864582L292.625 52.864582L293.60938 56.458332L293.98438 57.786457Q294.01562 57.692707 294.3125 56.505207L295.29688 52.864582L296.375 52.864582L297.3125 56.473957L297.625 57.661457L297.98438 56.458332L299.04688 52.864582L300.07812 52.864582L298.125 59.083332L297.03125 59.083332L296.04688 55.348957L295.79688 54.302082L294.54688 59.083332L293.4375 59.083332ZM303.59375 58.145832L303.75 59.067707Q303.29688 59.161457 302.95312 59.161457Q302.375 59.161457 302.0625 58.989582Q301.75 58.802082 301.60938 58.505207Q301.48438 58.208332 301.48438 57.255207L301.48438 53.677082L300.71875 53.677082L300.71875 52.864582L301.48438 52.864582L301.48438 51.317707L302.53125 50.692707L302.53125 52.864582L303.59375 52.864582L303.59375 53.677082L302.53125 53.677082L302.53125 57.317707Q302.53125 57.770832 302.57812 57.895832Q302.64062 58.020832 302.76562 58.098957Q302.89062 58.177082 303.125 58.177082Q303.3125 58.177082 303.59375 58.145832ZM304.29688 59.083332L304.29688 50.489582L305.34375 50.489582L305.34375 53.567707Q306.07812 52.723957 307.20312 52.723957Q307.90625 52.723957 308.40625 53.005207Q308.92188 53.270832 309.14062 53.755207Q309.35938 54.223957 309.35938 55.145832L309.35938 59.083332L308.3125 59.083332L308.3125 55.145832Q308.3125 54.348957 307.96875 53.989582Q307.625 53.630207 307.0 53.630207Q306.53125 53.630207 306.10938 53.880207Q305.70312 54.114582 305.51562 54.536457Q305.34375 54.942707 305.34375 55.677082L305.34375 59.083332L304.29688 59.083332Z" fill-rule="nonzero"/><path fill="#757575" d="M139.04688 33.45L139.04688 32.1375Q138.0625 33.684376 136.14062 33.684376Q134.90625 33.684376 133.85938 32.996876Q132.82812 32.309376 132.25 31.090626Q131.6875 29.871876 131.6875 28.278126Q131.6875 26.715626 132.20312 25.45Q132.71875 24.184376 133.75 23.5125Q134.79688 22.840626 136.0625 22.840626Q137.0 22.840626 137.73438 23.246876Q138.46875 23.6375 138.9375 24.2625L138.9375 19.1375L140.67188 19.1375L140.67188 33.45L139.04688 33.45ZM133.48438 28.278126Q133.48438 30.2625 134.32812 31.246876Q135.17188 32.23125 136.3125 32.23125Q137.46875 32.23125 138.26562 31.29375Q139.07812 30.35625 139.07812 28.41875Q139.07812 26.29375 138.25 25.29375Q137.4375 24.29375 136.23438 24.29375Q135.0625 24.29375 134.26562 25.2625Q133.48438 26.215626 133.48438 28.278126ZM150.09375 32.16875Q149.10938 32.996876 148.20312 33.340626Q147.29688 33.684376 146.26562 33.684376Q144.5625 33.684376 143.64062 32.85625Q142.71875 32.0125 142.71875 30.715626Q142.71875 29.95 143.0625 29.325Q143.42188 28.7 143.98438 28.325Q144.54688 27.934376 145.25 27.73125Q145.76562 27.60625 146.8125 27.465626Q148.9375 27.215626 149.9375 26.871876Q149.95312 26.5125 149.95312 26.403126Q149.95312 25.340626 149.45312 24.8875Q148.78125 24.29375 147.45312 24.29375Q146.20312 24.29375 145.60938 24.73125Q145.03125 25.16875 144.75 26.278126L143.03125 26.04375Q143.26562 24.934376 143.79688 24.2625Q144.32812 23.575 145.34375 23.215626Q146.35938 22.840626 147.70312 22.840626Q149.03125 22.840626 149.85938 23.153126Q150.6875 23.465626 151.07812 23.95Q151.46875 24.41875 151.625 25.1375Q151.71875 25.590626 151.71875 26.7625L151.71875 29.10625Q151.71875 31.559376 151.82812 32.215626Q151.9375 32.85625 152.28125 33.45L150.4375 33.45Q150.17188 32.903126 150.09375 32.16875ZM149.9375 28.246876Q148.98438 28.6375 147.0625 28.903126Q145.98438 29.059376 145.53125 29.2625Q145.09375 29.45 144.84375 29.825Q144.59375 30.2 144.59375 30.66875Q144.59375 31.371876 145.125 31.840626Q145.65625 32.309376 146.6875 32.309376Q147.70312 32.309376 148.48438 31.871876Q149.28125 31.41875 149.65625 30.653126Q149.9375 30.04375 149.9375 28.8875L149.9375 28.246876ZM158.15625 31.871876L158.40625 33.434376Q157.67188 33.590626 157.07812 33.590626Q156.125 33.590626 155.59375 33.29375Q155.07812 32.98125 154.85938 32.496876Q154.64062 31.996876 154.64062 30.41875L154.64062 24.45L153.35938 24.45L153.35938 23.075L154.64062 23.075L154.64062 20.5125L156.39062 19.45L156.39062 23.075L158.15625 23.075L158.15625 24.45L156.39062 24.45L156.39062 30.5125Q156.39062 31.2625 156.48438 31.48125Q156.57812 31.684376 156.78125 31.825Q157.0 31.95 157.39062 31.95Q157.67188 31.95 158.15625 31.871876ZM167.09375 32.16875Q166.10938 32.996876 165.20312 33.340626Q164.29688 33.684376 163.26562 33.684376Q161.5625 33.684376 160.64062 32.85625Q159.71875 32.0125 159.71875 30.715626Q159.71875 29.95 160.0625 29.325Q160.42188 28.7 160.98438 28.325Q161.54688 27.934376 162.25 27.73125Q162.76562 27.60625 163.8125 27.465626Q165.9375 27.215626 166.9375 26.871876Q166.95312 26.5125 166.95312 26.403126Q166.95312 25.340626 166.45312 24.8875Q165.78125 24.29375 164.45312 24.29375Q163.20312 24.29375 162.60938 24.73125Q162.03125 25.16875 161.75 26.278126L160.03125 26.04375Q160.26562 24.934376 160.79688 24.2625Q161.32812 23.575 162.34375 23.215626Q163.35938 22.840626 164.70312 22.840626Q166.03125 22.840626 166.85938 23.153126Q167.6875 23.465626 168.07812 23.95Q168.46875 24.41875 168.625 25.1375Q168.71875 25.590626 168.71875 26.7625L168.71875 29.10625Q168.71875 31.559376 168.82812 32.215626Q168.9375 32.85625 169.28125 33.45L167.4375 33.45Q167.17188 32.903126 167.09375 32.16875ZM166.9375 28.246876Q165.98438 28.6375 164.0625 28.903126Q162.98438 29.059376 162.53125 29.2625Q162.09375 29.45 161.84375 29.825Q161.59375 30.2 161.59375 30.66875Q161.59375 31.371876 162.125 31.840626Q162.65625 32.309376 163.6875 32.309376Q164.70312 32.309376 165.48438 31.871876Q166.28125 31.41875 166.65625 30.653126Q166.9375 30.04375 166.9375 28.8875L166.9375 28.246876ZM170.60938 30.35625L172.35938 30.075Q172.5 31.121876 173.17188 31.684376Q173.84375 32.23125 175.04688 32.23125Q176.25 32.23125 176.82812 31.746876Q177.42188 31.246876 177.42188 30.590626Q177.42188 29.996876 176.90625 29.653126Q176.54688 29.41875 175.10938 29.059376Q173.17188 28.559376 172.42188 28.215626Q171.6875 27.85625 171.29688 27.23125Q170.90625 26.590626 170.90625 25.825Q170.90625 25.1375 171.21875 24.54375Q171.54688 23.95 172.09375 23.559376Q172.5 23.2625 173.20312 23.059376Q173.92188 22.840626 174.73438 22.840626Q175.95312 22.840626 176.875 23.2Q177.79688 23.54375 178.23438 24.153126Q178.67188 24.746876 178.84375 25.746876L177.125 25.98125Q177.0 25.184376 176.4375 24.746876Q175.875 24.29375 174.85938 24.29375Q173.64062 24.29375 173.125 24.7Q172.60938 25.090626 172.60938 25.621876Q172.60938 25.965626 172.82812 26.246876Q173.03125 26.528126 173.5 26.715626Q173.76562 26.809376 175.04688 27.153126Q176.92188 27.653126 177.65625 27.98125Q178.39062 28.29375 178.8125 28.903126Q179.23438 29.496876 179.23438 30.403126Q179.23438 31.278126 178.71875 32.059376Q178.20312 32.840626 177.23438 33.2625Q176.26562 33.684376 175.04688 33.684376Q173.03125 33.684376 171.96875 32.840626Q170.90625 31.996876 170.60938 30.35625ZM188.42188 30.10625L190.23438 30.340626Q189.8125 31.91875 188.64062 32.809376Q187.48438 33.684376 185.67188 33.684376Q183.40625 33.684376 182.0625 32.29375Q180.73438 30.8875 180.73438 28.35625Q180.73438 25.73125 182.07812 24.29375Q183.42188 22.840626 185.57812 22.840626Q187.65625 22.840626 188.96875 24.2625Q190.29688 25.66875 190.29688 28.246876Q190.29688 28.403126 190.28125 28.715626L182.54688 28.715626Q182.64062 30.41875 183.51562 31.325Q184.39062 32.23125 185.6875 32.23125Q186.65625 32.23125 187.32812 31.73125Q188.01562 31.215626 188.42188 30.10625ZM182.64062 27.2625L188.4375 27.2625Q188.32812 25.965626 187.78125 25.309376Q186.9375 24.29375 185.59375 24.29375Q184.39062 24.29375 183.5625 25.10625Q182.73438 25.903126 182.64062 27.2625ZM196.15625 31.871876L196.40625 33.434376Q195.67188 33.590626 195.07812 33.590626Q194.125 33.590626 193.59375 33.29375Q193.07812 32.98125 192.85938 32.496876Q192.64062 31.996876 192.64062 30.41875L192.64062 24.45L191.35938 24.45L191.35938 23.075L192.64062 23.075L192.64062 20.5125L194.39062 19.45L194.39062 23.075L196.15625 23.075L196.15625 24.45L194.39062 24.45L194.39062 30.5125Q194.39062 31.2625 194.48438 31.48125Q194.57812 31.684376 194.78125 31.825Q195.0 31.95 195.39062 31.95Q195.67188 31.95 196.15625 31.871876ZM197.60938 30.35625L199.35938 30.075Q199.5 31.121876 200.17188 31.684376Q200.84375 32.23125 202.04688 32.23125Q203.25 32.23125 203.82812 31.746876Q204.42188 31.246876 204.42188 30.590626Q204.42188 29.996876 203.90625 29.653126Q203.54688 29.41875 202.10938 29.059376Q200.17188 28.559376 199.42188 28.215626Q198.6875 27.85625 198.29688 27.23125Q197.90625 26.590626 197.90625 25.825Q197.90625 25.1375 198.21875 24.54375Q198.54688 23.95 199.09375 23.559376Q199.5 23.2625 200.20312 23.059376Q200.92188 22.840626 201.73438 22.840626Q202.95312 22.840626 203.875 23.2Q204.79688 23.54375 205.23438 24.153126Q205.67188 24.746876 205.84375 25.746876L204.125 25.98125Q204.0 25.184376 203.4375 24.746876Q202.875 24.29375 201.85938 24.29375Q200.64062 24.29375 200.125 24.7Q199.60938 25.090626 199.60938 25.621876Q199.60938 25.965626 199.82812 26.246876Q200.03125 26.528126 200.5 26.715626Q200.76562 26.809376 202.04688 27.153126Q203.92188 27.653126 204.65625 27.98125Q205.39062 28.29375 205.8125 28.903126Q206.23438 29.496876 206.23438 30.403126Q206.23438 31.278126 205.71875 32.059376Q205.20312 32.840626 204.23438 33.2625Q203.26562 33.684376 202.04688 33.684376Q200.03125 33.684376 198.96875 32.840626Q197.90625 31.996876 197.60938 30.35625ZM207.0 33.7L211.15625 18.8875L212.5625 18.8875L208.42188 33.7L207.0 33.7ZM214.29688 33.45L214.29688 23.075L215.875 23.075L215.875 24.653126Q216.48438 23.54375 217.0 23.2Q217.51562 22.840626 218.125 22.840626Q219.01562 22.840626 219.9375 23.403126L219.32812 25.04375Q218.6875 24.653126 218.04688 24.653126Q217.46875 24.653126 217.0 25.0125Q216.54688 25.35625 216.34375 25.965626Q216.0625 26.903126 216.0625 28.0125L216.0625 33.45L214.29688 33.45ZM228.42188 30.10625L230.23438 30.340626Q229.8125 31.91875 228.64062 32.809376Q227.48438 33.684376 225.67188 33.684376Q223.40625 33.684376 222.0625 32.29375Q220.73438 30.8875 220.73438 28.35625Q220.73438 25.73125 222.07812 24.29375Q223.42188 22.840626 225.57812 22.840626Q227.65625 22.840626 228.96875 24.2625Q230.29688 25.66875 230.29688 28.246876Q230.29688 28.403126 230.28125 28.715626L222.54688 28.715626Q222.64062 30.41875 223.51562 31.325Q224.39062 32.23125 225.6875 32.23125Q226.65625 32.23125 227.32812 31.73125Q228.01562 31.215626 228.42188 30.10625ZM222.64062 27.2625L228.4375 27.2625Q228.32812 25.965626 227.78125 25.309376Q226.9375 24.29375 225.59375 24.29375Q224.39062 24.29375 223.5625 25.10625Q222.73438 25.903126 222.64062 27.2625ZM236.15625 31.871876L236.40625 33.434376Q235.67188 33.590626 235.07812 33.590626Q234.125 33.590626 233.59375 33.29375Q233.07812 32.98125 232.85938 32.496876Q232.64062 31.996876 232.64062 30.41875L232.64062 24.45L231.35938 24.45L231.35938 23.075L232.64062 23.075L232.64062 20.5125L234.39062 19.45L234.39062 23.075L236.15625 23.075L236.15625 24.45L234.39062 24.45L234.39062 30.5125Q234.39062 31.2625 234.48438 31.48125Q234.57812 31.684376 234.78125 31.825Q235.0 31.95 235.39062 31.95Q235.67188 31.95 236.15625 31.871876ZM245.09375 32.16875Q244.10938 32.996876 243.20312 33.340626Q242.29688 33.684376 241.26562 33.684376Q239.5625 33.684376 238.64062 32.85625Q237.71875 32.0125 237.71875 30.715626Q237.71875 29.95 238.0625 29.325Q238.42188 28.7 238.98438 28.325Q239.54688 27.934376 240.25 27.73125Q240.76562 27.60625 241.8125 27.465626Q243.9375 27.215626 244.9375 26.871876Q244.95312 26.5125 244.95312 26.403126Q244.95312 25.340626 244.45312 24.8875Q243.78125 24.29375 242.45312 24.29375Q241.20312 24.29375 240.60938 24.73125Q240.03125 25.16875 239.75 26.278126L238.03125 26.04375Q238.26562 24.934376 238.79688 24.2625Q239.32812 23.575 240.34375 23.215626Q241.35938 22.840626 242.70312 22.840626Q244.03125 22.840626 244.85938 23.153126Q245.6875 23.465626 246.07812 23.95Q246.46875 24.41875 246.625 25.1375Q246.71875 25.590626 246.71875 26.7625L246.71875 29.10625Q246.71875 31.559376 246.82812 32.215626Q246.9375 32.85625 247.28125 33.45L245.4375 33.45Q245.17188 32.903126 245.09375 32.16875ZM244.9375 28.246876Q243.98438 28.6375 242.0625 28.903126Q240.98438 29.059376 240.53125 29.2625Q240.09375 29.45 239.84375 29.825Q239.59375 30.2 239.59375 30.66875Q239.59375 31.371876 240.125 31.840626Q240.65625 32.309376 241.6875 32.309376Q242.70312 32.309376 243.48438 31.871876Q244.28125 31.41875 244.65625 30.653126Q244.9375 30.04375 244.9375 28.8875L244.9375 28.246876ZM249.32812 21.153126L249.32812 19.1375L251.09375 19.1375L251.09375 21.153126L249.32812 21.153126ZM249.32812 33.45L249.32812 23.075L251.09375 23.075L251.09375 33.45L249.32812 33.45ZM253.28125 33.45L253.28125 19.1375L255.03125 19.1375L255.03125 33.45L253.28125 33.45ZM257.8125 33.45L257.8125 31.45L259.8125 31.45L259.8125 33.45L257.8125 33.45ZM270.04688 33.45L270.04688 32.1375Q269.0625 33.684376 267.14062 33.684376Q265.90625 33.684376 264.85938 32.996876Q263.82812 32.309376 263.25 31.090626Q262.6875 29.871876 262.6875 28.278126Q262.6875 26.715626 263.20312 25.45Q263.71875 24.184376 264.75 23.5125Q265.79688 22.840626 267.0625 22.840626Q268.0 22.840626 268.73438 23.246876Q269.46875 23.6375 269.9375 24.2625L269.9375 19.1375L271.67188 19.1375L271.67188 33.45L270.04688 33.45ZM264.48438 28.278126Q264.48438 30.2625 265.32812 31.246876Q266.17188 32.23125 267.3125 32.23125Q268.46875 32.23125 269.26562 31.29375Q270.07812 30.35625 270.07812 28.41875Q270.07812 26.29375 269.25 25.29375Q268.4375 24.29375 267.23438 24.29375Q266.0625 24.29375 265.26562 25.2625Q264.48438 26.215626 264.48438 28.278126ZM281.09375 32.16875Q280.10938 32.996876 279.20312 33.340626Q278.29688 33.684376 277.26562 33.684376Q275.5625 33.684376 274.64062 32.85625Q273.71875 32.0125 273.71875 30.715626Q273.71875 29.95 274.0625 29.325Q274.42188 28.7 274.98438 28.325Q275.54688 27.934376 276.25 27.73125Q276.76562 27.60625 277.8125 27.465626Q279.9375 27.215626 280.9375 26.871876Q280.95312 26.5125 280.95312 26.403126Q280.95312 25.340626 280.45312 24.8875Q279.78125 24.29375 278.45312 24.29375Q277.20312 24.29375 276.60938 24.73125Q276.03125 25.16875 275.75 26.278126L274.03125 26.04375Q274.26562 24.934376 274.79688 24.2625Q275.32812 23.575 276.34375 23.215626Q277.35938 22.840626 278.70312 22.840626Q280.03125 22.840626 280.85938 23.153126Q281.6875 23.465626 282.07812 23.95Q282.46875 24.41875 282.625 25.1375Q282.71875 25.590626 282.71875 26.7625L282.71875 29.10625Q282.71875 31.559376 282.82812 32.215626Q282.9375 32.85625 283.28125 33.45L281.4375 33.45Q281.17188 32.903126 281.09375 32.16875ZM280.9375 28.246876Q279.98438 28.6375 278.0625 28.903126Q276.98438 29.059376 276.53125 29.2625Q276.09375 29.45 275.84375 29.825Q275.59375 30.2 275.59375 30.66875Q275.59375 31.371876 276.125 31.840626Q276.65625 32.309376 277.6875 32.309376Q278.70312 32.309376 279.48438 31.871876Q280.28125 31.41875 280.65625 30.653126Q280.9375 30.04375 280.9375 28.8875L280.9375 28.246876ZM289.15625 31.871876L289.40625 33.434376Q288.67188 33.590626 288.07812 33.590626Q287.125 33.590626 286.59375 33.29375Q286.07812 32.98125 285.85938 32.496876Q285.64062 31.996876 285.64062 30.41875L285.64062 24.45L284.35938 24.45L284.35938 23.075L285.64062 23.075L285.64062 20.5125L287.39062 19.45L287.39062 23.075L289.15625 23.075L289.15625 24.45L287.39062 24.45L287.39062 30.5125Q287.39062 31.2625 287.48438 31.48125Q287.57812 31.684376 287.78125 31.825Q288.0 31.95 288.39062 31.95Q288.67188 31.95 289.15625 31.871876Z" fill-rule="nonzero"/></svg>